<svg viewBox="0 0 24 24" fill="none" xmlns="http://www.w3.org/2000/svg">
  <path fill-rule="evenodd" clip-rule="evenodd"
    d="M2.25 8C2.25 4.82436 4.82436 2.25 8 2.25H16C19.1756 2.25 21.75 4.82436 21.75 8V16C21.75 19.1756 19.1756 21.75 16 21.75H8C4.82436 21.75 2.25 19.1756 2.25 16V8ZM8 3.75C5.65279 3.75 3.75 5.65279 3.75 8V16C3.75 18.3472 5.65279 20.25 8 20.25H16C18.3472 20.25 20.25 18.3472 20.25 16V8C20.25 5.65279 18.3472 3.75 16 3.75H8Z"
    fill="currentColor" />
  <path fill-rule="evenodd" clip-rule="evenodd"
    d="M10.744 11.8046C10.64 11.7007 10.4693 11.7084 10.3751 11.8214L8.57617 13.9801C8.311 14.2983 7.83807 14.3413 7.51987 14.0762C7.20166 13.811 7.15866 13.3381 7.42384 13.0199L9.22282 10.8611C9.8816 10.0705 11.077 10.0163 11.8046 10.744L13.756 12.6954C13.86 12.7993 14.0307 12.7916 14.1249 12.6786L15.9238 10.5199C16.189 10.2017 16.6619 10.1587 16.9801 10.4238C17.2983 10.689 17.3413 11.1619 17.0762 11.4801L15.2772 13.6389C14.6184 14.4295 13.423 14.4837 12.6954 13.756L10.744 11.8046Z"
    fill="currentColor" />
</svg>