<svg viewBox="0 0 24 24" fill="none" xmlns="http://www.w3.org/2000/svg">
  <path fill-rule="evenodd" clip-rule="evenodd"
    d="M10 4.75C7.65279 4.75 5.75 6.65279 5.75 9C5.75 11.3472 7.65279 13.25 10 13.25C12.3472 13.25 14.25 11.3472 14.25 9C14.25 6.65279 12.3472 4.75 10 4.75ZM4.25 9C4.25 5.82436 6.82436 3.25 10 3.25C13.1756 3.25 15.75 5.82436 15.75 9C15.75 12.1756 13.1756 14.75 10 14.75C6.82436 14.75 4.25 12.1756 4.25 9Z"
    fill="currentColor" />
  <path fill-rule="evenodd" clip-rule="evenodd"
    d="M10 16.3497C12.0795 16.3497 14.2139 17.0111 15.7143 18.4043C16.0931 18.756 16.4224 19.1677 16.6709 19.6646C16.8561 20.0351 16.7059 20.4856 16.3355 20.6708C15.965 20.8561 15.5145 20.7059 15.3292 20.3354C15.1722 20.0214 14.9599 19.7506 14.6937 19.5035C13.5316 18.4245 11.7933 17.8497 10 17.8497C8.20682 17.8497 6.46845 18.4245 5.30638 19.5035C5.0402 19.7506 4.82789 20.0214 4.67086 20.3354C4.48562 20.7059 4.03512 20.8561 3.66463 20.6708C3.29415 20.4856 3.14398 20.0351 3.32922 19.6646C3.57764 19.1677 3.90696 18.756 4.28574 18.4043C5.78623 17.0111 7.92056 16.3497 10 16.3497Z"
    fill="currentColor" />
  <path fill-rule="evenodd" clip-rule="evenodd"
    d="M19 10.25C19.4142 10.25 19.75 10.5858 19.75 11V15C19.75 15.4142 19.4142 15.75 19 15.75C18.5858 15.75 18.25 15.4142 18.25 15V11C18.25 10.5858 18.5858 10.25 19 10.25Z"
    fill="currentColor" />
  <path fill-rule="evenodd" clip-rule="evenodd"
    d="M16.25 13C16.25 12.5858 16.5858 12.25 17 12.25H21C21.4142 12.25 21.75 12.5858 21.75 13C21.75 13.4142 21.4142 13.75 21 13.75H17C16.5858 13.75 16.25 13.4142 16.25 13Z"
    fill="currentColor" />
</svg>