<svg viewBox="0 0 24 24" fill="none" xmlns="http://www.w3.org/2000/svg">
  <path fill-rule="evenodd" clip-rule="evenodd"
    d="M2.25 8C2.25 4.82436 4.82436 2.25 8 2.25H16C19.1756 2.25 21.75 4.82436 21.75 8V16C21.75 19.1756 19.1756 21.75 16 21.75H8C4.82436 21.75 2.25 19.1756 2.25 16V8ZM8 3.75C5.65279 3.75 3.75 5.65279 3.75 8V16C3.75 18.3472 5.65279 20.25 8 20.25H16C18.3472 20.25 20.25 18.3472 20.25 16V8C20.25 5.65279 18.3472 3.75 16 3.75H8Z"
    fill="currentColor" />
  <path fill-rule="evenodd" clip-rule="evenodd"
    d="M6.54272 8.40553C6.87104 8.15298 7.34192 8.2144 7.59447 8.54272L12.5945 15.0427C12.847 15.371 12.7856 15.8419 12.4573 16.0945C12.129 16.347 11.6581 16.2856 11.4055 15.9573L6.40554 9.45728C6.15299 9.12897 6.21441 8.65808 6.54272 8.40553Z"
    fill="currentColor" />
  <path fill-rule="evenodd" clip-rule="evenodd"
    d="M12.4573 8.40553C12.7856 8.65808 12.847 9.12897 12.5945 9.45728L7.59447 15.9573C7.34192 16.2856 6.87104 16.347 6.54272 16.0945C6.21441 15.8419 6.15299 15.371 6.40554 15.0427L11.4055 8.54272C11.6581 8.2144 12.129 8.15298 12.4573 8.40553Z"
    fill="currentColor" />
  <path fill-rule="evenodd" clip-rule="evenodd"
    d="M17.5 7.75C17.9142 7.75 18.25 8.08579 18.25 8.5V15.5C18.25 15.9142 17.9142 16.25 17.5 16.25C17.0858 16.25 16.75 15.9142 16.75 15.5V8.5C16.75 8.08579 17.0858 7.75 17.5 7.75Z"
    fill="currentColor" />
  <path fill-rule="evenodd" clip-rule="evenodd"
    d="M16.2 12.75C15.6753 12.75 15.25 13.1753 15.25 13.7V13.8C15.25 14.3247 15.6753 14.75 16.2 14.75H17.5C17.9142 14.75 18.25 15.0858 18.25 15.5C18.25 15.9142 17.9142 16.25 17.5 16.25H16.2C14.8469 16.25 13.75 15.1531 13.75 13.8V13.7C13.75 12.3469 14.8469 11.25 16.2 11.25H17.5C17.9142 11.25 18.25 11.5858 18.25 12C18.25 12.4142 17.9142 12.75 17.5 12.75H16.2Z"
    fill="currentColor" />
</svg>