<svg viewBox="0 0 24 24" fill="none" xmlns="http://www.w3.org/2000/svg">
  <path fill-rule="evenodd" clip-rule="evenodd"
    d="M13.0094 7.81853C12.6734 7.93897 12.2885 8.0769 11.9343 8.16411C11.7632 8.20621 11.5592 8.22666 11.3407 8.18794C11.0139 8.13001 10.6503 7.98869 10.3472 7.87089C10.2678 7.84004 10.1926 7.81081 10.1233 7.7851C9.75258 7.64767 9.38456 7.53591 8.97336 7.50828C7.99914 7.56866 7.2737 7.95327 6.75893 8.53263C6.22645 9.13193 5.88103 9.9851 5.78034 11.0109C5.57878 13.064 6.37791 15.6666 8.32424 17.7558C8.62789 18.0419 8.83387 18.1403 9.02348 18.1676C9.23093 18.1974 9.54897 18.1606 10.1087 17.9107L10.1166 17.9072L10.1166 17.9072C11.2962 17.3967 12.3701 17.4174 13.4922 17.9084L13.5011 17.9123L13.5011 17.9123C13.8924 18.0896 14.2157 18.1712 14.4902 18.1575C14.7365 18.1452 15.0028 18.054 15.2998 17.7555L15.5654 18.0157L15.3129 17.7434C16.0884 17.0243 16.6256 16.0689 17.0608 15.0076C14.8546 13.5773 14.2966 10.192 16.5019 8.20227C16.0348 7.78598 15.4183 7.53583 14.616 7.46918C14.2503 7.44268 13.874 7.52518 13.4237 7.67362C13.3001 7.71437 13.1596 7.7647 13.0094 7.81853ZM16.337 18.8394C17.4953 17.7634 18.1735 16.345 18.6699 15.0093C18.8329 14.5706 18.61 14.112 18.22 13.9362C16.3611 13.0982 15.9092 10.3182 17.9118 9.00467C18.2835 8.76088 18.4411 8.22424 18.1415 7.80206C17.3514 6.68838 16.177 6.09273 14.736 5.97398L14.736 5.97395L14.7298 5.97349C14.0666 5.92437 13.4645 6.08075 12.954 6.24904C12.7468 6.31737 12.5659 6.38266 12.3976 6.4434C12.111 6.54687 11.8609 6.63713 11.5795 6.70666C11.4173 6.67485 11.2496 6.6101 10.9981 6.51303C10.8959 6.47357 10.7799 6.42876 10.6447 6.37866C10.2097 6.21738 9.6646 6.04301 9.0148 6.00808L8.97504 6.00594L8.93528 6.00802C7.55566 6.08033 6.43624 6.63746 5.6376 7.53632C4.84959 8.42322 4.41181 9.59813 4.28751 10.8643C4.0396 13.3897 5.01861 16.4183 7.24404 18.7968L7.25879 18.8126L7.27442 18.8275C7.69951 19.2324 8.18408 19.5622 8.80987 19.6523C9.41969 19.74 10.0432 19.5821 10.716 19.2822C11.5047 18.9418 12.1433 18.9564 12.8868 19.2808C13.3773 19.5025 13.9522 19.6863 14.565 19.6556C15.1976 19.624 15.8006 19.3676 16.337 18.8394Z"
    fill="currentColor" />
  <path fill-rule="evenodd" clip-rule="evenodd"
    d="M11.542 5.64902C11.4005 5.66673 11.2624 5.59781 11.1914 5.47406C10.9058 4.9759 10.8979 4.26142 11.2249 3.60606C11.552 2.9507 12.1276 2.5274 12.6974 2.45611C12.8389 2.4384 12.9771 2.50732 13.048 2.63107C13.3336 3.12923 13.3415 3.84371 13.0145 4.49907C12.6875 5.15443 12.1118 5.57773 11.542 5.64902Z"
    fill="currentColor" />
</svg>