<svg viewBox="0 0 24 24" fill="none" xmlns="http://www.w3.org/2000/svg">
  <path fill-rule="evenodd" clip-rule="evenodd"
    d="M5.63914 5.63625C6.2473 4.76744 7.24112 4.25 8.30164 4.25H15.6984C16.7589 4.25 17.7527 4.76744 18.3609 5.63625L20.6625 8.9243C21.0449 9.47058 21.25 10.1212 21.25 10.7881V16.5C21.25 18.8472 19.3472 20.75 17 20.75H7C4.65279 20.75 2.75 18.8472 2.75 16.5V10.7881C2.75 10.1212 2.95511 9.47057 3.3375 8.9243L5.63914 5.63625ZM8.30164 5.75C7.73059 5.75 7.19546 6.02862 6.86798 6.49644L4.56634 9.7845C4.36044 10.0786 4.25 10.429 4.25 10.7881V16.5C4.25 18.0188 5.48122 19.25 7 19.25H17C18.5188 19.25 19.75 18.0188 19.75 16.5V10.7881C19.75 10.429 19.6396 10.0786 19.4337 9.7845L17.132 6.49644C16.8045 6.02862 16.2694 5.75 15.6984 5.75H8.30164Z"
    fill="currentColor" />
  <path fill-rule="evenodd" clip-rule="evenodd"
    d="M2.77643 10.3027C2.88542 9.90304 3.29772 9.66744 3.69734 9.77643L7.73511 10.8776C8.92472 11.2021 9.75001 12.2826 9.75001 13.5156C9.75001 14.1974 10.3026 14.75 10.9844 14.75H13.0156C13.6974 14.75 14.25 14.1974 14.25 13.5156C14.25 12.2826 15.0753 11.2021 16.2649 10.8776L20.3027 9.77643C20.7023 9.66744 21.1146 9.90304 21.2236 10.3027C21.3326 10.7023 21.097 11.1146 20.6973 11.2236L16.6596 12.3248C16.1226 12.4712 15.75 12.959 15.75 13.5156C15.75 15.0258 14.5258 16.25 13.0156 16.25H10.9844C9.47422 16.25 8.25001 15.0258 8.25001 13.5156C8.25001 12.959 7.87745 12.4712 7.34043 12.3248L3.30267 11.2236C2.90305 11.1146 2.66745 10.7023 2.77643 10.3027Z"
    fill="currentColor" />
</svg>