<svg viewBox="0 0 24 24" fill="none" xmlns="http://www.w3.org/2000/svg">
  <path fill-rule="evenodd" clip-rule="evenodd"
    d="M12 3.75C7.44365 3.75 3.75 7.44365 3.75 12C3.75 16.5563 7.44365 20.25 12 20.25C16.5563 20.25 20.25 16.5563 20.25 12C20.25 7.44365 16.5563 3.75 12 3.75ZM2.25 12C2.25 6.61522 6.61522 2.25 12 2.25C17.3848 2.25 21.75 6.61522 21.75 12C21.75 17.3848 17.3848 21.75 12 21.75C6.61522 21.75 2.25 17.3848 2.25 12Z"
    fill="currentColor" />
  <path fill-rule="evenodd" clip-rule="evenodd"
    d="M8.46967 10.4697C8.76256 10.1768 9.23744 10.1768 9.53033 10.4697L11.8232 12.7626C11.9209 12.8602 12.0791 12.8602 12.1768 12.7626L14.4697 10.4697C14.7626 10.1768 15.2374 10.1768 15.5303 10.4697C15.8232 10.7626 15.8232 11.2374 15.5303 11.5303L13.2374 13.8232C12.554 14.5066 11.446 14.5066 10.7626 13.8232L8.46967 11.5303C8.17678 11.2374 8.17678 10.7626 8.46967 10.4697Z"
    fill="currentColor" />
</svg>