<svg viewBox="0 0 24 24" fill="none" xmlns="http://www.w3.org/2000/svg">
  <path fill-rule="evenodd" clip-rule="evenodd"
    d="M12 3.75C7.44365 3.75 3.75 7.44365 3.75 12C3.75 16.5563 7.44365 20.25 12 20.25C16.5563 20.25 20.25 16.5563 20.25 12C20.25 7.44365 16.5563 3.75 12 3.75ZM2.25 12C2.25 6.61522 6.61522 2.25 12 2.25C17.3848 2.25 21.75 6.61522 21.75 12C21.75 17.3848 17.3848 21.75 12 21.75C6.61522 21.75 2.25 17.3848 2.25 12Z"
    fill="currentColor" />
  <path fill-rule="evenodd" clip-rule="evenodd"
    d="M10.5596 8.72406C11.394 8.02873 12.606 8.02873 13.4404 8.72406L14.8799 9.92361C15.4729 10.4178 15.7185 11.2152 15.5065 11.9573L14.9698 13.8357C14.7306 14.6728 13.9655 15.25 13.0948 15.25H10.9052C10.0345 15.25 9.26938 14.6728 9.03019 13.8357L8.49352 11.9573C8.28147 11.2152 8.52716 10.4178 9.12013 9.92361L10.5596 8.72406ZM12.4801 9.87639C12.202 9.64462 11.798 9.64462 11.5199 9.87639L10.0804 11.0759C9.94357 11.19 9.88687 11.374 9.93581 11.5453L10.4725 13.4236C10.5277 13.6168 10.7042 13.75 10.9052 13.75H13.0948C13.2958 13.75 13.4723 13.6168 13.5275 13.4236L14.0642 11.5453C14.1131 11.374 14.0564 11.19 13.9196 11.0759L12.4801 9.87639Z"
    fill="currentColor" />
  <path fill-rule="evenodd" clip-rule="evenodd"
    d="M8.46967 2.96967C8.76256 2.67678 9.23744 2.67678 9.53033 2.96967L10.7626 4.2019C11.446 4.88532 12.554 4.88532 13.2374 4.2019L14.4697 2.96967C14.7626 2.67678 15.2374 2.67678 15.5303 2.96967C15.8232 3.26256 15.8232 3.73744 15.5303 4.03033L14.2981 5.26256C13.0289 6.53177 10.9711 6.53177 9.7019 5.26256L8.46967 4.03033C8.17678 3.73744 8.17678 3.26256 8.46967 2.96967Z"
    fill="currentColor" />
  <path fill-rule="evenodd" clip-rule="evenodd"
    d="M9.9194 18.2576C11.1247 17.2532 12.8754 17.2532 14.0806 18.2576L15.4801 19.4238C15.7983 19.689 15.8413 20.1619 15.5762 20.4801C15.311 20.7983 14.8381 20.8413 14.5199 20.5762L13.1203 19.4099C12.4713 18.8691 11.5287 18.8691 10.8797 19.4099L9.48014 20.5762C9.16193 20.8413 8.68901 20.7983 8.42384 20.4801C8.15866 20.1619 8.20166 19.689 8.51987 19.4238L9.9194 18.2576Z"
    fill="currentColor" />
  <path fill-rule="evenodd" clip-rule="evenodd"
    d="M21.0303 8.46967C21.3232 8.76256 21.3232 9.23744 21.0303 9.53033L19.091 11.4697C18.7981 11.7626 18.7981 12.2374 19.091 12.5303L21.0303 14.4697C21.3232 14.7626 21.3232 15.2374 21.0303 15.5303C20.7374 15.8232 20.2626 15.8232 19.9697 15.5303L18.0303 13.591C17.1517 12.7123 17.1517 11.2877 18.0303 10.409L19.9697 8.46967C20.2626 8.17678 20.7374 8.17678 21.0303 8.46967Z"
    fill="currentColor" />
  <path fill-rule="evenodd" clip-rule="evenodd"
    d="M2.96967 8.46967C3.26256 8.17678 3.73744 8.17678 4.03033 8.46967L5.96967 10.409C6.84835 11.2877 6.84835 12.7123 5.96967 13.591L4.03033 15.5303C3.73744 15.8232 3.26256 15.8232 2.96967 15.5303C2.67678 15.2374 2.67678 14.7626 2.96967 14.4697L4.90901 12.5303C5.2019 12.2374 5.2019 11.7626 4.90901 11.4697L2.96967 9.53033C2.67678 9.23744 2.67678 8.76256 2.96967 8.46967Z"
    fill="currentColor" />
</svg>