<svg viewBox="0 0 24 24" fill="none" xmlns="http://www.w3.org/2000/svg">
  <path fill-rule="evenodd" clip-rule="evenodd"
    d="M12 3.75C7.44365 3.75 3.75 7.44365 3.75 12C3.75 16.5563 7.44365 20.25 12 20.25C16.5563 20.25 20.25 16.5563 20.25 12C20.25 7.44365 16.5563 3.75 12 3.75ZM2.25 12C2.25 6.61522 6.61522 2.25 12 2.25C17.3848 2.25 21.75 6.61522 21.75 12C21.75 17.3848 17.3848 21.75 12 21.75C6.61522 21.75 2.25 17.3848 2.25 12Z"
    fill="currentColor" />
  <path fill-rule="evenodd" clip-rule="evenodd"
    d="M16.8172 3.82036C17.1925 3.99553 17.3548 4.44181 17.1796 4.81716L17.0345 5.12811C15.0018 9.48389 15.0018 14.5161 17.0345 18.8719L17.1796 19.1828C17.3548 19.5582 17.1925 20.0045 16.8172 20.1796C16.4418 20.3548 15.9955 20.1925 15.8204 19.8172L15.6753 19.5062C13.4549 14.7484 13.4549 9.25164 15.6753 4.49378L15.8204 4.18284C15.9955 3.80748 16.4418 3.6452 16.8172 3.82036Z"
    fill="currentColor" />
  <path fill-rule="evenodd" clip-rule="evenodd"
    d="M7.1646 3.82918C7.53508 3.64394 7.98558 3.79411 8.17083 4.16459C10.4881 8.79914 10.6271 14.2235 8.55022 18.9707L8.18712 19.8006C8.0211 20.1801 7.57888 20.3531 7.19939 20.1871C6.81991 20.0211 6.64686 19.5789 6.81289 19.1994L7.17599 18.3694C9.07443 14.0302 8.94737 9.07178 6.82919 4.83541C6.64394 4.46493 6.79411 4.01442 7.1646 3.82918Z"
    fill="currentColor" />
  <path fill-rule="evenodd" clip-rule="evenodd"
    d="M2.87032 10.5926C3.09534 10.2448 3.55967 10.1453 3.90744 10.3703C8.83197 13.5568 15.168 13.5568 20.0926 10.3703C20.4403 10.1453 20.9047 10.2448 21.1297 10.5926C21.3547 10.9403 21.2552 11.4047 20.9074 11.6297C15.487 15.137 8.51297 15.137 3.09256 11.6297C2.7448 11.4047 2.6453 10.9403 2.87032 10.5926Z"
    fill="currentColor" />
</svg>