<svg viewBox="0 0 20 20" fill="none" xmlns="http://www.w3.org/2000/svg">
<path d="M8.85643 4.06488C9.42237 3.29087 10.5777 3.29087 11.1436 4.06488L12.4643 5.87118C12.6392 6.11032 12.8846 6.28862 13.166 6.38102L15.2921 7.07893C16.2031 7.37799 16.5601 8.47673 15.9988 9.25415L14.6891 11.0684C14.5157 11.3086 14.4219 11.5971 14.421 11.8933L14.4143 14.131C14.4114 15.0898 13.4767 15.7689 12.5639 15.4753L10.4337 14.7903C10.1517 14.6996 9.84833 14.6996 9.56632 14.7903L7.4361 15.4753C6.5233 15.7689 5.58866 15.0898 5.58575 14.131L5.57898 11.8933C5.57808 11.5971 5.48434 11.3086 5.31094 11.0684L4.00117 9.25415C3.43993 8.47673 3.79694 7.37799 4.70795 7.07893L6.83397 6.38102C7.11543 6.28862 7.36085 6.11032 7.5357 5.87118L8.85643 4.06488Z" fill="#EFBF14"/>
</svg>
