<svg viewBox="0 0 20 20" fill="none" xmlns="http://www.w3.org/2000/svg">
<path d="M13.4521 4.35563C14.2024 4.35563 14.8106 4.96386 14.8106 5.71421C14.8106 6.46455 14.2024 7.07278 13.4521 7.07278C12.7017 7.07278 12.0935 6.46455 12.0935 5.71421C12.0935 4.96386 12.7017 4.35563 13.4521 4.35563ZM15.903 5.71421C15.903 4.36061 14.8057 3.26325 13.4521 3.26325C12.2861 3.26325 11.3105 4.07726 11.0622 5.16802L7.27044 5.16802C7.02215 4.07726 6.04658 3.26325 4.88062 3.26325C3.52702 3.26325 2.42966 4.36061 2.42966 5.7142C2.42966 7.0678 3.52702 8.16516 4.88062 8.16516C6.01728 8.16516 6.97305 7.39143 7.25041 6.34207C7.77173 6.53193 8.14395 7.03205 8.14395 7.61897L8.14395 12.3809C8.14395 13.7345 9.2413 14.8318 10.5949 14.8318H11.0622C11.3105 15.9225 12.2861 16.7366 13.452 16.7366C14.8056 16.7366 15.903 15.6392 15.903 14.2856C15.903 12.932 14.8056 11.8347 13.452 11.8347C12.2861 11.8347 11.3105 12.6488 11.0622 13.7394H10.5949C9.84456 13.7394 9.23633 13.1312 9.23633 12.3809L9.23633 7.61897C9.23633 7.11651 9.0851 6.64927 8.82568 6.26039L11.0622 6.26039C11.3105 7.35115 12.2861 8.16516 13.4521 8.16516C14.8057 8.16516 15.903 7.0678 15.903 5.71421ZM4.88063 4.35563C5.63097 4.35563 6.2392 4.96386 6.2392 5.71421C6.2392 6.46455 5.63097 7.07278 4.88063 7.07278C4.13028 7.07278 3.52206 6.46455 3.52206 5.71421C3.52206 4.96386 4.13028 4.35563 4.88063 4.35563ZM13.4521 15.6442C12.7017 15.6442 12.0935 15.036 12.0935 14.2856C12.0935 13.5353 12.7017 12.9271 13.4521 12.9271C14.2024 12.9271 14.8106 13.5353 14.8106 14.2856C14.8106 15.036 14.2024 15.6442 13.4521 15.6442Z" fill="currentColor" stroke="#0057FF" stroke-width="0.14"/>
</svg>
