<svg width="100" height="100" viewBox="0 0 100 100" fill="none" xmlns="http://www.w3.org/2000/svg">
<g id="icons8-browse_folder 1">
<path id="Vector" d="M16 21C12.1457 21 9 24.1457 9 28V78C8.99965 78.0769 9.00817 78.1536 9.02539 78.2285C8.87798 80.7373 10.8865 83 13.5078 83H77.2832C79.3341 83 81.1347 81.6018 81.6426 79.6152L91.9687 39.248C92.0065 39.1004 92.0101 38.946 91.9791 38.7967C91.9481 38.6475 91.8834 38.5073 91.7899 38.3869C91.6964 38.2664 91.5767 38.169 91.4398 38.1019C91.3029 38.0349 91.1524 38 91 38H82V34C82 32.355 80.645 31 79 31H51C50.435 31 50 30.565 50 30V28C50 24.1457 46.8543 21 43 21H16ZM16 23H43C45.7737 23 48 25.2263 48 28V30C48 31.645 49.355 33 51 33H79C79.565 33 80 33.435 80 34V38H20C19.778 38 19.5622 38.0739 19.3868 38.2101C19.2114 38.3462 19.0863 38.5369 19.0312 38.752L11 70.1465V28C11 25.2263 13.2263 23 16 23ZM14.5 28C14.4337 27.9991 14.368 28.0113 14.3065 28.036C14.245 28.0607 14.189 28.0974 14.1418 28.1439C14.0947 28.1904 14.0572 28.2459 14.0316 28.307C14.006 28.3681 13.9929 28.4337 13.9929 28.5C13.9929 28.5663 14.006 28.6319 14.0316 28.693C14.0572 28.7541 14.0947 28.8096 14.1418 28.8561C14.189 28.9026 14.245 28.9393 14.3065 28.964C14.368 28.9887 14.4337 29.0009 14.5 29H31.5C31.5663 29.0009 31.632 28.9887 31.6935 28.964C31.755 28.9393 31.811 28.9026 31.8581 28.8561C31.9053 28.8096 31.9428 28.7541 31.9684 28.693C31.9939 28.6319 32.0071 28.5663 32.0071 28.5C32.0071 28.4337 31.9939 28.3681 31.9684 28.307C31.9428 28.2459 31.9053 28.1904 31.8581 28.1439C31.811 28.0974 31.755 28.0607 31.6935 28.036C31.632 28.0113 31.5663 27.9991 31.5 28H14.5ZM20.7773 40H80.832C80.94 40.0178 81.0502 40.0178 81.1582 40H89.7129L79.7051 79.1191C79.4209 80.2306 78.4302 81 77.2832 81H13.5078C11.8513 81 10.6757 79.4849 11.0859 77.8809L20.7773 40ZM46.5 45C40.1546 45 35 50.1546 35 56.5C35 62.8454 40.1546 68 46.5 68C49.4928 68 52.2107 66.8423 54.2578 64.9648L56.4141 67.1211V67.123C55.7762 68.0921 55.8819 69.417 56.7324 70.2676L61.7324 75.2676C62.2182 75.7546 62.861 76 63.5 76C64.139 76 64.7818 75.7546 65.2676 75.2676C66.2396 74.2955 66.2396 72.7045 65.2676 71.7324L60.2676 66.7324C59.7818 66.2461 59.141 66.0039 58.5 66.0039C58.0192 66.0039 57.5382 66.1408 57.123 66.4141H57.1211L54.9648 64.2578C56.8423 62.2107 58 59.4928 58 56.5C58 50.1546 52.8454 45 46.5 45ZM46.5 46C52.3049 46 57 50.6951 57 56.5C57 62.3049 52.3049 67 46.5 67C40.6951 67 36 62.3049 36 56.5C36 50.6951 40.6951 46 46.5 46ZM46.5 48C41.8115 48 38 51.8115 38 56.5C38 61.1885 41.8115 65 46.5 65C51.1885 65 55 61.1885 55 56.5C55 51.8115 51.1885 48 46.5 48ZM46.5 49C50.6481 49 54 52.3519 54 56.5C54 60.6481 50.6481 64 46.5 64C42.3519 64 39 60.6481 39 56.5C39 52.3519 42.3519 49 46.5 49ZM58.5 66.998C58.883 66.998 59.2663 67.1448 59.5605 67.4395L59.707 67.5859L57.5859 69.707L57.4395 69.5605C56.8495 68.9706 56.8495 68.0294 57.4395 67.4395C57.7337 67.1448 58.117 66.998 58.5 66.998ZM60.4141 68.293L64.5605 72.4395C65.1505 73.0294 65.1505 73.9706 64.5605 74.5605C64.2664 74.8555 63.885 75 63.5 75C63.115 75 62.7336 74.8555 62.4395 74.5605L58.293 70.4141L60.4141 68.293Z" fill="currentColor"/>
</g>
</svg>
