<svg viewBox="0 0 24 24" fill="none" xmlns="http://www.w3.org/2000/svg">
  <path fill-rule="evenodd" clip-rule="evenodd"
    d="M5.34464 3.50923C6.62739 2.65406 8.36244 3.02031 9.19013 4.32096L10.732 6.74383C11.4239 7.83124 11.2678 9.25338 10.3564 10.1648L9.84993 10.6713L9.92277 10.8413C10.6159 12.4586 11.8375 13.79 13.3842 14.6197L13.9347 14.2069C14.8292 13.536 16.0408 13.4735 16.9996 14.0488L19.2665 15.409C20.4943 16.1456 20.8924 17.738 20.1557 18.9658L20.1242 19.0184L19.481 18.6325L20.1242 19.0184C19.7108 19.7073 19.1096 20.264 18.3911 20.6233L18.0529 20.7924C17.41 21.1138 16.6766 21.2058 15.9743 21.0531L16.1336 20.3202L15.9743 21.0531L15.709 20.9955C9.15167 19.5699 4.18502 14.1971 3.27835 7.54813C3.22521 7.15845 3.24692 6.7622 3.3423 6.38065L3.39919 6.1531C3.65919 5.11308 4.29751 4.20731 5.18949 3.61266L5.34464 3.50923ZM7.92464 5.12627C7.54842 4.53507 6.75976 4.36859 6.17669 4.7573L6.02154 4.86074C5.44004 5.2484 5.02391 5.83889 4.8544 6.5169L4.79752 6.74445C4.74841 6.94087 4.73724 7.14486 4.76459 7.34546C5.58611 13.3699 10.0862 18.2381 16.0277 19.5297L15.8683 20.2626L16.0277 19.5297L16.2929 19.5874C16.6609 19.6674 17.0452 19.6191 17.3821 19.4507L17.7203 19.2816L18.0557 19.9524L17.7203 19.2816C18.1837 19.0499 18.5714 18.6909 18.8379 18.2467L18.8695 18.194L19.4904 18.5666L18.8695 18.194C19.1799 17.6767 19.0122 17.0056 18.4948 16.6952L16.2278 15.335C15.792 15.0735 15.2413 15.102 14.8347 15.4069L14.1017 15.9567L13.6517 15.3567L14.1017 15.9567C13.7573 16.215 13.2965 16.2565 12.9115 16.064L13.2469 15.3932L12.9115 16.064C10.9537 15.0851 9.40628 13.444 8.54405 11.4321L8.38744 11.0667C8.19642 10.621 8.296 10.1039 8.63889 9.761L9.29577 9.10412C9.71005 8.68985 9.78101 8.04342 9.46647 7.54914L7.92464 5.12627Z"
    fill="currentColor" />
  <path fill-rule="evenodd" clip-rule="evenodd"
    d="M12.2724 5.8181C12.3728 5.41625 12.78 5.17193 13.1819 5.2724C15.9127 5.95509 18.0449 8.08731 18.7276 10.8181C18.8281 11.2199 18.5837 11.6271 18.1819 11.7276C17.78 11.8281 17.3728 11.5837 17.2724 11.1819C16.724 8.98854 15.0115 7.27595 12.8181 6.72761C12.4162 6.62715 12.1719 6.21995 12.2724 5.8181Z"
    fill="currentColor" />
  <path fill-rule="evenodd" clip-rule="evenodd"
    d="M14.2724 3.8181C14.3728 3.41625 14.78 3.17193 15.1819 3.2724C17.9127 3.95509 20.0449 6.08731 20.7276 8.8181C20.8281 9.21995 20.5837 9.62715 20.1819 9.72761C19.78 9.82807 19.3728 9.58375 19.2724 9.1819C18.724 6.98854 17.0115 5.27595 14.8181 4.72761C14.4162 4.62715 14.1719 4.21995 14.2724 3.8181Z"
    fill="currentColor" />
</svg>