<svg viewBox="0 0 24 24" fill="none" xmlns="http://www.w3.org/2000/svg">
  <path fill-rule="evenodd" clip-rule="evenodd"
    d="M12.2724 5.8181C12.3728 5.41625 12.78 5.17193 13.1819 5.2724C15.9127 5.95509 18.0449 8.08731 18.7276 10.8181C18.8281 11.2199 18.5837 11.6271 18.1819 11.7276C17.78 11.8281 17.3728 11.5837 17.2724 11.1819C16.724 8.98854 15.0115 7.27595 12.8181 6.72761C12.4162 6.62715 12.1719 6.21995 12.2724 5.8181Z"
    fill="currentColor" />
  <path fill-rule="evenodd" clip-rule="evenodd"
    d="M4.34464 3.71211C5.62739 2.85694 7.36244 3.22319 8.19013 4.52384L9.73196 6.94671C10.4239 8.03412 10.2678 9.45626 9.35643 10.3677L8.84993 10.8742L8.92277 11.0441C9.61591 12.6615 10.8375 13.9929 12.3842 14.8226L12.9347 14.4098C13.8292 13.7389 15.0408 13.6764 15.9996 14.2517L18.2665 15.6118C19.4943 16.3485 19.8924 17.9409 19.1557 19.1686L19.1242 19.2213L18.481 18.8354L19.1242 19.2213C18.7108 19.9101 18.1096 20.4669 17.3911 20.8261L17.0529 20.9952C16.41 21.3167 15.6766 21.4087 14.9743 21.256L15.1336 20.5231L14.9743 21.256L14.709 21.1983C8.15167 19.7728 3.18502 14.4 2.27835 7.75101C2.22521 7.36133 2.24692 6.96508 2.3423 6.58353L2.39919 6.35598C2.65919 5.31596 3.29751 4.4102 4.18949 3.81554L4.34464 3.71211ZM6.92464 5.32915C6.54842 4.73795 5.75976 4.57147 5.17669 4.96018L5.02154 5.06362C4.44004 5.45128 4.02391 6.04177 3.8544 6.71979L3.79752 6.94733C3.74841 7.14375 3.73724 7.34774 3.76459 7.54835C4.58611 13.5728 9.08624 18.441 15.0277 19.7326L14.8683 20.4655L15.0277 19.7326L15.2929 19.7902C15.6609 19.8702 16.0452 19.822 16.3821 19.6536L16.7203 19.4845L17.0557 20.1553L16.7203 19.4845C17.1837 19.2528 17.5714 18.8938 17.8379 18.4495L17.8695 18.3969L18.4904 18.7695L17.8695 18.3969C18.1799 17.8795 18.0122 17.2085 17.4948 16.8981L15.2278 15.5379C14.792 15.2764 14.2413 15.3048 13.8347 15.6098L13.1017 16.1595L12.6517 15.5595L13.1017 16.1595C12.7573 16.4178 12.2965 16.4594 11.9115 16.2669L12.2469 15.596L11.9115 16.2669C9.9537 15.288 8.40628 13.6469 7.54405 11.635L7.38744 11.2696C7.19642 10.8239 7.296 10.3068 7.63889 9.96388L8.29577 9.307C8.71005 8.89273 8.78101 8.2463 8.46647 7.75202L6.92464 5.32915Z"
    fill="currentColor" />
</svg>