<svg viewBox="0 0 24 24" fill="none" xmlns="http://www.w3.org/2000/svg">
  <path fill-rule="evenodd" clip-rule="evenodd"
    d="M18.5303 5.96967C18.8232 6.26256 18.8232 6.73744 18.5303 7.03033L15.5303 10.0303C15.2374 10.3232 14.7626 10.3232 14.4697 10.0303C14.1768 9.73744 14.1768 9.26256 14.4697 8.96967L17.4697 5.96967C17.7626 5.67678 18.2374 5.67678 18.5303 5.96967Z"
    fill="currentColor" />
  <path fill-rule="evenodd" clip-rule="evenodd"
    d="M14.4697 5.96967C14.7626 5.67678 15.2374 5.67678 15.5303 5.96967L18.5303 8.96967C18.8232 9.26256 18.8232 9.73744 18.5303 10.0303C18.2374 10.3232 17.7626 10.3232 17.4697 10.0303L14.4697 7.03033C14.1768 6.73744 14.1768 6.26256 14.4697 5.96967Z"
    fill="currentColor" />
  <path fill-rule="evenodd" clip-rule="evenodd"
    d="M5.88407 3.50923C7.16682 2.65406 8.90187 3.02031 9.72956 4.32096L11.2714 6.74383C11.9634 7.83124 11.8073 9.25338 10.8959 10.1648L10.3894 10.6713L10.4622 10.8413C11.1553 12.4586 12.377 13.79 13.9237 14.6197L14.4741 14.2069C15.3686 13.536 16.5802 13.4735 17.539 14.0488L19.806 15.409C21.0337 16.1456 21.4318 17.738 20.6952 18.9658L20.6636 19.0184L20.0205 18.6325L20.6636 19.0184C20.2503 19.7073 19.6491 20.264 18.9305 20.6233L18.5923 20.7924C17.9495 21.1138 17.216 21.2058 16.5137 21.0531L16.673 20.3202L16.5137 21.0531L16.2484 20.9955C9.6911 19.5699 4.72445 14.1971 3.81778 7.54813C3.76464 7.15845 3.78634 6.7622 3.88173 6.38065L3.93862 6.1531C4.19862 5.11308 4.83694 4.20731 5.72892 3.61266L5.88407 3.50923ZM8.46407 5.12627C8.08784 4.53507 7.29919 4.36859 6.71612 4.7573L6.56097 4.86074C5.97946 5.2484 5.56334 5.83889 5.39383 6.5169L5.33695 6.74445C5.28784 6.94087 5.27667 7.14486 5.30402 7.34546C6.12554 13.3699 10.6257 18.2381 16.5671 19.5297L16.4078 20.2626L16.5671 19.5297L16.8323 19.5874C17.2003 19.6674 17.5846 19.6191 17.9215 19.4507L18.2597 19.2816L18.5951 19.9524L18.2597 19.2816C18.7231 19.0499 19.1108 18.6909 19.3773 18.2467L19.4089 18.194L20.0299 18.5666L19.4089 18.194C19.7193 17.6767 19.5516 17.0056 19.0342 16.6952L16.7673 15.335C16.3315 15.0735 15.7807 15.102 15.3741 15.4069L14.6411 15.9567L14.1911 15.3567L14.6411 15.9567C14.2967 16.215 13.8359 16.2565 13.4509 16.064L13.7863 15.3932L13.4509 16.064C11.4931 15.0851 9.9457 13.444 9.08348 11.4321L8.92687 11.0667C8.73585 10.621 8.83543 10.1039 9.17832 9.761L9.8352 9.10412C10.2495 8.68985 10.3204 8.04342 10.0059 7.54914L8.46407 5.12627Z"
    fill="currentColor" />
</svg>