<svg viewBox="0 0 200 200" fill="none" xmlns="http://www.w3.org/2000/svg">
<path d="M29.6718 137.454L14.2578 76.2283C13.0958 71.6003 15.9278 66.8723 20.5538 65.7103L145.796 34.2603C150.422 33.1003 155.156 35.9283 156.32 40.5463L171.734 101.772C172.904 106.4 170.064 111.128 165.438 112.29L40.2038 143.74C35.5698 144.902 30.8338 142.074 29.6718 137.454Z" fill="url(#paint0_linear_7703_23677)" stroke="black" stroke-linecap="round" stroke-linejoin="round"/>
<path d="M42.5681 72.4335L33.0441 74.8255C34.2681 79.7094 31.5781 84.5875 27.0381 85.7255L36.4301 123.035C40.9701 121.897 45.6581 124.929 46.8841 129.805L152.952 103.169C151.728 98.2935 154.418 93.4075 158.958 92.2695L149.564 54.9595C145.024 56.0975 140.344 53.0655 139.11 48.1895L60.3301 67.9775L60.0881 67.0115L42.3261 71.4675L42.5681 72.4335Z" fill="white"/>
<path d="M45.9137 130.053C45.3837 127.933 44.1196 126.143 42.3556 125.005C40.6157 123.875 38.5956 123.525 36.6756 124.007C36.4176 124.069 36.1456 124.031 35.9196 123.891C35.6856 123.759 35.5217 123.541 35.4597 123.283L26.0677 85.9727C25.9977 85.7147 26.0437 85.4428 26.1777 85.2168C26.3177 84.9827 26.5357 84.8187 26.7937 84.7567C30.7957 83.7527 33.1677 79.4047 32.0757 75.0727C31.9437 74.5347 32.2636 73.9908 32.8016 73.8568L42.3257 71.4647C42.8717 71.3327 43.4017 71.6588 43.5417 72.1888C43.6737 72.7268 43.3457 73.2647 42.8157 73.4047L34.2117 75.5627C34.9457 80.2767 32.4337 84.8267 28.2357 86.3907L37.1677 121.877C39.3277 121.589 41.5197 122.079 43.4477 123.327C45.3597 124.565 46.7937 126.413 47.5657 128.601L151.786 102.433C151.428 100.143 151.818 97.8287 152.918 95.8347C154.018 93.8327 155.718 92.3607 157.762 91.5967L148.83 56.1107C144.406 56.7027 140.022 53.8907 138.432 49.3867L60.5717 68.9408C60.0417 69.0728 59.4957 68.7468 59.3617 68.2168C59.2297 67.6868 59.5497 67.1408 60.0877 67.0088L138.876 47.2207C139.406 47.0887 139.952 47.4147 140.086 47.9447C141.178 52.2847 145.336 54.9947 149.322 53.9827C149.86 53.8587 150.398 54.1767 150.538 54.7067L159.93 92.0228C159.992 92.2808 159.954 92.5447 159.812 92.7787C159.68 93.0047 159.46 93.1688 159.204 93.2308C157.278 93.7148 155.662 94.9767 154.664 96.7907C153.658 98.6287 153.384 100.803 153.922 102.923C153.984 103.181 153.946 103.453 153.804 103.679C153.672 103.905 153.452 104.069 153.196 104.139L47.1217 130.771C47.0437 130.795 46.9577 130.803 46.8797 130.803C46.4357 130.801 46.0297 130.505 45.9137 130.053Z" fill="#1F212B"/>
<path d="M54.0263 69.5585C53.8943 69.0205 54.2223 68.4765 54.7523 68.3425L56.5303 67.8985C57.0763 67.7665 57.6063 68.0925 57.7463 68.6225C57.8783 69.1525 57.5503 69.6985 57.0203 69.8305L55.2423 70.2825C55.1563 70.2985 55.0783 70.3065 55.0003 70.3065C54.5503 70.3065 54.1443 70.0105 54.0263 69.5585Z" fill="#1F212B"/>
<path d="M77.7629 94.0865C75.5066 85.1164 80.9493 76.0182 89.9155 73.7619C98.8815 71.5056 107.98 76.9483 110.236 85.9185C112.492 94.8886 107.05 103.987 98.0835 106.243C89.1154 108.497 80.0192 103.057 77.7629 94.0865Z" fill="#794BF5" stroke="black" stroke-width="0.5"/>
<path d="M126.399 86.5768L126.399 86.5767C129.475 85.8062 131.348 82.6764 130.568 79.6006L130.568 79.5999C129.797 76.5247 126.676 74.661 123.591 75.4317L126.399 86.5768ZM126.399 86.5768C123.323 87.3567 120.201 85.4848 119.422 82.4081M126.399 86.5768L119.422 82.4081M119.422 82.4081C118.65 79.3315 120.515 76.202 123.591 75.4317L119.422 82.4081Z" fill="#794BF5" stroke="black" stroke-width="0.5"/>
<path d="M59.6065 91.4239L59.6066 91.4239C62.6832 90.6533 65.805 92.5166 66.5753 95.5921L66.5755 95.5927C67.3555 98.6763 65.4832 101.796 62.407 102.569C59.3308 103.341 56.2086 101.476 55.4303 98.4003C54.6579 95.3159 56.5231 92.1943 59.6065 91.4239Z" fill="#794BF5" stroke="black" stroke-width="0.5"/>
<path d="M134 110C134 124.36 145.64 136 160 136C174.36 136 186 124.36 186 110C186 95.64 174.36 84 160 84C145.64 84 134 95.64 134 110Z" fill="url(#paint1_linear_7703_23677)" stroke="black" stroke-linecap="round" stroke-linejoin="round"/>
<path d="M143 110C143 119.39 150.61 127 160 127C169.39 127 177 119.39 177 110C177 100.61 169.39 93 160 93C150.61 93 143 100.61 143 110Z" fill="url(#paint2_linear_7703_23677)" stroke="black" stroke-linecap="round" stroke-linejoin="round"/>
<path d="M142 110C142 100.07 150.078 92 160 92C169.93 92 178 100.07 178 110C178 119.922 169.93 128 160 128C150.078 128 142 119.922 142 110ZM144 110C144 118.82 151.18 126 160 126C168.82 126 176 118.82 176 110C176 101.18 168.82 94 160 94C151.18 94 144 101.18 144 110Z" fill="#1F212B"/>
<path d="M153.73 117.126C153.73 116.812 153.84 116.51 154.064 116.218C154.286 115.924 154.532 115.776 154.804 115.776C154.958 115.776 155.168 115.894 155.438 116.13C155.706 116.364 155.98 116.622 156.26 116.906C156.538 117.19 156.982 117.454 157.59 117.698C158.198 117.944 158.886 118.084 159.65 118.124V110.32L158.076 109.734C157.708 109.596 157.236 109.362 156.662 109.03C156.088 108.696 155.66 108.36 155.378 108.016C155.096 107.676 154.84 107.214 154.606 106.638C154.372 106.06 154.256 105.41 154.256 104.688C154.256 103.808 154.412 103.032 154.724 102.36C155.034 101.69 155.458 101.158 155.992 100.768C156.528 100.38 157.096 100.082 157.698 99.88C158.3 99.676 158.952 99.544 159.652 99.486V98.61C159.652 98.456 159.726 98.316 159.87 98.186C160.014 98.062 160.194 98 160.408 98C160.602 98 160.776 98.062 160.932 98.188C161.088 98.316 161.166 98.456 161.166 98.612V99.428C162.332 99.488 163.392 99.688 164.346 100.028C165.298 100.368 165.774 100.81 165.774 101.356C165.774 101.628 165.676 101.92 165.48 102.23C165.284 102.542 165.028 102.698 164.716 102.698C164.618 102.698 164.212 102.526 163.496 102.186C162.78 101.846 162.004 101.656 161.168 101.618V108.298C161.922 108.574 162.546 108.842 163.038 109.106C163.53 109.37 164.052 109.732 164.604 110.19C165.156 110.65 165.57 111.234 165.852 111.948C166.132 112.662 166.272 113.5 166.272 114.458C166.272 116.15 165.812 117.484 164.894 118.464C163.976 119.444 162.734 120.042 161.168 120.252V121.356C161.168 121.52 161.09 121.668 160.934 121.8C160.778 121.934 160.604 122 160.41 122C160.196 122 160.016 121.934 159.87 121.8C159.724 121.666 159.652 121.516 159.652 121.352V120.336C157.98 120.32 156.576 119.948 155.44 119.228C154.298 118.51 153.73 117.808 153.73 117.126ZM156.558 104.454C156.558 105.374 156.824 106.064 157.354 106.524C157.884 106.984 158.688 107.408 159.768 107.8V101.656C157.628 101.868 156.558 102.802 156.558 104.454ZM161.05 118.064C162.994 117.752 163.966 116.628 163.966 114.69C163.966 113.674 163.714 112.882 163.208 112.316C162.702 111.748 161.982 111.27 161.05 110.876V118.064Z" fill="white"/>
<path d="M88 146C88 160.36 99.64 172 114 172C128.36 172 140 160.36 140 146C140 131.64 128.36 120 114 120C99.64 120 88 131.64 88 146Z" fill="url(#paint3_linear_7703_23677)" stroke="black" stroke-linecap="round" stroke-linejoin="round"/>
<path d="M97 146C97 155.39 104.61 163 114 163C123.39 163 131 155.39 131 146C131 136.61 123.39 129 114 129C104.61 129 97 136.61 97 146Z" fill="url(#paint4_linear_7703_23677)" stroke="black" stroke-linecap="round" stroke-linejoin="round"/>
<path d="M96 146C96 136.07 104.078 128 114 128C123.93 128 132 136.07 132 146C132 155.922 123.93 164 114 164C104.078 164 96 155.922 96 146ZM98 146C98 154.82 105.18 162 114 162C122.82 162 130 154.82 130 146C130 137.18 122.82 130 114 130C105.18 130 98 137.18 98 146Z" fill="#1F212B"/>
<path d="M107.73 153.126C107.73 152.812 107.84 152.51 108.064 152.218C108.286 151.924 108.532 151.776 108.804 151.776C108.958 151.776 109.168 151.894 109.438 152.13C109.706 152.364 109.98 152.622 110.26 152.906C110.538 153.19 110.982 153.454 111.59 153.698C112.198 153.944 112.886 154.084 113.65 154.124V146.32L112.076 145.734C111.708 145.596 111.236 145.362 110.662 145.03C110.088 144.698 109.66 144.36 109.378 144.016C109.096 143.676 108.84 143.214 108.606 142.638C108.372 142.06 108.256 141.41 108.256 140.688C108.256 139.808 108.412 139.032 108.724 138.36C109.034 137.69 109.458 137.158 109.992 136.768C110.528 136.38 111.096 136.082 111.698 135.88C112.3 135.676 112.952 135.544 113.652 135.486V134.61C113.652 134.456 113.726 134.316 113.87 134.186C114.014 134.062 114.194 134 114.408 134C114.602 134 114.776 134.062 114.932 134.188C115.088 134.316 115.166 134.456 115.166 134.612V135.428C116.332 135.488 117.392 135.688 118.346 136.028C119.298 136.368 119.774 136.81 119.774 137.356C119.774 137.628 119.676 137.92 119.48 138.23C119.284 138.542 119.028 138.698 118.716 138.698C118.618 138.698 118.212 138.526 117.496 138.186C116.78 137.846 116.004 137.656 115.168 137.618V144.298C115.922 144.574 116.546 144.842 117.038 145.106C117.53 145.37 118.052 145.732 118.604 146.19C119.156 146.65 119.57 147.234 119.852 147.948C120.132 148.662 120.272 149.498 120.272 150.458C120.272 152.15 119.812 153.484 118.894 154.464C117.976 155.444 116.734 156.042 115.168 156.252V157.356C115.168 157.52 115.09 157.668 114.934 157.8C114.778 157.934 114.604 158 114.41 158C114.196 158 114.016 157.934 113.87 157.8C113.724 157.666 113.652 157.516 113.652 157.352V156.336C111.98 156.32 110.576 155.948 109.44 155.228C108.298 154.51 107.73 153.808 107.73 153.126ZM110.558 140.454C110.558 141.374 110.824 142.064 111.354 142.524C111.884 142.984 112.688 143.408 113.768 143.8V137.656C111.628 137.868 110.558 138.802 110.558 140.454ZM115.05 154.064C116.994 153.752 117.966 152.628 117.966 150.69C117.966 149.674 117.714 148.882 117.208 148.316C116.702 147.748 115.982 147.27 115.05 146.876V154.064Z" fill="white"/>
<defs>
<linearGradient id="paint0_linear_7703_23677" x1="94.6292" y1="76.3883" x2="92.3581" y2="133.458" gradientUnits="userSpaceOnUse">
<stop stop-color="#373FEF"/>
<stop offset="1" stop-color="#EA5DFF"/>
</linearGradient>
<linearGradient id="paint1_linear_7703_23677" x1="160.537" y1="104.038" x2="158.998" y2="130.971" gradientUnits="userSpaceOnUse">
<stop stop-color="#373FEF"/>
<stop offset="1" stop-color="#EA5DFF"/>
</linearGradient>
<linearGradient id="paint2_linear_7703_23677" x1="160.351" y1="106.102" x2="159.345" y2="123.712" gradientUnits="userSpaceOnUse">
<stop stop-color="#373FEF"/>
<stop offset="1" stop-color="#EA5DFF"/>
</linearGradient>
<linearGradient id="paint3_linear_7703_23677" x1="114.537" y1="140.038" x2="112.998" y2="166.971" gradientUnits="userSpaceOnUse">
<stop stop-color="#373FEF"/>
<stop offset="1" stop-color="#EA5DFF"/>
</linearGradient>
<linearGradient id="paint4_linear_7703_23677" x1="114.351" y1="142.102" x2="113.345" y2="159.712" gradientUnits="userSpaceOnUse">
<stop stop-color="#373FEF"/>
<stop offset="1" stop-color="#EA5DFF"/>
</linearGradient>
</defs>
</svg>
