<svg viewBox="0 0 24 24" fill="none" xmlns="http://www.w3.org/2000/svg">
  <path fill-rule="evenodd" clip-rule="evenodd"
    d="M4.75 7.7C4.75 5.51848 6.51848 3.75 8.7 3.75H15.3C17.4815 3.75 19.25 5.51848 19.25 7.7V9.8C19.25 11.9815 17.4815 13.75 15.3 13.75H8.7C6.51848 13.75 4.75 11.9815 4.75 9.8V7.7ZM8.7 5.25C7.3469 5.25 6.25 6.3469 6.25 7.7V9.8C6.25 11.1531 7.3469 12.25 8.7 12.25H15.3C16.6531 12.25 17.75 11.1531 17.75 9.8V7.7C17.75 6.3469 16.6531 5.25 15.3 5.25H8.7Z"
    fill="currentColor" />
  <path fill-rule="evenodd" clip-rule="evenodd"
    d="M9 12.75C9.41421 12.75 9.75 13.0858 9.75 13.5V14C9.75 14.9665 10.5335 15.75 11.5 15.75H12.5C13.4665 15.75 14.25 14.9665 14.25 14V13.5C14.25 13.0858 14.5858 12.75 15 12.75C15.4142 12.75 15.75 13.0858 15.75 13.5V14C15.75 15.7949 14.2949 17.25 12.5 17.25H11.5C9.70507 17.25 8.25 15.7949 8.25 14V13.5C8.25 13.0858 8.58579 12.75 9 12.75Z"
    fill="currentColor" />
  <path fill-rule="evenodd" clip-rule="evenodd"
    d="M12 16.25C12.4142 16.25 12.75 16.5858 12.75 17V19.5C12.75 19.9142 12.4142 20.25 12 20.25C11.5858 20.25 11.25 19.9142 11.25 19.5V17C11.25 16.5858 11.5858 16.25 12 16.25Z"
    fill="currentColor" />
  <path fill-rule="evenodd" clip-rule="evenodd"
    d="M12.95 5.9C13.2814 6.14853 13.3485 6.61863 13.1 6.95L12.4175 7.86006C13.1267 8.18876 13.3816 9.17905 12.7569 9.80379L11.5303 11.0303C11.2374 11.3232 10.7626 11.3232 10.4697 11.0303C10.1768 10.7374 10.1768 10.2626 10.4697 9.96967L11.3322 9.10719C10.7248 8.77818 10.477 7.94736 10.9437 7.32507L11.9 6.05C12.1485 5.71863 12.6186 5.65147 12.95 5.9Z"
    fill="currentColor" />
</svg>