<svg width="16" height="16" viewBox="0 0 16 16" fill="none" xmlns="http://www.w3.org/2000/svg">
<path d="M0 4C0 1.79086 1.79086 0 4 0H12C14.2091 0 16 1.79086 16 4V12C16 14.2091 14.2091 16 12 16H4C1.79086 16 0 14.2091 0 12V4Z" fill="#0057FF"/>
<path fill-rule="evenodd" clip-rule="evenodd" d="M12.3094 5.19064C12.4802 5.3615 12.4802 5.6385 12.3094 5.80936L7.30936 10.8094C7.1385 10.9802 6.8615 10.9802 6.69064 10.8094L4.19064 8.30936C4.01979 8.1385 4.01979 7.8615 4.19064 7.69064C4.3615 7.51979 4.6385 7.51979 4.80936 7.69064L7 9.88128L11.6906 5.19064C11.8615 5.01979 12.1385 5.01979 12.3094 5.19064Z" fill="white"/>
</svg>
