<svg viewBox="0 0 24 24" fill="none" xmlns="http://www.w3.org/2000/svg">
  <path fill-rule="evenodd" clip-rule="evenodd"
    d="M2.25 8C2.25 4.82436 4.82436 2.25 8 2.25H16C19.1756 2.25 21.75 4.82436 21.75 8V16C21.75 19.1756 19.1756 21.75 16 21.75H8C4.82436 21.75 2.25 19.1756 2.25 16V8ZM8 3.75C5.65279 3.75 3.75 5.65279 3.75 8V16C3.75 18.3472 5.65279 20.25 8 20.25H16C18.3472 20.25 20.25 18.3472 20.25 16V8C20.25 5.65279 18.3472 3.75 16 3.75H8Z"
    fill="currentColor" />
  <path fill-rule="evenodd" clip-rule="evenodd"
    d="M14.6516 9.34834C14.9445 9.64123 14.9445 10.1161 14.6516 10.409L10.409 14.6516C10.1161 14.9445 9.64124 14.9445 9.34835 14.6516C9.05545 14.3587 9.05545 13.8839 9.34835 13.591L13.591 9.34834C13.8839 9.05545 14.3588 9.05545 14.6516 9.34834Z"
    fill="currentColor" />
  <path fill-rule="evenodd" clip-rule="evenodd"
    d="M9.34835 9.34833C9.64124 9.05544 10.1161 9.05544 10.409 9.34833L14.6516 13.591C14.9445 13.8839 14.9445 14.3587 14.6516 14.6516C14.3588 14.9445 13.8839 14.9445 13.591 14.6516L9.34835 10.409C9.05545 10.1161 9.05545 9.64123 9.34835 9.34833Z"
    fill="currentColor" />
</svg>