<svg viewBox="0 0 24 24" fill="none" xmlns="http://www.w3.org/2000/svg">
  <path fill-rule="evenodd" clip-rule="evenodd"
    d="M14.6516 9.34834C14.9445 9.64123 14.9445 10.1161 14.6516 10.409L10.409 14.6516C10.1161 14.9445 9.64124 14.9445 9.34835 14.6516C9.05545 14.3587 9.05545 13.8839 9.34835 13.591L13.591 9.34834C13.8839 9.05545 14.3588 9.05545 14.6516 9.34834Z"
    fill="currentColor" />
  <path fill-rule="evenodd" clip-rule="evenodd"
    d="M9.34835 9.34833C9.64124 9.05544 10.1161 9.05544 10.409 9.34833L14.6516 13.591C14.9445 13.8839 14.9445 14.3587 14.6516 14.6516C14.3588 14.9445 13.8839 14.9445 13.591 14.6516L9.34835 10.409C9.05545 10.1161 9.05545 9.64123 9.34835 9.34833Z"
    fill="currentColor" />
  <path fill-rule="evenodd" clip-rule="evenodd"
    d="M12 3.75C7.44365 3.75 3.75 7.44365 3.75 12C3.75 16.5563 7.44365 20.25 12 20.25C16.5563 20.25 20.25 16.5563 20.25 12C20.25 7.44365 16.5563 3.75 12 3.75ZM2.25 12C2.25 6.61522 6.61522 2.25 12 2.25C17.3848 2.25 21.75 6.61522 21.75 12C21.75 17.3848 17.3848 21.75 12 21.75C6.61522 21.75 2.25 17.3848 2.25 12Z"
    fill="currentColor" />
</svg>