<svg viewBox="0 0 24 24" fill="none" xmlns="http://www.w3.org/2000/svg">
  <path fill-rule="evenodd" clip-rule="evenodd"
    d="M7.36651 8.91837C8.51483 6.18384 11.1539 4.25 14.25 4.25C18.4176 4.25 21.75 7.74574 21.75 12C21.75 16.2543 18.4176 19.75 14.25 19.75H7.5C4.57503 19.75 2.25 17.2989 2.25 14.3333C2.25 11.413 4.50461 8.9916 7.36651 8.91837ZM14.25 5.75C11.6744 5.75 9.45694 7.44575 8.61194 9.85668C8.48446 10.2204 8.12998 10.4512 7.74918 10.4251C7.66692 10.4195 7.58384 10.4167 7.5 10.4167C5.45441 10.4167 3.75 12.1443 3.75 14.3333C3.75 16.5224 5.45441 18.25 7.5 18.25H14.25C17.5382 18.25 20.25 15.4777 20.25 12C20.25 8.52228 17.5382 5.75 14.25 5.75Z"
    fill="currentColor" />
  <path fill-rule="evenodd" clip-rule="evenodd"
    d="M7.37592 9.08396C7.60568 8.73932 8.07134 8.64619 8.41598 8.87595L8.81117 9.13941C9.64376 9.69447 10.3171 10.4572 10.7646 11.3522L11.1708 12.1646C11.356 12.5351 11.2059 12.9856 10.8354 13.1708C10.4649 13.3561 10.0144 13.2059 9.82914 12.8354L9.42296 12.023C9.09219 11.3615 8.59451 10.7977 7.97912 10.3875L7.58393 10.124C7.23929 9.89426 7.14616 9.42861 7.37592 9.08396Z"
    fill="currentColor" />
</svg>