<svg viewBox="0 0 24 24" fill="none" xmlns="http://www.w3.org/2000/svg">
  <path fill-rule="evenodd" clip-rule="evenodd"
    d="M12.2109 5.22841C12.1127 5.07403 11.8873 5.07403 11.7891 5.22841L9.62734 8.62544C9.11242 9.43459 7.96786 9.52986 7.32625 8.81697L4.75 5.95446V14.5C4.75 16.2949 6.20507 17.75 8 17.75H16C17.7949 17.75 19.25 16.2949 19.25 14.5V5.95446L16.6737 8.81697C16.0321 9.52986 14.8876 9.43459 14.3727 8.62544L12.2109 5.22841L12.8377 4.82953L12.2109 5.22841ZM10.5236 4.42309C11.2113 3.34247 12.7887 3.34247 13.4764 4.42309L15.6028 7.76461L18.2222 4.85417C19.1112 3.8664 20.75 4.49526 20.75 5.82417V14.5C20.75 17.1233 18.6234 19.25 16 19.25H8C5.37665 19.25 3.25 17.1233 3.25 14.5V5.82417C3.25 4.49526 4.88879 3.8664 5.77778 4.85417L8.39717 7.76461L10.5236 4.42309Z"
    fill="currentColor" />
</svg>