<svg viewBox="0 0 24 24" fill="none" xmlns="http://www.w3.org/2000/svg">
  <path fill-rule="evenodd" clip-rule="evenodd"
    d="M10.275 5.12991C11.3424 4.51362 12.6575 4.51362 13.725 5.12991L17.0872 7.07106C18.1546 7.68734 18.8122 8.82628 18.8122 10.0588V13.9412C18.8122 15.1737 18.1546 16.3127 17.0872 16.9289L13.725 18.8701C12.6575 19.4864 11.3424 19.4864 10.275 18.8701L6.9128 16.9289C5.84537 16.3127 5.18781 15.1737 5.18781 13.9412V10.0588C5.18781 8.82628 5.84537 7.68734 6.91281 7.07106L10.275 5.12991ZM12.975 6.42894C12.3717 6.08061 11.6283 6.08061 11.025 6.42894L7.66281 8.3701C7.05947 8.71843 6.68781 9.36218 6.68781 10.0588V13.9412C6.68781 14.6378 7.05947 15.2816 7.6628 15.6299L11.025 17.5711C11.6283 17.9194 12.3717 17.9194 12.975 17.5711L16.3372 15.6299C16.9405 15.2816 17.3122 14.6378 17.3122 13.9412V10.0588C17.3122 9.36218 16.9405 8.71843 16.3372 8.3701L12.975 6.42894Z"
    fill="currentColor" />
  <path fill-rule="evenodd" clip-rule="evenodd"
    d="M17.7134 8.53777C17.9686 8.93173 17.8562 9.45805 17.4623 9.71333L13.0097 12.5986C12.9101 12.6631 12.85 12.7737 12.85 12.8923V18C12.85 18.4694 12.4695 18.85 12 18.85C11.5306 18.85 11.15 18.4694 11.15 18V12.8923C11.15 12.1974 11.5021 11.5498 12.0852 11.1719L16.5378 8.28667C16.9317 8.03139 17.4581 8.14381 17.7134 8.53777Z"
    fill="currentColor" />
  <path fill-rule="evenodd" clip-rule="evenodd"
    d="M6.2711 8.56268C6.51263 8.16014 7.03475 8.02961 7.43729 8.27113L12.4373 11.2711C12.8398 11.5127 12.9704 12.0348 12.7288 12.4373C12.4873 12.8399 11.9652 12.9704 11.5626 12.7289L6.56265 9.72887C6.16011 9.48734 6.02957 8.96522 6.2711 8.56268Z"
    fill="currentColor" />
</svg>