<svg viewBox="0 0 24 24" fill="none" xmlns="http://www.w3.org/2000/svg">
  <path fill-rule="evenodd" clip-rule="evenodd"
    d="M6 4.75C4.75736 4.75 3.75 5.75736 3.75 7C3.75 8.24264 4.75736 9.25 6 9.25C7.24264 9.25 8.25 8.24264 8.25 7C8.25 5.75736 7.24264 4.75 6 4.75ZM2.25 7C2.25 4.92893 3.92893 3.25 6 3.25C8.07107 3.25 9.75 4.92893 9.75 7C9.75 9.07107 8.07107 10.75 6 10.75C3.92893 10.75 2.25 9.07107 2.25 7Z"
    fill="currentColor" />
  <path fill-rule="evenodd" clip-rule="evenodd"
    d="M6 14.75C4.75736 14.75 3.75 15.7574 3.75 17C3.75 18.2426 4.75736 19.25 6 19.25C7.24264 19.25 8.25 18.2426 8.25 17C8.25 15.7574 7.24264 14.75 6 14.75ZM2.25 17C2.25 14.9289 3.92893 13.25 6 13.25C8.07107 13.25 9.75 14.9289 9.75 17C9.75 19.0711 8.07107 20.75 6 20.75C3.92893 20.75 2.25 19.0711 2.25 17Z"
    fill="currentColor" />
  <path fill-rule="evenodd" clip-rule="evenodd"
    d="M8.36723 8.59735C8.58961 8.24789 9.05317 8.14488 9.40263 8.36726L20.4026 15.3673C20.7521 15.5896 20.8551 16.0532 20.6327 16.4027C20.4103 16.7521 19.9468 16.8551 19.5973 16.6327L8.59732 9.63275C8.24786 9.41037 8.14485 8.9468 8.36723 8.59735Z"
    fill="currentColor" />
  <path fill-rule="evenodd" clip-rule="evenodd"
    d="M20.6065 7.55888C20.8502 7.89387 20.7761 8.36293 20.4411 8.60656L9.44112 16.6066C9.10613 16.8502 8.63707 16.7761 8.39344 16.4411C8.14981 16.1061 8.22387 15.6371 8.55886 15.3935L19.5589 7.39346C19.8939 7.14983 20.3629 7.22389 20.6065 7.55888Z"
    fill="currentColor" />
</svg>