<svg viewBox="0 0 21 20" fill="none" xmlns="http://www.w3.org/2000/svg">
<g clip-path="url(#clip0_2960_17609)">
<circle cx="10.25" cy="10" r="10" fill="#3794E9"/>
<path fill-rule="evenodd" clip-rule="evenodd" d="M15.9686 8.99497C15.937 8.96941 15.6414 8.74642 15.0185 8.74642C14.8627 8.74642 14.6983 8.76063 14.5275 8.78866C14.4072 7.96193 13.725 7.55921 13.6932 7.54096L13.5258 7.44434L13.4155 7.60324C13.4073 7.61507 13.2135 7.89729 13.1183 8.299C13.0066 8.77076 13.0744 9.2137 13.3141 9.59288C13.0247 9.75392 12.5626 9.79593 12.4667 9.79715H4.78213C4.58163 9.79715 4.41784 9.96011 4.41705 10.1605C4.41401 10.8675 4.53053 11.5507 4.75387 12.1362C5.01877 12.8307 5.41278 13.3418 5.92477 13.6557C6.49902 14.0075 7.43394 14.2093 8.48968 14.2093C8.98366 14.2093 9.47606 14.1647 9.91352 14.0803C10.6029 13.9474 11.2289 13.72 11.7737 13.4048C12.2489 13.1299 12.6757 12.7802 13.0422 12.3658C13.6511 11.6768 14.0139 10.9072 14.2836 10.2262C14.3199 10.2277 14.3558 10.2284 14.3911 10.2284C15.0576 10.2284 15.4675 9.96192 15.6939 9.73825C15.9394 9.49568 16.0268 9.2539 16.0359 9.22709L16.0837 9.08731L15.9686 8.99497Z" fill="white"/>
<path fill-rule="evenodd" clip-rule="evenodd" d="M5.493 9.57275H6.52284C6.57249 9.57275 6.6129 9.53243 6.6129 9.48253V8.56482C6.6129 8.51493 6.57249 8.47461 6.52284 8.47461H5.493C5.44325 8.47461 5.40283 8.51493 5.40283 8.56482V9.48253C5.40283 9.53243 5.44325 9.57275 5.493 9.57275Z" fill="white"/>
<path fill-rule="evenodd" clip-rule="evenodd" d="M6.91439 9.57275H7.94399C7.99389 9.57275 8.03418 9.53243 8.03418 9.48253V8.56482C8.03418 8.51493 7.99389 8.47461 7.94399 8.47461H6.91439C6.86452 8.47461 6.82422 8.51493 6.82422 8.56482V9.48253C6.82422 9.53243 6.86452 9.57275 6.91439 9.57275Z" fill="white"/>
<path fill-rule="evenodd" clip-rule="evenodd" d="M8.35468 9.57275H9.38442C9.43419 9.57275 9.47458 9.53243 9.47458 9.48253V8.56482C9.47458 8.51493 9.43419 8.47461 9.38442 8.47461H8.35468C8.30494 8.47461 8.26465 8.51493 8.26465 8.56482V9.48253C8.26465 9.53243 8.30494 9.57275 8.35468 9.57275Z" fill="white"/>
<path fill-rule="evenodd" clip-rule="evenodd" d="M9.77867 9.57275H10.8084C10.8582 9.57275 10.8986 9.53243 10.8986 9.48253V8.56482C10.8986 8.51493 10.8582 8.47461 10.8084 8.47461H9.77867C9.72902 8.47461 9.68848 8.51493 9.68848 8.56482V9.48253C9.68848 9.53243 9.72902 9.57275 9.77867 9.57275Z" fill="white"/>
<path fill-rule="evenodd" clip-rule="evenodd" d="M6.91439 8.25244H7.94399C7.99389 8.25244 8.03418 8.21212 8.03418 8.16234V7.2445C8.03418 7.19473 7.99389 7.1543 7.94399 7.1543H6.91439C6.86452 7.1543 6.82422 7.19473 6.82422 7.2445V8.16234C6.82422 8.21212 6.86452 8.25244 6.91439 8.25244Z" fill="white"/>
<path fill-rule="evenodd" clip-rule="evenodd" d="M8.35468 8.25244H9.38442C9.43419 8.25244 9.47458 8.21212 9.47458 8.16234V7.2445C9.47458 7.19473 9.43419 7.1543 9.38442 7.1543H8.35468C8.30494 7.1543 8.26465 7.19473 8.26465 7.2445V8.16234C8.26465 8.21212 8.30494 8.25244 8.35468 8.25244Z" fill="white"/>
<path fill-rule="evenodd" clip-rule="evenodd" d="M9.77867 8.25244H10.8084C10.8582 8.25244 10.8986 8.21212 10.8986 8.16234V7.2445C10.8986 7.19473 10.8582 7.1543 10.8084 7.1543H9.77867C9.72902 7.1543 9.68848 7.19473 9.68848 7.2445V8.16234C9.68848 8.21212 9.72902 8.25244 9.77867 8.25244Z" fill="white"/>
<path fill-rule="evenodd" clip-rule="evenodd" d="M9.77867 6.93115H10.8084C10.8582 6.93115 10.8986 6.89072 10.8986 6.84094V5.92321C10.8986 5.87332 10.8582 5.83301 10.8084 5.83301H9.77867C9.72902 5.83301 9.68848 5.87332 9.68848 5.92321V6.84094C9.68848 6.89072 9.72902 6.93115 9.77867 6.93115Z" fill="white"/>
<path fill-rule="evenodd" clip-rule="evenodd" d="M11.2167 9.57275H12.2463C12.2961 9.57275 12.3364 9.53243 12.3364 9.48253V8.56482C12.3364 8.51493 12.2961 8.47461 12.2463 8.47461H11.2167C11.1668 8.47461 11.1265 8.51493 11.1265 8.56482V9.48253C11.1265 9.53243 11.1668 9.57275 11.2167 9.57275Z" fill="white"/>
</g>
<defs>
<clipPath id="clip0_2960_17609">
<rect x="0.25" width="20" height="20" rx="5" fill="white"/>
</clipPath>
</defs>
</svg>
