<svg viewBox="0 0 13 12" fill="none" xmlns="http://www.w3.org/2000/svg">
  <path fill-rule="evenodd" clip-rule="evenodd"
    d="M2.09779 8.90237C1.96762 8.77219 1.96762 8.56114 2.09779 8.43096L6.09779 4.43096C6.22797 4.30079 6.43902 4.30079 6.5692 4.43096L8.00016 5.86193L10.7645 3.09763C10.8946 2.96746 11.1057 2.96746 11.2359 3.09763C11.366 3.22781 11.366 3.43886 11.2359 3.56904L8.23587 6.56904C8.10569 6.69921 7.89464 6.69921 7.76446 6.56904L6.3335 5.13807L2.5692 8.90237C2.43902 9.03254 2.22797 9.03254 2.09779 8.90237Z"
    fill="currentColor" />
  <path fill-rule="evenodd" clip-rule="evenodd"
    d="M5.3335 8.66667C5.3335 8.85076 5.18426 9 5.00016 9L2.3335 9C2.1494 9 2.00016 8.85076 2.00016 8.66667L2.00016 6C2.00016 5.8159 2.1494 5.66667 2.3335 5.66667C2.51759 5.66667 2.66683 5.8159 2.66683 6L2.66683 8.33333L5.00016 8.33333C5.18426 8.33333 5.3335 8.48257 5.3335 8.66667Z"
    fill="currentColor" />
</svg>