<svg viewBox="0 0 24 24" fill="none" xmlns="http://www.w3.org/2000/svg">
  <path fill-rule="evenodd" clip-rule="evenodd"
    d="M12 3.75C7.44365 3.75 3.75 7.44365 3.75 12C3.75 16.5563 7.44365 20.25 12 20.25C16.5563 20.25 20.25 16.5563 20.25 12C20.25 7.44365 16.5563 3.75 12 3.75ZM2.25 12C2.25 6.61522 6.61522 2.25 12 2.25C17.3848 2.25 21.75 6.61522 21.75 12C21.75 17.3848 17.3848 21.75 12 21.75C6.61522 21.75 2.25 17.3848 2.25 12Z"
    fill="currentColor" />
  <path fill-rule="evenodd" clip-rule="evenodd"
    d="M6.96199 4.49112C7.24304 4.18684 7.71754 4.16801 8.02182 4.44906C12.3881 8.48206 15.4119 13.7576 16.685 19.5635L16.7455 19.8394C16.8342 20.244 16.5782 20.6439 16.1736 20.7326C15.769 20.8213 15.3691 20.5652 15.2803 20.1606L15.2199 19.8848C14.0125 14.3787 11.1448 9.37566 7.00405 5.55095C6.69977 5.2699 6.68094 4.7954 6.96199 4.49112Z"
    fill="currentColor" />
  <path fill-rule="evenodd" clip-rule="evenodd"
    d="M17.5087 4.9489C17.8131 5.22985 17.8321 5.70435 17.5511 6.00871L16.3473 7.31287C13.177 10.7473 8.52088 12.4035 3.89394 11.7425C3.48389 11.6839 3.19896 11.304 3.25754 10.8939C3.31612 10.4839 3.69602 10.199 4.10607 10.2575C8.24468 10.8488 12.4094 9.36739 15.2451 6.29545L16.4489 4.99129C16.7299 4.68693 17.2043 4.66795 17.5087 4.9489Z"
    fill="currentColor" />
  <path fill-rule="evenodd" clip-rule="evenodd"
    d="M21.2492 11.9643C21.2689 12.3781 20.9494 12.7295 20.5357 12.7492L17.2386 12.9062C12.9469 13.1105 9.00735 15.3411 6.62404 18.916C6.39428 19.2607 5.92862 19.3538 5.58398 19.1241C5.23933 18.8943 5.1462 18.4286 5.37597 18.084C8.02349 14.1127 12.3998 11.6349 17.1673 11.4079L20.4643 11.2509C20.8781 11.2312 21.2295 11.5506 21.2492 11.9643Z"
    fill="currentColor" />
</svg>