<svg viewBox="0 0 24 24" fill="none" xmlns="http://www.w3.org/2000/svg">
  <path fill-rule="evenodd" clip-rule="evenodd"
    d="M7.13091 4.60378C6.43082 4.42457 5.76316 4.9897 5.82428 5.70979L6.35984 12.0196C6.41949 12.7224 6.80524 13.3565 7.40188 13.7327L11.3659 16.2317C11.69 16.436 11.9809 16.6888 12.2284 16.9812L13.4946 18.477C13.8692 18.9196 14.5317 18.9747 14.9744 18.6001L18.3328 15.7574C18.7754 15.3827 18.8305 14.7202 18.4558 14.2775L17.1897 12.7817C16.9422 12.4893 16.7409 12.1607 16.593 11.8073L17.2847 11.5176L16.5929 11.8073L14.783 7.48489C14.5106 6.83432 13.9489 6.34913 13.2656 6.17422L7.13091 4.60378ZM4.32966 5.83665C4.18122 4.08787 5.80267 2.71539 7.50291 3.15064L13.6376 4.72108C14.7764 5.0126 15.7126 5.82124 16.1666 6.90553L17.9765 11.2279C18.0653 11.44 18.1861 11.6371 18.3346 11.8126L19.6007 13.3084C20.5106 14.3834 20.3768 15.9924 19.3019 16.9023L15.9435 19.745C14.8685 20.6549 13.2595 20.5211 12.3496 19.4461L11.0835 17.9503C10.935 17.7748 10.7605 17.6232 10.566 17.5006L6.60194 15.0016C5.60754 14.3747 4.96463 13.3178 4.86522 12.1465L4.32966 5.83665Z"
    fill="currentColor" />
  <path fill-rule="evenodd" clip-rule="evenodd"
    d="M11.574 18.5302C11.3064 18.214 11.3458 17.7408 11.6619 17.4732L17.7681 12.3046C18.0843 12.037 18.5575 12.0763 18.8251 12.3925C19.0928 12.7087 19.0534 13.1819 18.7372 13.4495L12.631 18.6181C12.3149 18.8857 11.8416 18.8464 11.574 18.5302Z"
    fill="currentColor" />
  <path fill-rule="evenodd" clip-rule="evenodd"
    d="M5.66975 4.20293C5.9859 3.93532 6.45914 3.97467 6.72676 4.29083L9.55333 7.63015C9.82095 7.94631 9.78159 8.41955 9.46543 8.68717C9.14927 8.95478 8.67603 8.91542 8.40842 8.59927L5.58185 5.25994C5.31423 4.94378 5.35359 4.47054 5.66975 4.20293Z"
    fill="currentColor" />
</svg>