<svg viewBox="0 0 24 24" fill="none" xmlns="http://www.w3.org/2000/svg">
  <path fill-rule="evenodd" clip-rule="evenodd"
    d="M2.25 8C2.25 4.82436 4.82436 2.25 8 2.25H16C19.1756 2.25 21.75 4.82436 21.75 8V16C21.75 19.1756 19.1756 21.75 16 21.75H8C4.82436 21.75 2.25 19.1756 2.25 16V8ZM8 3.75C5.65279 3.75 3.75 5.65279 3.75 8V16C3.75 18.3472 5.65279 20.25 8 20.25H16C18.3472 20.25 20.25 18.3472 20.25 16V8C20.25 5.65279 18.3472 3.75 16 3.75H8Z"
    fill="currentColor" />
  <path fill-rule="evenodd" clip-rule="evenodd"
    d="M2.83719 11.1491C3.03099 10.783 3.48487 10.6434 3.85094 10.8372L10.2455 14.2225C11.343 14.8035 12.657 14.8035 13.7546 14.2225L20.1491 10.8372C20.5152 10.6434 20.9691 10.783 21.1629 11.1491C21.3567 11.5152 21.217 11.969 20.8509 12.1628L14.4564 15.5482C12.9199 16.3616 11.0802 16.3617 9.54362 15.5482L3.14911 12.1628C2.78304 11.969 2.64338 11.5152 2.83719 11.1491Z"
    fill="currentColor" />
</svg>