<svg width="20" height="20" viewBox="0 0 20 20" fill="none" xmlns="http://www.w3.org/2000/svg">
<path fill-rule="evenodd" clip-rule="evenodd" d="M10.6262 3.45777C10.8244 3.53992 11.0045 3.66033 11.1562 3.81211L16.1891 8.84419C16.341 8.99591 16.4615 9.17608 16.5438 9.3744C16.626 9.57273 16.6683 9.78532 16.6683 10C16.6683 10.2147 16.626 10.4273 16.5438 10.6256C16.4615 10.8239 16.341 11.0041 16.1891 11.1558L11.1562 16.1879C11.0045 16.3397 10.8244 16.4601 10.6262 16.5422C10.4279 16.6244 10.2154 16.6667 10.0008 16.6667C9.78622 16.6667 9.57372 16.6244 9.37547 16.5422C9.17722 16.4601 8.9971 16.3397 8.8454 16.1879L3.8125 11.1558C3.6606 11.0041 3.54009 10.8239 3.45787 10.6256C3.37565 10.4273 3.33333 10.2147 3.33333 10C3.33333 9.78532 3.37565 9.57273 3.45787 9.3744C3.54009 9.17608 3.6606 8.99591 3.8125 8.84419L8.8454 3.81211C8.9971 3.66033 9.17722 3.53992 9.37547 3.45777C9.57372 3.37563 9.78622 3.33334 10.0008 3.33334C10.2154 3.33334 10.4279 3.37563 10.6262 3.45777ZM9.42383 11.3925C9.57686 11.5456 9.7844 11.6315 10.0008 11.6315C10.2172 11.6315 10.4248 11.5456 10.5778 11.3925C10.7308 11.2395 10.8168 11.032 10.8168 10.8156V6.73572C10.8168 6.51931 10.7308 6.31177 10.5778 6.15874C10.4248 6.00572 10.2172 5.91975 10.0008 5.91975C9.7844 5.91975 9.57686 6.00572 9.42383 6.15874C9.27081 6.31177 9.18484 6.51931 9.18484 6.73572V10.8156C9.18484 11.032 9.27081 11.2395 9.42383 11.3925ZM9.42383 13.8405C9.57686 13.9935 9.7844 14.0794 10.0008 14.0794C10.2172 14.0794 10.4248 13.9935 10.5778 13.8405C10.7308 13.6874 10.8168 13.4799 10.8168 13.2635C10.8168 13.0471 10.7308 12.8395 10.5778 12.6865C10.4248 12.5335 10.2172 12.4475 10.0008 12.4475C9.7844 12.4475 9.57686 12.5335 9.42383 12.6865C9.27081 12.8395 9.18484 13.0471 9.18484 13.2635C9.18484 13.4799 9.27081 13.6874 9.42383 13.8405Z" fill="currentColor"/>
</svg>
