<svg viewBox="0 0 16 16" fill="none" xmlns="http://www.w3.org/2000/svg">
<path fill-rule="evenodd" clip-rule="evenodd" d="M8 2.5C4.96243 2.5 2.5 4.96243 2.5 8C2.5 11.0376 4.96243 13.5 8 13.5C11.0376 13.5 13.5 11.0376 13.5 8C13.5 4.96243 11.0376 2.5 8 2.5ZM1.5 8C1.5 4.41015 4.41015 1.5 8 1.5C11.5899 1.5 14.5 4.41015 14.5 8C14.5 11.5899 11.5899 14.5 8 14.5C4.41015 14.5 1.5 11.5899 1.5 8Z" fill="currentColor"/>
<path fill-rule="evenodd" clip-rule="evenodd" d="M8 9.16667C7.72386 9.16667 7.5 8.94281 7.5 8.66667L7.5 5.33333C7.5 5.05719 7.72386 4.83333 8 4.83333C8.27614 4.83333 8.5 5.05719 8.5 5.33333L8.5 8.66667C8.5 8.94281 8.27614 9.16667 8 9.16667Z" fill="currentColor"/>
<path d="M8.66667 10.6667C8.66667 11.0349 8.36819 11.3333 8 11.3333C7.63181 11.3333 7.33334 11.0349 7.33334 10.6667C7.33334 10.2985 7.63181 10 8 10C8.36819 10 8.66667 10.2985 8.66667 10.6667Z" fill="currentColor"/>
</svg>
