<svg viewBox="0 0 24 24" fill="none" xmlns="http://www.w3.org/2000/svg">
  <path fill-rule="evenodd" clip-rule="evenodd"
    d="M12 3.75C7.44365 3.75 3.75 7.44365 3.75 12C3.75 16.5563 7.44365 20.25 12 20.25C16.5563 20.25 20.25 16.5563 20.25 12C20.25 7.44365 16.5563 3.75 12 3.75ZM2.25 12C2.25 6.61522 6.61522 2.25 12 2.25C17.3848 2.25 21.75 6.61522 21.75 12C21.75 17.3848 17.3848 21.75 12 21.75C6.61522 21.75 2.25 17.3848 2.25 12Z"
    fill="currentColor" />
  <path fill-rule="evenodd" clip-rule="evenodd"
    d="M9.35934 9.03893C9.69983 8.41531 10.3836 8.05946 11.0897 8.13837L15.3562 8.61522C16.5925 8.75339 17.2939 10.1011 16.6978 11.193L14.6405 14.961C14.3 15.5846 13.6163 15.9405 12.9101 15.8616L8.64366 15.3847C7.40735 15.2465 6.70592 13.8988 7.30207 12.8069L9.35934 9.03893ZM10.9231 9.62909C10.8222 9.61782 10.7245 9.66865 10.6759 9.75774L8.61862 13.5257C8.53345 13.6817 8.63366 13.8743 8.81027 13.894L13.0767 14.3708C13.1776 14.3821 13.2753 14.3313 13.3239 14.2422L15.3812 10.4742C15.4664 10.3182 15.3662 10.1257 15.1896 10.1059L10.9231 9.62909Z"
    fill="currentColor" />
</svg>