<svg viewBox="0 0 20 20" fill="none" xmlns="http://www.w3.org/2000/svg">
<g clip-path="url(#clip0_8550_8141)">
<rect x="0.833313" y="3.33325" width="17.5" height="12.5" rx="2.5" fill="white"/>
<path fill-rule="evenodd" clip-rule="evenodd" d="M0.833313 3.33325H8.33331V9.16659H0.833313V3.33325Z" fill="#1A47B8"/>
<path fill-rule="evenodd" clip-rule="evenodd" d="M8.33331 3.33325V4.16659H18.3333V3.33325H8.33331ZM8.33331 4.99992V5.83325H18.3333V4.99992H8.33331ZM8.33331 6.66659V7.49992H18.3333V6.66659H8.33331ZM8.33331 8.33325V9.16659H18.3333V8.33325H8.33331ZM0.833313 9.99992V10.8333H18.3333V9.99992H0.833313ZM0.833313 11.6666V12.4999H18.3333V11.6666H0.833313ZM0.833313 13.3333V14.1666H18.3333V13.3333H0.833313ZM0.833313 14.9999V15.8333H18.3333V14.9999H0.833313Z" fill="#F93939"/>
<path fill-rule="evenodd" clip-rule="evenodd" d="M1.66669 4.16675V5.00008H2.50002V4.16675H1.66669ZM3.33335 4.16675V5.00008H4.16669V4.16675H3.33335ZM5.00002 4.16675V5.00008H5.83335V4.16675H5.00002ZM6.66669 4.16675V5.00008H7.50002V4.16675H6.66669ZM5.83335 5.00008V5.83341H6.66669V5.00008H5.83335ZM4.16669 5.00008V5.83341H5.00002V5.00008H4.16669ZM2.50002 5.00008V5.83341H3.33335V5.00008H2.50002ZM1.66669 5.83341V6.66675H2.50002V5.83341H1.66669ZM3.33335 5.83341V6.66675H4.16669V5.83341H3.33335ZM5.00002 5.83341V6.66675H5.83335V5.83341H5.00002ZM6.66669 5.83341V6.66675H7.50002V5.83341H6.66669ZM1.66669 7.50008V8.33341H2.50002V7.50008H1.66669ZM3.33335 7.50008V8.33341H4.16669V7.50008H3.33335ZM5.00002 7.50008V8.33341H5.83335V7.50008H5.00002ZM6.66669 7.50008V8.33341H7.50002V7.50008H6.66669ZM5.83335 6.66675V7.50008H6.66669V6.66675H5.83335ZM4.16669 6.66675V7.50008H5.00002V6.66675H4.16669ZM2.50002 6.66675V7.50008H3.33335V6.66675H2.50002Z" fill="white"/>
</g>
<defs>
<clipPath id="clip0_8550_8141">
<rect x="0.833313" y="3.33325" width="17.5" height="12.5" rx="2.5" fill="white"/>
</clipPath>
</defs>
</svg>
