<svg viewBox="0 0 24 24" fill="none" xmlns="http://www.w3.org/2000/svg">
  <path fill-rule="evenodd" clip-rule="evenodd"
    d="M14.25 4.34554C14.25 4.12529 13.9858 4.01266 13.8269 4.16515L11.4872 6.41034C11.1883 6.69713 10.7136 6.68734 10.4268 6.38847C10.14 6.0896 10.1498 5.61483 10.4486 5.32804L12.7883 3.08285C13.9008 2.01538 15.75 2.80379 15.75 4.34554V10C15.75 10.1381 15.8619 10.25 16 10.25H17.663C19.2026 10.25 19.9919 12.0947 18.9289 13.2083L16.6904 15.5534C16.4044 15.853 15.9297 15.864 15.6301 15.578C15.3305 15.292 15.3194 14.8173 15.6054 14.5177L17.8439 12.1726C17.9957 12.0135 17.8829 11.75 17.663 11.75H16C15.0335 11.75 14.25 10.9665 14.25 10V4.34554ZM8.7014 8.04412C8.98819 8.34299 8.9784 8.81776 8.67953 9.10456L6.33981 11.3497C6.17643 11.5065 6.28899 11.7824 6.51544 11.7801L8.48233 11.7602C9.45569 11.7504 10.25 12.5367 10.25 13.5102V19.5041C10.25 19.7296 10.5251 19.8399 10.6808 19.6767L12.9193 17.3317C13.2053 17.0321 13.68 17.021 13.9797 17.307C14.2793 17.593 14.2903 18.0678 14.0043 18.3674L11.7659 20.7124C10.6758 21.8545 8.75001 21.0829 8.75001 19.5041V13.5102C8.75001 13.3711 8.63653 13.2588 8.49748 13.2602L6.53059 13.28C4.94554 13.296 4.15751 11.365 5.30124 10.2674L7.64096 8.02226C7.93983 7.73547 8.4146 7.74525 8.7014 8.04412Z"
    fill="currentColor" />
  <path fill-rule="evenodd" clip-rule="evenodd"
    d="M7.61075 4.35891C7.96482 4.14394 8.42611 4.2567 8.64108 4.61077L17.1411 18.6108C17.356 18.9648 17.2433 19.4261 16.8892 19.6411C16.5352 19.8561 16.0739 19.7433 15.8589 19.3892L7.3589 5.38923C7.14393 5.03517 7.25669 4.57388 7.61075 4.35891Z"
    fill="currentColor" />
</svg>