<svg viewBox="0 0 24 24" fill="none" xmlns="http://www.w3.org/2000/svg">
  <path fill-rule="evenodd" clip-rule="evenodd"
    d="M14.25 4.34554C14.25 4.12529 13.9858 4.01266 13.8269 4.16515L6.33981 11.3497C6.17643 11.5065 6.28899 11.7824 6.51544 11.7801L8.48233 11.7602C9.45569 11.7504 10.25 12.5367 10.25 13.5102V19.5041C10.25 19.7296 10.5251 19.8399 10.6808 19.6767L17.8439 12.1726C17.9957 12.0135 17.8829 11.75 17.663 11.75H16C15.0335 11.75 14.25 10.9665 14.25 10V4.34554ZM12.7883 3.08285C13.9008 2.01538 15.75 2.80379 15.75 4.34554V10C15.75 10.1381 15.8619 10.25 16 10.25H17.663C19.2026 10.25 19.9919 12.0947 18.9289 13.2083L11.7659 20.7124C10.6758 21.8545 8.75001 21.0829 8.75001 19.5041V13.5102C8.75001 13.3711 8.63653 13.2588 8.49748 13.2602L6.53059 13.28C4.94554 13.296 4.15751 11.365 5.30124 10.2674L12.7883 3.08285Z"
    fill="currentColor" />
</svg>