<svg viewBox="0 0 24 24" fill="none" xmlns="http://www.w3.org/2000/svg">
  <path fill-rule="evenodd" clip-rule="evenodd"
    d="M4.97971 5.03258C5.5603 3.93591 6.69952 3.25 7.9404 3.25H16.0596C17.3004 3.25 18.4397 3.93591 19.0203 5.03258L20.8397 8.46938C21.4803 9.67937 21.3202 11.1574 20.4353 12.2021L14.0984 19.6831C12.9999 20.9799 11 20.9799 9.90161 19.6831L3.56471 12.2021C2.6798 11.1574 2.51964 9.67937 3.16022 8.46938L4.97971 5.03258ZM7.9404 4.75C7.25514 4.75 6.62601 5.12879 6.30539 5.73441L4.4859 9.17121C4.13215 9.83941 4.2206 10.6556 4.70928 11.2325L11.0462 18.7136C11.5455 19.303 12.4545 19.303 12.9538 18.7136L19.2907 11.2325C19.7794 10.6556 19.8678 9.83941 19.5141 9.17121L17.6946 5.73441C17.374 5.12878 16.7448 4.75 16.0596 4.75H7.9404Z"
    fill="currentColor" />
  <path fill-rule="evenodd" clip-rule="evenodd"
    d="M3.25 10C3.25 9.58579 3.58579 9.25 4 9.25H20C20.4142 9.25 20.75 9.58579 20.75 10C20.75 10.4142 20.4142 10.75 20 10.75H4C3.58579 10.75 3.25 10.4142 3.25 10Z"
    fill="currentColor" />
  <path fill-rule="evenodd" clip-rule="evenodd"
    d="M12.2794 3.28315C12.6753 3.16134 13.095 3.38352 13.2168 3.77942L15.0399 9.70425C15.1986 10.2201 15.202 10.7712 15.0497 11.2889L12.7195 19.2116C12.6027 19.609 12.1858 19.8364 11.7884 19.7195C11.391 19.6026 11.1636 19.1857 11.2805 18.7884L13.6107 10.8657C13.6799 10.6303 13.6783 10.3798 13.6062 10.1454L11.7832 4.22055C11.6614 3.82465 11.8836 3.40497 12.2794 3.28315Z"
    fill="currentColor" />
</svg>