<svg viewBox="0 0 24 24" fill="none" xmlns="http://www.w3.org/2000/svg">
  <g clip-path="url(#clip0_116_5291)">
    <path fill-rule="evenodd" clip-rule="evenodd"
      d="M4.59929 15.6459C6.61286 19.7332 11.5586 21.4142 15.6459 19.4007C19.7331 17.3871 21.4142 12.4414 19.4006 8.3541C17.3871 4.26683 12.4413 2.58576 8.35406 4.59933C4.26678 6.61291 2.58571 11.5586 4.59929 15.6459ZM16.3087 20.7462C11.4783 23.1259 5.63339 21.1392 3.25371 16.3088C0.874031 11.4784 2.86075 5.63343 7.69117 3.25375C12.5216 0.874076 18.3665 2.86079 20.7462 7.69121C23.1259 12.5216 21.1392 18.3666 16.3087 20.7462Z"
      fill="currentColor" />
    <path fill-rule="evenodd" clip-rule="evenodd"
      d="M12 9C10.3431 9 9 10.3431 9 12C9 13.6569 10.3431 15 12 15C13.6569 15 15 13.6569 15 12C15 10.3431 13.6569 9 12 9ZM7 12C7 9.23858 9.23858 7 12 7C14.7614 7 17 9.23858 17 12C17 14.7614 14.7614 17 12 17C9.23858 17 7 14.7614 7 12Z"
      fill="currentColor" />
    <path
      d="M4.05334 6.98889L5.58533 6.25199L9.0433 13.441C9.24679 13.864 9.06881 14.3719 8.64576 14.5754C8.22271 14.7789 7.71481 14.6009 7.51132 14.1779L4.05334 6.98889Z"
      fill="currentColor" />
    <path
      d="M20.0929 7V8.7H12.1155C11.6461 8.7 11.2655 8.31944 11.2655 7.85C11.2655 7.38056 11.6461 7 12.1155 7L20.0929 7Z"
      fill="currentColor" />
    <path
      d="M11.6265 21.3984L10.2227 20.4397L14.7215 13.8519C14.9863 13.4643 15.5152 13.3646 15.9028 13.6294C16.2905 13.8941 16.3902 14.423 16.1254 14.8107L11.6265 21.3984Z"
      fill="currentColor" />
  </g>
  <defs>
    <clipPath id="clip0_116_5291">
      <rect fill="white" />
    </clipPath>
  </defs>
</svg>