<svg  viewBox="0 0 24 27" fill="none" xmlns="http://www.w3.org/2000/svg">
  <path
    d="M17.2054 0.437511C17.1241 0.425011 17.0319 0.432823 16.9319 0.466156C15.5986 0.732823 14.1335 1.53282 13.2002 2.46616C12.4002 3.26616 11.734 4.59949 11.734 5.79949C11.734 6.06616 11.9986 6.33334 12.2653 6.33334C13.7319 6.20001 15.1991 5.39949 16.1325 4.46616C16.9325 3.39949 17.5986 2.20001 17.5986 1.00001C17.5986 0.700011 17.4491 0.475011 17.2054 0.437511ZM17.5986 6.20053C15.1986 6.20053 14.1335 7.66668 12.5335 7.66668C10.8002 7.66668 9.20017 6.33334 7.20017 6.33334C4.40017 6.33334 0.132462 8.99949 0.132462 15.1328C-0.000871018 20.7328 5.06632 27 7.99965 27C9.73298 27 10.1335 25.9323 12.5335 25.9323C14.9335 25.9323 15.4668 27 17.2002 27C19.2002 27 20.6668 24.8662 21.8668 23.1328C22.4002 22.1995 22.8002 21.6672 23.2002 20.8672C23.4668 20.3339 23.1996 19.8005 22.6663 19.5339C19.1996 17.8005 18.534 12.2005 22.4007 10.2005C23.0674 9.80053 23.1996 8.99897 22.6663 8.59897C21.1996 7.26564 19.0653 6.20053 17.5986 6.20053Z"
    fill="currentColor" />
</svg>