<svg viewBox="0 0 24 24" fill="none" xmlns="http://www.w3.org/2000/svg">
  <path d="M23.5 4H9V20H23.5V4Z" fill="#76B900" />
  <path
    d="M9 8.84C9.26 8.815 9.525 8.795 9.785 8.805C12.26 8.805 13.735 10.73 13.735 10.73L11.72 12.425C10.82 10.915 10.505 10.25 9 10.07V8.84ZM9 14.36C9.365 14.48 9.76 14.54 10.15 14.54C13.09 14.54 15.825 10.74 15.825 10.74C15.825 10.74 13.29 7.285 9.42 7.41C9.28 7.41 9.14 7.42 9 7.425V6.275L9.42 6.25C14.8 6.065 18.31 10.66 18.31 10.66C18.31 10.66 14.285 15.56 10.09 15.56C9.725 15.56 9.355 15.525 9 15.465V14.36ZM9.975 18.045C9.645 18.045 9.315 18.03 9 17.995V16.775C9.295 16.81 9.61 16.835 9.905 16.835C13.815 16.835 16.64 14.84 19.375 12.485C19.83 12.85 21.685 13.73 22.07 14.115C19.47 16.295 13.41 18.045 9.975 18.045Z"
    fill="#FAFAFA" />
  <path
    d="M9.00001 14.3585V15.4745C5.39051 14.8295 4.38751 11.0715 4.38751 11.0715C4.38751 11.0715 6.12251 9.1535 9.00001 8.8395V10.06H8.99151C7.48301 9.877 6.29751 11.2895 6.29751 11.2895C6.29751 11.2895 6.96851 13.6695 9.00001 14.3585Z"
    fill="#76B900" />
  <path
    d="M2.59151 10.9145C2.59151 10.9145 4.72751 7.758 9.00851 7.427V6.276C4.26551 6.6595 0.167511 10.6705 0.167511 10.6705C0.167511 10.6705 2.48701 17.384 9.00001 17.9945V16.774C4.22201 16.1805 2.59151 10.9145 2.59151 10.9145Z"
    fill="#76B900" />
</svg>