<svg viewBox="0 0 24 24" fill="none" xmlns="http://www.w3.org/2000/svg">
  <path
    d="M2.39999 1.92C2.20607 1.92 2.03095 2.03721 1.95655 2.21625C1.88215 2.39577 1.92333 2.60209 2.06061 2.73937L6.86061 7.53937C6.95037 7.62961 7.07279 7.68 7.19999 7.68H16.32V16.8C16.32 16.9272 16.3704 17.0496 16.4606 17.1394L21.2606 21.9394C21.3523 22.0311 21.4752 22.08 21.6 22.08C21.6619 22.08 21.7242 22.0679 21.7837 22.0434C21.9628 21.969 22.08 21.7939 22.08 21.6V2.4C22.08 2.13504 21.8649 1.92 21.6 1.92H2.39999ZM7.24499 9.12187C7.10463 9.10835 6.96357 9.1573 6.86061 9.26062L2.06061 14.0606C1.97037 14.1504 1.91999 14.2728 1.91999 14.4V21.6C1.91999 21.865 2.13503 22.08 2.39999 22.08H9.59999C9.72719 22.08 9.8496 22.0296 9.93936 21.9394L14.7394 17.1394C14.8766 17.0021 14.9178 16.7958 14.8434 16.6162C14.769 16.4372 14.5939 16.32 14.4 16.32H7.67999V9.6C7.67999 9.40608 7.56278 9.23096 7.38374 9.15656C7.33862 9.13784 7.29177 9.12638 7.24499 9.12187Z"
    fill="black" />
</svg>