<svg viewBox="0 0 24 24" fill="none" xmlns="http://www.w3.org/2000/svg">
  <path fill-rule="evenodd" clip-rule="evenodd"
    d="M11.1318 5.90466C11.0725 5.84847 11.0083 5.82872 10.9338 5.84162C10.0772 5.98992 9.257 6.31601 8.52769 6.80332C7.49988 7.49008 6.6988 8.4662 6.22576 9.60823C5.75271 10.7503 5.62894 12.0069 5.8701 13.2193C6.11125 14.4317 6.70651 15.5453 7.58059 16.4194C8.45466 17.2935 9.56831 17.8888 10.7807 18.1299C11.9931 18.3711 13.2497 18.2473 14.3918 17.7743C15.5338 17.3012 16.5099 16.5001 17.1967 15.4723C17.684 14.743 18.0101 13.9228 18.1584 13.0662C18.1713 12.9917 18.1515 12.9275 18.0953 12.8682C18.0333 12.8028 17.9284 12.75 17.8 12.75H12.5C11.8096 12.75 11.25 12.1904 11.25 11.5V6.20001C11.25 6.07158 11.1972 5.96669 11.1318 5.90466ZM10.6779 4.36361C11.8775 4.15591 12.75 5.16582 12.75 6.20001V11.25H17.8C18.8342 11.25 19.8441 12.1225 19.6364 13.3221C19.4525 14.3842 19.0482 15.4013 18.4439 16.3057C17.5923 17.5802 16.3819 18.5735 14.9658 19.1601C13.5497 19.7467 11.9914 19.9001 10.4881 19.6011C8.9847 19.3021 7.60378 18.5639 6.51993 17.4801C5.43607 16.3962 4.69795 15.0153 4.39892 13.512C4.09988 12.0086 4.25336 10.4503 4.83994 9.03421C5.42652 7.61808 6.41985 6.4077 7.69433 5.55612C8.59869 4.95184 9.61578 4.5475 10.6779 4.36361Z"
    fill="currentColor" />
  <path fill-rule="evenodd" clip-rule="evenodd"
    d="M16.0303 5.091C15.5579 4.61853 14.75 4.95315 14.75 5.62133V8.50001C14.75 8.91423 15.0858 9.25001 15.5 9.25001H18.3787C19.0469 9.25001 19.3815 8.44216 18.909 7.96968L16.0303 5.091ZM13.25 5.62133C13.25 3.6168 15.6736 2.61292 17.091 4.03034L19.9697 6.90902C21.3871 8.32644 20.3832 10.75 18.3787 10.75H15.5C14.2574 10.75 13.25 9.74265 13.25 8.50001V5.62133Z"
    fill="currentColor" />
</svg>