<svg viewBox="0 0 24 24" fill="none" xmlns="http://www.w3.org/2000/svg">
  <path fill-rule="evenodd" clip-rule="evenodd"
    d="M2.25 8C2.25 4.82436 4.82436 2.25 8 2.25H16C19.1756 2.25 21.75 4.82436 21.75 8V16C21.75 19.1756 19.1756 21.75 16 21.75H8C4.82436 21.75 2.25 19.1756 2.25 16V8ZM8 3.75C5.65279 3.75 3.75 5.65279 3.75 8V16C3.75 18.3472 5.65279 20.25 8 20.25H16C18.3472 20.25 20.25 18.3472 20.25 16V8C20.25 5.65279 18.3472 3.75 16 3.75H8Z"
    fill="currentColor" />
  <path fill-rule="evenodd" clip-rule="evenodd"
    d="M16 2.39999C16.3314 2.39999 16.6 2.66862 16.6 2.99999L16.6 21C16.6 21.3314 16.3314 21.6 16 21.6C15.6686 21.6 15.4 21.3314 15.4 21L15.4 2.99999C15.4 2.66862 15.6686 2.39999 16 2.39999Z"
    fill="currentColor" />
  <path fill-rule="evenodd" clip-rule="evenodd"
    d="M2.39999 8.00001C2.39999 7.66864 2.66862 7.40001 2.99999 7.40001L21 7.40001C21.3314 7.40001 21.6 7.66864 21.6 8.00001C21.6 8.33138 21.3314 8.60001 21 8.60001L2.99999 8.60001C2.66862 8.60001 2.39999 8.33138 2.39999 8.00001Z"
    fill="currentColor" />
  <path fill-rule="evenodd" clip-rule="evenodd"
    d="M2.39999 12C2.39999 11.6686 2.66862 11.4 2.99999 11.4L21 11.4C21.3314 11.4 21.6 11.6686 21.6 12C21.6 12.3314 21.3314 12.6 21 12.6L2.99999 12.6C2.66862 12.6 2.39999 12.3314 2.39999 12Z"
    fill="currentColor" />
  <path fill-rule="evenodd" clip-rule="evenodd"
    d="M2.39999 16C2.39999 15.6686 2.66862 15.4 2.99999 15.4L21 15.4C21.3314 15.4 21.6 15.6686 21.6 16C21.6 16.3314 21.3314 16.6 21 16.6H2.99999C2.66862 16.6 2.39999 16.3314 2.39999 16Z"
    fill="currentColor" />
  <path fill-rule="evenodd" clip-rule="evenodd"
    d="M12 2.39999C12.3314 2.39999 12.6 2.66862 12.6 2.99999L12.6 21C12.6 21.3314 12.3314 21.6 12 21.6C11.6686 21.6 11.4 21.3314 11.4 21L11.4 2.99999C11.4 2.66862 11.6686 2.39999 12 2.39999Z"
    fill="currentColor" />
  <path fill-rule="evenodd" clip-rule="evenodd"
    d="M7.99999 2.39999C8.33136 2.39999 8.59999 2.66862 8.59999 2.99999L8.59999 21C8.59999 21.3314 8.33137 21.6 7.99999 21.6C7.66862 21.6 7.39999 21.3314 7.39999 21L7.39999 2.99999C7.39999 2.66862 7.66862 2.39999 7.99999 2.39999Z"
    fill="currentColor" />
</svg>