<svg viewBox="0 0 24 24" fill="none" xmlns="http://www.w3.org/2000/svg">
  <path fill-rule="evenodd" clip-rule="evenodd"
    d="M17.6054 5.68711C16.1171 4.91141 14.244 4.97558 12.6456 6.42328C12.2803 6.75414 11.7197 6.75414 11.3544 6.42328C9.75596 4.97558 7.88292 4.91142 6.39458 5.68711C4.88529 6.47372 3.75 8.13956 3.75 10.2134C3.75 12.6929 5.24385 14.5553 7.48089 16.4245C8.07321 16.9194 8.70102 17.3893 9.3576 17.8809C9.6492 18.0991 9.94647 18.3217 10.2488 18.5525C11.2603 19.3248 12.7428 19.326 13.7539 18.555C14.0358 18.3401 14.3141 18.1314 14.5882 17.926C15.2617 17.4212 15.909 16.936 16.5181 16.4253C18.7454 14.5576 20.25 12.6754 20.25 10.2134C20.25 8.13955 19.1147 6.47372 17.6054 5.68711ZM18.2987 4.35693C20.2977 5.39876 21.75 7.57361 21.75 10.2134C21.75 13.3775 19.7821 15.6459 17.4819 17.5747C16.8394 18.1134 16.1409 18.637 15.4543 19.1517C15.1875 19.3516 14.9226 19.5502 14.6634 19.7478C13.114 20.9292 10.8863 20.9265 9.33855 19.7448C9.06214 19.5337 8.77948 19.3221 8.49539 19.1094C7.82337 18.6063 7.14334 18.0971 6.51911 17.5755C4.20686 15.6435 2.25 13.3951 2.25 10.2134C2.25 7.57361 3.70233 5.39876 5.70131 4.35693C7.60595 3.36427 9.98709 3.41397 12 5.00542C14.0129 3.41397 16.394 3.36427 18.2987 4.35693Z"
    fill="currentColor" />
  <path fill-rule="evenodd" clip-rule="evenodd"
    d="M15.2411 7.74702C15.3808 7.32786 15.8338 7.10134 16.253 7.24105L16.33 7.26671C17.5064 7.65888 18.3 8.75987 18.3 10C18.3 10.4418 17.9418 10.8 17.5 10.8C17.0582 10.8 16.7 10.4418 16.7 10C16.7 9.44856 16.3471 8.95899 15.824 8.78461L15.747 8.75895C15.3279 8.61923 15.1013 8.16617 15.2411 7.74702Z"
    fill="currentColor" />
</svg>