<svg viewBox="0 0 24 24" fill="none" xmlns="http://www.w3.org/2000/svg">
  <path fill-rule="evenodd" clip-rule="evenodd"
    d="M14.7465 6.38776C12.9816 5.75397 11.0179 5.75406 9.25298 6.38794C7.09344 7.16356 5.40931 8.52481 4.42949 10.3538C3.88205 11.3757 3.88197 12.624 4.42933 13.6459C4.60006 13.9646 4.79172 14.2684 5.00298 14.5569C5.24768 14.8911 5.17513 15.3604 4.84092 15.6051C4.50672 15.8498 4.03742 15.7773 3.79271 15.4431C3.54033 15.0984 3.31118 14.7352 3.10708 14.3541C2.32267 12.8897 2.32284 11.1098 3.10727 9.64551C4.28786 7.44172 6.29127 5.85786 8.74595 4.97623C10.8386 4.22465 13.1608 4.22453 15.2535 4.97603C15.6433 5.11602 15.8459 5.54553 15.7059 5.93537C15.5659 6.32521 15.1364 6.52775 14.7465 6.38776ZM18.8389 8.04944C19.1591 7.7867 19.6317 7.83328 19.8945 8.1535C19.9634 8.23751 20.0309 8.32276 20.0969 8.40924C21.6963 10.5046 21.6962 13.4957 20.0967 15.591C18.8985 17.1607 17.2206 18.3175 15.2541 19.0238C13.1615 19.7754 10.8392 19.7755 8.74653 19.024C7.98728 18.7513 7.27118 18.4116 6.60884 18.0068C6.25542 17.7907 6.14406 17.3291 6.3601 16.9757C6.57614 16.6223 7.03777 16.5109 7.39118 16.7269C7.96157 17.0756 8.58473 17.3721 9.25349 17.6122C11.0184 18.246 12.9821 18.2459 14.747 17.6121C16.4789 16.99 17.9041 15.9912 18.9044 14.6808C20.0937 13.1229 20.0937 10.8773 18.9046 9.31938C18.8493 9.24693 18.7927 9.17546 18.7349 9.10498C18.4721 8.78477 18.5187 8.31219 18.8389 8.04944Z"
    fill="currentColor" />
  <path fill-rule="evenodd" clip-rule="evenodd"
    d="M12 9.75C10.7574 9.75 9.75 10.7574 9.75 12C9.75 13.2426 10.7574 14.25 12 14.25C13.2426 14.25 14.25 13.2426 14.25 12C14.25 10.7574 13.2426 9.75 12 9.75ZM8.25 12C8.25 9.92893 9.92893 8.25 12 8.25C14.0711 8.25 15.75 9.92893 15.75 12C15.75 14.0711 14.0711 15.75 12 15.75C9.92893 15.75 8.25 14.0711 8.25 12Z"
    fill="currentColor" />
  <path fill-rule="evenodd" clip-rule="evenodd"
    d="M19.985 5.00356C20.2428 5.32778 20.189 5.79959 19.8647 6.05738L4.06877 18.6167C3.74455 18.8745 3.27274 18.8207 3.01495 18.4964C2.75717 18.1722 2.81102 17.7004 3.13524 17.4426L18.9312 4.88328C19.2554 4.62549 19.7272 4.67934 19.985 5.00356Z"
    fill="currentColor" />
</svg>