<svg viewBox="0 0 24 24" fill="none" xmlns="http://www.w3.org/2000/svg">
  <path fill-rule="evenodd" clip-rule="evenodd"
    d="M13.9818 4.30696C12.7924 3.47232 11.2076 3.47232 10.0182 4.30696L5.21823 7.67538C4.29789 8.32124 3.75 9.37506 3.75 10.4994V17.8C3.75 19.7054 5.29462 21.25 7.2 21.25H16.8C18.7054 21.25 20.25 19.7054 20.25 17.8V10.4994C20.25 9.37506 19.7021 8.32124 18.7818 7.67539L13.9818 4.30696ZM9.15659 3.07913C10.8631 1.8816 13.1369 1.8816 14.8434 3.07913L19.6434 6.44755C20.9639 7.37421 21.75 8.88621 21.75 10.4994V17.8C21.75 20.5338 19.5338 22.75 16.8 22.75H7.2C4.46619 22.75 2.25 20.5338 2.25 17.8V10.4994C2.25 8.88621 3.0361 7.37421 4.35659 6.44755L9.15659 3.07913L9.58741 3.69305L9.15659 3.07913Z"
    fill="currentColor" />
  <path fill-rule="evenodd" clip-rule="evenodd"
    d="M8.25 18C8.25 17.5858 8.58579 17.25 9 17.25H15C15.4142 17.25 15.75 17.5858 15.75 18C15.75 18.4142 15.4142 18.75 15 18.75H9C8.58579 18.75 8.25 18.4142 8.25 18Z"
    fill="currentColor" />
</svg>