<svg viewBox="0 0 24 24" fill="none" xmlns="http://www.w3.org/2000/svg">
  <path fill-rule="evenodd" clip-rule="evenodd"
    d="M12.8529 4.82195C12.3726 4.3737 11.6274 4.3737 11.1471 4.82194L5.6471 9.95528C5.39381 10.1917 5.25 10.5226 5.25 10.8691V18C5.25 18.6903 5.80964 19.25 6.5 19.25H17.5C18.1904 19.25 18.75 18.6903 18.75 18V10.8691C18.75 10.5226 18.6062 10.1917 18.3529 9.95528L12.8529 4.82195ZM10.1236 3.72536C11.1802 2.73923 12.8198 2.73923 13.8764 3.72536L19.3764 8.8587C19.9336 9.37879 20.25 10.1068 20.25 10.8691V18C20.25 19.5188 19.0188 20.75 17.5 20.75H6.5C4.98122 20.75 3.75 19.5188 3.75 18V10.8691C3.75 10.1068 4.06638 9.37879 4.62362 8.8587L5.13536 9.40699L4.62362 8.8587L10.1236 3.72536Z"
    fill="currentColor" />
</svg>