<svg viewBox="0 0 24 24" fill="none" xmlns="http://www.w3.org/2000/svg">
  <path fill-rule="evenodd" clip-rule="evenodd"
    d="M12 3.75C7.44365 3.75 3.75 7.44365 3.75 12C3.75 16.5563 7.44365 20.25 12 20.25C16.5563 20.25 20.25 16.5563 20.25 12C20.25 7.44365 16.5563 3.75 12 3.75ZM2.25 12C2.25 6.61522 6.61522 2.25 12 2.25C17.3848 2.25 21.75 6.61522 21.75 12C21.75 17.3848 17.3848 21.75 12 21.75C6.61522 21.75 2.25 17.3848 2.25 12Z"
    fill="currentColor" />
  <path fill-rule="evenodd" clip-rule="evenodd"
    d="M9.8836 5.37568C9.27414 6.53174 8.84226 8.21033 8.51109 10.2353C8.32007 11.4033 8.32007 12.5967 8.51109 13.7647C8.84226 15.7897 9.27414 17.4683 9.8836 18.6243C10.4851 19.7653 11.1701 20.25 12 20.25C12.8299 20.25 13.5149 19.7653 14.1164 18.6243C14.7259 17.4683 15.1577 15.7897 15.4889 13.7647C15.6799 12.5967 15.6799 11.4033 15.4889 10.2353C15.1577 8.21033 14.7259 6.53174 14.1164 5.37568C13.5149 4.23468 12.8299 3.75 12 3.75C11.1701 3.75 10.4851 4.23468 9.8836 5.37568ZM8.55669 4.67616C9.29228 3.28084 10.388 2.25 12 2.25C13.612 2.25 14.7077 3.28084 15.4433 4.67616C16.171 6.05641 16.6326 7.93493 16.9692 9.99318C17.1865 11.3215 17.1865 12.6785 16.9692 14.0068C16.6326 16.0651 16.171 17.9436 15.4433 19.3238C14.7077 20.7192 13.612 21.75 12 21.75C10.388 21.75 9.29228 20.7192 8.55669 19.3238C7.82905 17.9436 7.36737 16.0651 7.03076 14.0068C6.81352 12.6785 6.81352 11.3215 7.03076 9.99318C7.36737 7.93493 7.82905 6.05641 8.55669 4.67616Z"
    fill="currentColor" />
  <path fill-rule="evenodd" clip-rule="evenodd"
    d="M2.76142 11.8697C2.8334 11.4618 3.22243 11.1894 3.63034 11.2614L6.04785 11.688C9.98553 12.3829 14.0145 12.3829 17.9522 11.688L20.3697 11.2614C20.7776 11.1894 21.1666 11.4618 21.2386 11.8697C21.3106 12.2776 21.0383 12.6666 20.6303 12.7386L18.2128 13.1652C14.1027 13.8905 9.89731 13.8905 5.78718 13.1652L3.36966 12.7386C2.96175 12.6666 2.68943 12.2776 2.76142 11.8697Z"
    fill="currentColor" />
</svg>