<svg viewBox="0 0 200 200" fill="none" xmlns="http://www.w3.org/2000/svg">
<path d="M56 22C47.164 22 40 29.164 40 38V164C40 172.836 47.164 180 56 180H144C152.836 180 160 172.836 160 164V60L122 22H78H56Z" fill="white" stroke="black" stroke-width="0.8" stroke-linecap="round" stroke-linejoin="round"/>
<path d="M161.8 60.2002H138.8C129.412 60.2002 121.8 52.5882 121.8 43.2002V20.2002L161.8 60.2002Z" fill="url(#paint0_linear_7680_7306)" stroke="black" stroke-width="0.6" stroke-linecap="round" stroke-linejoin="round"/>
<path d="M135 143H65C62.79 143 61 141.21 61 139V97C61 94.79 62.79 93 65 93H135C137.21 93 139 94.79 139 97V139C139 141.21 137.21 143 135 143Z" fill="url(#paint1_linear_7680_7306)" stroke="black" stroke-width="0.6" stroke-linecap="round" stroke-linejoin="round"/>
<path d="M70 58.001C64.486 58.001 60 53.515 60 48.001V25.001C60 21.141 63.14 18.001 67 18.001C70.86 18.001 74 21.141 74 25.001V48.001C74 50.207 72.206 52.001 70 52.001C67.794 52.001 66 50.207 66 48.001V29.001C66 28.449 66.448 28.001 67 28.001C67.552 28.001 68 28.449 68 29.001V48.001C68 49.103 68.896 50.001 70 50.001C71.104 50.001 72 49.103 72 48.001V25.001C72 22.245 69.758 20.001 67 20.001C64.242 20.001 62 22.245 62 25.001V48.001C62 52.413 65.588 56.001 70 56.001C74.412 56.001 78 52.413 78 48.001V29.001C78 28.449 78.448 28.001 79 28.001C79.552 28.001 80 28.449 80 29.001V48.001C80 53.515 75.514 58.001 70 58.001Z" fill="#5C4DF1"/>
<path d="M135 170.001H65C56.728 170.001 50 163.273 50 155.001V47.0015C50 42.1095 52.402 37.5115 56.428 34.7015C56.878 34.3895 57.502 34.4935 57.82 34.9495C58.136 35.4015 58.026 36.0255 57.572 36.3415C54.084 38.7775 52 42.7615 52 47.0015V155.001C52 162.169 57.832 168.001 65 168.001H135C142.168 168.001 148 162.169 148 155.001V121.001C148 120.449 148.448 120.001 149 120.001C149.552 120.001 150 120.449 150 121.001V155.001C150 163.273 143.272 170.001 135 170.001Z" fill="#1F212B"/>
<path d="M149 118.001C148.448 118.001 148 117.553 148 117.001V103.001C148 102.449 148.448 102.001 149 102.001C149.552 102.001 150 102.449 150 103.001V117.001C150 117.553 149.552 118.001 149 118.001Z" fill="#1F212B"/>
<path d="M149 100.001C148.448 100.001 148 99.553 148 99.001V93.001C148 92.449 148.448 92.001 149 92.001C149.552 92.001 150 92.449 150 93.001V99.001C150 99.553 149.552 100.001 149 100.001Z" fill="#1F212B"/>
<path d="M70.5 144.001C70.224 144.001 70 143.553 70 143.001V93.001C70 92.449 70.224 92.001 70.5 92.001C70.776 92.001 71 92.449 71 93.001V143.001C71 143.553 70.776 144.001 70.5 144.001Z" fill="white"/>
<path d="M139 109.001H61C60.448 109.001 60 108.777 60 108.501C60 108.225 60.448 108.001 61 108.001H139C139.552 108.001 140 108.225 140 108.501C140 108.777 139.552 109.001 139 109.001Z" fill="white"/>
<path d="M139 127.001H61C60.448 127.001 60 126.777 60 126.501C60 126.225 60.448 126.001 61 126.001H139C139.552 126.001 140 126.225 140 126.501C140 126.777 139.552 127.001 139 127.001Z" fill="white"/>
<path d="M107 84.001H71C70.448 84.001 70 83.553 70 83.001C70 82.449 70.448 82.001 71 82.001H107C107.552 82.001 108 82.449 108 83.001C108 83.553 107.552 84.001 107 84.001Z" fill="#1F212B"/>
<path d="M129 84.001H115C114.448 84.001 114 83.553 114 83.001C114 82.449 114.448 82.001 115 82.001H129C129.552 82.001 130 82.449 130 83.001C130 83.553 129.552 84.001 129 84.001Z" fill="#1F212B"/>
<path d="M135 154.001H113C112.448 154.001 112 153.553 112 153.001C112 152.449 112.448 152.001 113 152.001H135C135.552 152.001 136 152.449 136 153.001C136 153.553 135.552 154.001 135 154.001Z" fill="#1F212B"/>
<path d="M119 93.001H118V143.001H119V93.001Z" fill="white"/>
<defs>
<linearGradient id="paint0_linear_7680_7306" x1="142.213" y1="35.6139" x2="141.029" y2="56.3316" gradientUnits="userSpaceOnUse">
<stop stop-color="#373FEF"/>
<stop offset="1" stop-color="#EA5DFF"/>
</linearGradient>
<linearGradient id="paint1_linear_7680_7306" x1="100.806" y1="112.267" x2="99.855" y2="138.214" gradientUnits="userSpaceOnUse">
<stop stop-color="#373FEF"/>
<stop offset="1" stop-color="#EA5DFF"/>
</linearGradient>
</defs>
</svg>
