<svg viewBox="0 0 20 21" fill="none" xmlns="http://www.w3.org/2000/svg">
<path d="M12.4999 2.37576C9.51586 2.37576 7.08325 4.80837 7.08325 7.79243C7.08325 8.16007 7.15939 8.50215 7.22974 8.84549L2.26636 13.8089C2.14915 13.9261 2.08328 14.085 2.08325 14.2508V17.5841C2.08327 17.7499 2.14912 17.9088 2.26633 18.026C2.38354 18.1432 2.5425 18.2091 2.70825 18.2091H6.04159C6.20734 18.2091 6.3663 18.1432 6.48351 18.026C6.60072 17.9088 6.66657 17.7499 6.66658 17.5841V16.5424H8.12492C8.29067 16.5424 8.44964 16.4766 8.56684 16.3594C8.68405 16.2421 8.7499 16.0832 8.74992 15.9174V14.4591H10.2083C10.374 14.4591 10.533 14.3932 10.6502 14.276C10.7674 14.1588 10.8332 13.9999 10.8333 13.8341V12.9153C11.3629 13.088 11.9148 13.2091 12.4999 13.2091C15.484 13.2091 17.9166 10.7765 17.9166 7.79243C17.9166 4.80837 15.484 2.37576 12.4999 2.37576ZM12.4999 3.62576C14.8084 3.62576 16.6666 5.48399 16.6666 7.79243C16.6666 10.1009 14.8084 11.9591 12.4999 11.9591C11.776 11.9591 11.0996 11.776 10.5077 11.4529C10.4125 11.401 10.3055 11.3747 10.1971 11.3766C10.0887 11.3786 9.98262 11.4087 9.88937 11.464C9.79612 11.5194 9.71886 11.598 9.66519 11.6922C9.61152 11.7864 9.58328 11.893 9.58325 12.0014V13.2091H8.12492C7.95916 13.2091 7.8002 13.275 7.683 13.3922C7.56579 13.5094 7.49994 13.6683 7.49992 13.8341V15.2924H6.04159C5.87583 15.2924 5.71687 15.3583 5.59966 15.4755C5.48246 15.5927 5.4166 15.7517 5.41659 15.9174V16.9591H3.33325V14.5096L8.32837 9.51443C8.40669 9.43614 8.46281 9.33845 8.49098 9.23135C8.51915 9.12425 8.51836 9.01159 8.48869 8.9049C8.38903 8.54622 8.33325 8.17562 8.33325 7.79243C8.33325 5.48399 10.1915 3.62576 12.4999 3.62576ZM13.3333 5.7091C13.0017 5.7091 12.6838 5.84079 12.4494 6.07521C12.2149 6.30963 12.0833 6.62758 12.0833 6.9591C12.0833 7.29062 12.2149 7.60856 12.4494 7.84298C12.6838 8.0774 13.0017 8.2091 13.3333 8.2091C13.6648 8.2091 13.9827 8.0774 14.2171 7.84298C14.4516 7.60856 14.5833 7.29062 14.5833 6.9591C14.5833 6.62758 14.4516 6.30963 14.2171 6.07521C13.9827 5.84079 13.6648 5.7091 13.3333 5.7091Z" fill="currentColor"/>
</svg>
