<svg viewBox="0 0 24 24" fill="none" xmlns="http://www.w3.org/2000/svg">
  <path fill-rule="evenodd" clip-rule="evenodd"
    d="M11.0482 3.19645C11.6341 2.84494 12.366 2.84494 12.9518 3.19645L12.566 3.83957L12.9518 3.19645L18.2199 6.35732C19.453 7.09716 19.4075 8.89933 18.1387 9.57603L12.8706 12.3857C12.3265 12.6759 11.6735 12.6759 11.1294 12.3857L5.86132 9.57603C4.5925 8.89933 4.54702 7.09716 5.78009 6.35732L11.0482 3.19645ZM12.1801 4.48269C12.0693 4.41619 11.9308 4.41619 11.8199 4.48269L6.55184 7.64356C6.31855 7.78353 6.32716 8.12448 6.5672 8.2525L11.8353 11.0622C11.9383 11.1171 12.0618 11.1171 12.1647 11.0622L17.4328 8.2525C17.6729 8.12448 17.6815 7.78353 17.4482 7.64356L12.1801 4.48269Z"
    fill="currentColor" />
  <path fill-rule="evenodd" clip-rule="evenodd"
    d="M4.60389 11.5221C4.79881 11.1566 5.25311 11.0183 5.61859 11.2132L8.67011 12.8407L11.8332 14.5563C11.9372 14.6127 12.0628 14.6127 12.1669 14.5563L15.3346 12.8382L18.3815 11.2132C18.7469 11.0183 19.2012 11.1566 19.3962 11.5221C19.5911 11.8875 19.4528 12.3418 19.0873 12.5368L16.0428 14.1605L12.882 15.8748C12.3319 16.1732 11.6682 16.1732 11.118 15.8748L7.95726 14.1605L4.91271 12.5368C4.54723 12.3418 4.40896 11.8875 4.60389 11.5221Z"
    fill="currentColor" />
  <path fill-rule="evenodd" clip-rule="evenodd"
    d="M4.54139 14.6471C4.73631 14.2816 5.19061 14.1433 5.55609 14.3382L11.8353 17.6872C11.9383 17.7421 12.0618 17.7421 12.1647 17.6872L18.444 14.3382C18.8094 14.1433 19.2637 14.2816 19.4587 14.6471C19.6536 15.0125 19.5153 15.4668 19.1498 15.6618L12.8706 19.0107C12.3265 19.3009 11.6736 19.3009 11.1294 19.0107L4.85021 15.6618C4.48473 15.4668 4.34646 15.0125 4.54139 14.6471Z"
    fill="currentColor" />
</svg>