<svg width="20" height="20" viewBox="0 0 20 20" fill="none" xmlns="http://www.w3.org/2000/svg">
  <path fill-rule="evenodd" clip-rule="evenodd"
    d="M8.66251 17.4062C8.57317 17.7396 8.23046 17.9375 7.89704 17.8481C7.46657 17.7328 7.04856 17.5828 6.64669 17.4007C6.33228 17.2583 6.19289 16.8879 6.33535 16.5735C6.47781 16.2591 6.84817 16.1197 7.16258 16.2622C7.50261 16.4162 7.8563 16.5431 8.22057 16.6407C8.55398 16.73 8.75185 17.0728 8.66251 17.4062ZM8.66251 2.59376C8.75185 2.92718 8.55398 3.26989 8.22057 3.35923C7.8563 3.45684 7.50261 3.58371 7.16258 3.73777C6.84817 3.88023 6.47781 3.74084 6.33535 3.42643C6.19289 3.11202 6.33228 2.74165 6.64669 2.59919C7.04856 2.41711 7.46657 2.26717 7.89704 2.15182C8.23046 2.06248 8.57317 2.26035 8.66251 2.59376ZM5.32917 4.09874C5.56513 4.35067 5.55218 4.74619 5.30024 4.98215C5.02778 5.23733 4.77522 5.51555 4.54564 5.81474C4.31607 6.11393 4.1127 6.42989 3.93673 6.75911C3.77402 7.06353 3.39533 7.17841 3.09091 7.01569C2.78649 6.85298 2.67161 6.47429 2.83432 6.16987C3.0423 5.78077 3.28265 5.40735 3.55395 5.05378C3.82525 4.70022 4.12374 4.37141 4.44576 4.06981C4.69769 3.83385 5.09321 3.8468 5.32917 4.09874ZM5.32917 15.9012C5.09321 16.1531 4.69769 16.1661 4.44576 15.9301C4.12374 15.6285 3.82525 15.2997 3.55395 14.9462C3.28265 14.5926 3.0423 14.2192 2.83433 13.8301C2.67161 13.5256 2.78649 13.147 3.09091 12.9842C3.39533 12.8215 3.77402 12.9364 3.93673 13.2408C4.1127 13.5701 4.31607 13.886 4.54564 14.1852C4.77522 14.4844 5.02778 14.7626 5.30024 15.0178C5.55218 15.2538 5.56513 15.6493 5.32917 15.9012ZM2.70193 8.1616C3.04249 8.21783 3.27299 8.5395 3.21676 8.88006C3.15595 9.24838 3.12495 9.62285 3.12495 9.99997C3.12495 10.3771 3.15595 10.7516 3.21676 11.1199C3.27299 11.4604 3.04249 11.7821 2.70193 11.8383C2.36136 11.8946 2.03969 11.6641 1.98346 11.3235C1.91159 10.8882 1.87495 10.4456 1.87495 9.99997C1.87495 9.55432 1.91159 9.11174 1.98346 8.67644C2.03969 8.33587 2.36136 8.10537 2.70193 8.1616Z"
    fill="currentColor" />
  <path fill-rule="evenodd" clip-rule="evenodd"
    d="M9.375 2.5C9.375 2.15482 9.65482 1.875 10 1.875C14.4873 1.875 18.125 5.51269 18.125 10C18.125 14.4873 14.4873 18.125 10 18.125C9.65482 18.125 9.375 17.8452 9.375 17.5C9.375 17.1548 9.65482 16.875 10 16.875C13.797 16.875 16.875 13.797 16.875 10C16.875 6.20304 13.797 3.125 10 3.125C9.65482 3.125 9.375 2.84518 9.375 2.5Z"
    fill="currentColor" />
</svg>