<svg width="20" height="20" viewBox="0 0 20 20" fill="none" xmlns="http://www.w3.org/2000/svg">
<path fill-rule="evenodd" clip-rule="evenodd" d="M8.66257 17.4062C8.57323 17.7396 8.23052 17.9375 7.8971 17.8481C7.46663 17.7328 7.04862 17.5828 6.64675 17.4007C6.33235 17.2583 6.19295 16.8879 6.33541 16.5735C6.47787 16.2591 6.84824 16.1197 7.16264 16.2622C7.50267 16.4162 7.85636 16.5431 8.22063 16.6407C8.55404 16.73 8.75191 17.0728 8.66257 17.4062ZM8.66257 2.59376C8.75191 2.92718 8.55404 3.26989 8.22063 3.35923C7.85636 3.45684 7.50267 3.58371 7.16264 3.73777C6.84824 3.88023 6.47787 3.74084 6.33541 3.42643C6.19295 3.11202 6.33234 2.74165 6.64675 2.59919C7.04862 2.41711 7.46663 2.26717 7.8971 2.15182C8.23052 2.06248 8.57323 2.26035 8.66257 2.59376ZM5.32923 4.09874C5.56519 4.35067 5.55224 4.74619 5.3003 4.98215C5.02784 5.23733 4.77528 5.51555 4.5457 5.81474C4.31613 6.11393 4.11276 6.42989 3.93679 6.75911C3.77408 7.06353 3.39539 7.17841 3.09097 7.01569C2.78655 6.85298 2.67167 6.47429 2.83439 6.16987C3.04236 5.78077 3.28271 5.40735 3.55401 5.05378C3.82531 4.70022 4.1238 4.37141 4.44582 4.06981C4.69775 3.83385 5.09327 3.8468 5.32923 4.09874ZM5.32923 15.9012C5.09327 16.1531 4.69775 16.1661 4.44582 15.9301C4.1238 15.6285 3.82531 15.2997 3.55401 14.9462C3.28271 14.5926 3.04236 14.2192 2.83439 13.8301C2.67167 13.5256 2.78655 13.147 3.09097 12.9842C3.39539 12.8215 3.77408 12.9364 3.93679 13.2408C4.11276 13.5701 4.31613 13.886 4.5457 14.1852C4.77528 14.4844 5.02784 14.7626 5.3003 15.0178C5.55224 15.2538 5.56519 15.6493 5.32923 15.9012ZM2.70199 8.1616C3.04255 8.21783 3.27306 8.5395 3.21683 8.88006C3.15601 9.24838 3.12501 9.62285 3.12501 9.99997C3.12501 10.3771 3.15601 10.7516 3.21683 11.1199C3.27306 11.4604 3.04255 11.7821 2.70199 11.8383C2.36142 11.8946 2.03975 11.6641 1.98352 11.3235C1.91165 10.8882 1.87501 10.4456 1.87501 9.99997C1.87501 9.55432 1.91165 9.11174 1.98352 8.67644C2.03975 8.33587 2.36142 8.10537 2.70199 8.1616Z" fill="#44444B"/>
<path fill-rule="evenodd" clip-rule="evenodd" d="M9.375 2.5C9.375 2.15482 9.65482 1.875 10 1.875C14.4873 1.875 18.125 5.51269 18.125 10C18.125 14.4873 14.4873 18.125 10 18.125C9.65482 18.125 9.375 17.8452 9.375 17.5C9.375 17.1548 9.65482 16.875 10 16.875C13.797 16.875 16.875 13.797 16.875 10C16.875 6.20304 13.797 3.125 10 3.125C9.65482 3.125 9.375 2.84518 9.375 2.5Z" fill="#44444B"/>
</svg>
