<svg viewBox="0 0 24 24" fill="none" xmlns="http://www.w3.org/2000/svg">
  <path fill-rule="evenodd" clip-rule="evenodd"
    d="M16.963 6.0237C14.222 3.28269 9.77795 3.28269 7.03694 6.0237C4.71461 8.34602 4.33466 12.0147 6.10376 14.7947C6.39068 15.2456 6.72939 15.6688 7.10642 16.0458L7.92612 16.8655C8.75853 17.6979 9.67114 18.4461 10.6506 19.0991L11.4992 19.6647C11.8024 19.8669 12.1975 19.8669 12.5008 19.6647L13.3493 19.099C14.3288 18.446 15.2414 17.6979 16.0738 16.8655L16.8935 16.0458C17.2706 15.6688 17.6093 15.2456 17.8962 14.7947C19.6653 12.0147 19.2853 8.34602 16.963 6.0237ZM5.97628 4.96304C9.30307 1.63624 14.6969 1.63624 18.0237 4.96304C20.8508 7.79019 21.3024 12.2361 19.1617 15.6C18.8167 16.1422 18.4095 16.6512 17.9542 17.1064L17.1345 17.9261C16.2322 18.8284 15.2431 19.6393 14.1814 20.3471L13.3329 20.9128C12.5257 21.4509 11.4742 21.4509 10.6671 20.9128L9.81859 20.3471C8.7569 19.6393 7.76772 18.8284 6.86546 17.9261L6.04576 17.1064C5.59047 16.6512 5.18328 16.1422 4.83826 15.6C2.69759 12.2361 3.14913 7.79019 5.97628 4.96304Z"
    fill="currentColor" />
  <path fill-rule="evenodd" clip-rule="evenodd"
    d="M8.25 9.99999C8.25 7.92892 9.92894 6.25 12 6.25C14.0711 6.25 15.75 7.92893 15.75 9.99999C15.75 12.0711 14.0711 13.75 12 13.75C9.92894 13.75 8.25 12.0711 8.25 9.99999ZM12 7.75C10.7574 7.75 9.75 8.75736 9.75 9.99999C9.75 11.2426 10.7574 12.25 12 12.25C13.2426 12.25 14.25 11.2426 14.25 9.99999C14.25 8.75736 13.2426 7.75 12 7.75Z"
    fill="currentColor" />
</svg>