<svg viewBox="0 0 24 24" fill="none" xmlns="http://www.w3.org/2000/svg">
  <path fill-rule="evenodd" clip-rule="evenodd"
    d="M10.4793 9.49422C11.5886 8.35982 13.4107 8.34963 14.5326 9.47154C15.6526 10.5915 15.6446 12.4099 14.5148 13.52L8.78282 19.1524C7.69836 20.218 5.95769 20.2103 4.88262 19.1353C3.8094 18.062 3.79968 16.325 4.86083 15.2399L10.4793 9.49422ZM13.4719 10.5322C12.9405 10.0007 12.0773 10.0055 11.5518 10.5429L5.93329 16.2886C5.44676 16.7861 5.45121 17.5825 5.94328 18.0746C6.4362 18.5675 7.23428 18.571 7.7315 18.0825L13.4635 12.4501C13.9987 11.9242 14.0025 11.0628 13.4719 10.5322Z"
    fill="currentColor" />
  <path fill-rule="evenodd" clip-rule="evenodd"
    d="M10.8181 3.7724C11.2199 3.67193 11.6271 3.91625 11.7276 4.3181L12.2276 6.3181C12.3281 6.71995 12.0837 7.12715 11.6819 7.22761C11.28 7.32807 10.8728 7.08375 10.7724 6.6819L10.2724 4.6819C10.1719 4.28006 10.4162 3.87286 10.8181 3.7724Z"
    fill="currentColor" />
  <path fill-rule="evenodd" clip-rule="evenodd"
    d="M16.0104 4.25495C16.4164 4.33727 16.6787 4.7331 16.5964 5.13905L16.1866 7.15948C16.1043 7.56543 15.7085 7.82778 15.3026 7.74545C14.8966 7.66313 14.6342 7.2673 14.7166 6.86135L15.1263 4.84093C15.2086 4.43498 15.6045 4.17263 16.0104 4.25495Z"
    fill="currentColor" />
  <path fill-rule="evenodd" clip-rule="evenodd"
    d="M20.7216 8.79911C20.8326 9.19819 20.599 9.61165 20.1999 9.72259L18.2137 10.2748C17.8146 10.3857 17.4012 10.1521 17.2902 9.75306C17.1793 9.35399 17.4128 8.94053 17.8119 8.82958L19.7981 8.2774C20.1972 8.16645 20.6107 8.40003 20.7216 8.79911Z"
    fill="currentColor" />
  <path fill-rule="evenodd" clip-rule="evenodd"
    d="M20.7092 13.1848C20.5987 13.5841 20.1856 13.8182 19.7864 13.7077L17.7994 13.158C17.4002 13.0476 17.1661 12.6344 17.2766 12.2352C17.387 11.836 17.8002 11.6019 18.1994 11.7123L20.1863 12.262C20.5855 12.3725 20.8196 12.7856 20.7092 13.1848Z"
    fill="currentColor" />
</svg>