<svg viewBox="0 0 24 24" fill="none" xmlns="http://www.w3.org/2000/svg">
  <path fill-rule="evenodd" clip-rule="evenodd"
    d="M9.75 6.25V8.67157C9.75 9.40092 9.46027 10.1004 8.94454 10.6161L7.61612 11.9445C7.3817 12.179 7.25 12.4969 7.25 12.8284V19C7.25 19.6904 7.80964 20.25 8.5 20.25H15.5C16.1904 20.25 16.75 19.6904 16.75 19V12.8284C16.75 12.4969 16.6183 12.179 16.3839 11.9445L15.0555 10.6161C14.5397 10.1004 14.25 9.40092 14.25 8.67157V6.25H9.75ZM8.25 6C8.25 5.30964 8.80964 4.75 9.5 4.75H14.5C15.1904 4.75 15.75 5.30964 15.75 6V8.67157C15.75 9.00309 15.8817 9.32104 16.1161 9.55546L17.4445 10.8839C17.9603 11.3996 18.25 12.0991 18.25 12.8284V19C18.25 20.5188 17.0188 21.75 15.5 21.75H8.5C6.98122 21.75 5.75 20.5188 5.75 19V12.8284C5.75 12.0991 6.03973 11.3996 6.55546 10.8839L7.88388 9.55546C8.1183 9.32104 8.25 9.00309 8.25 8.67157V6Z"
    fill="currentColor" />
  <path fill-rule="evenodd" clip-rule="evenodd"
    d="M9 3.75C8.86193 3.75 8.75 3.86193 8.75 4V4.5C8.75 4.63807 8.86193 4.75 9 4.75H15C15.1381 4.75 15.25 4.63807 15.25 4.5V4C15.25 3.86193 15.1381 3.75 15 3.75H9ZM7.25 4C7.25 3.0335 8.0335 2.25 9 2.25H15C15.9665 2.25 16.75 3.0335 16.75 4V4.5C16.75 5.4665 15.9665 6.25 15 6.25H9C8.0335 6.25 7.25 5.4665 7.25 4.5V4Z"
    fill="currentColor" />
  <path fill-rule="evenodd" clip-rule="evenodd"
    d="M12.8254 13.3301C13.5138 12.9171 14.3483 12.8255 15.1099 13.0794L17.2372 13.7885C17.6301 13.9195 17.8425 14.3442 17.7115 14.7372C17.5805 15.1301 17.1558 15.3425 16.7628 15.2115L14.6355 14.5024C14.2893 14.387 13.91 14.4286 13.5971 14.6164L12.9149 15.0257C12.044 15.5483 10.956 15.5483 10.0852 15.0257L9.46482 14.6535C9.12985 14.4525 8.72017 14.4197 8.35746 14.5648L6.77856 15.1964C6.39397 15.3502 5.95749 15.1631 5.80366 14.7785C5.64982 14.394 5.83689 13.9575 6.22147 13.8036L7.80038 13.1721C8.59833 12.8529 9.49962 12.9251 10.2366 13.3673L10.8569 13.7395C11.2527 13.977 11.7473 13.977 12.1431 13.7395L12.8254 13.3301Z"
    fill="currentColor" />
</svg>