<svg viewBox="0 0 24 24" fill="none" xmlns="http://www.w3.org/2000/svg">
  <path fill-rule="evenodd" clip-rule="evenodd"
    d="M12 5.75C8.54822 5.75 5.75 8.54822 5.75 12C5.75 15.4518 8.54822 18.25 12 18.25C14.5162 18.25 16.6868 16.7627 17.6775 14.6173C17.2984 14.7042 16.9042 14.75 16.5 14.75C13.6005 14.75 11.25 12.3995 11.25 9.5C11.25 8.05527 11.8343 6.74633 12.7776 5.79782C12.5231 5.76628 12.2636 5.75 12 5.75ZM4.25 12C4.25 7.71979 7.71979 4.25 12 4.25C12.5356 4.25 13.0593 4.30445 13.5656 4.40837C14.151 4.52853 14.4586 5.00276 14.5155 5.44923C14.5695 5.87425 14.4172 6.34386 14.0507 6.66033C13.253 7.34912 12.75 8.36541 12.75 9.5C12.75 11.5711 14.4289 13.25 16.5 13.25C16.8899 13.25 17.2645 13.1907 17.6162 13.0813C18.0783 12.9374 18.5575 13.0559 18.8899 13.326C19.2392 13.6098 19.48 14.1214 19.273 14.6823C18.1821 17.6394 15.3385 19.75 12 19.75C7.71979 19.75 4.25 16.2802 4.25 12Z"
    fill="currentColor" />
  <path fill-rule="evenodd" clip-rule="evenodd"
    d="M17.4454 5.26012C17.9366 4.4883 19.0634 4.4883 19.5546 5.26012L20.0155 5.98447L20.7399 6.44545C21.5117 6.93665 21.5117 8.06335 20.7399 8.55455L20.0155 9.01553L19.5546 9.73988C19.0634 10.5117 17.9366 10.5117 17.4454 9.73988L16.9845 9.01553L16.2601 8.55455C15.4883 8.06335 15.4883 6.93665 16.2601 6.44545L16.9845 5.98447L17.4454 5.26012ZM18.5 6.39689L18.2201 6.83669C18.1219 6.99101 17.991 7.12189 17.8367 7.2201L17.3969 7.5L17.8367 7.7799C17.991 7.87811 18.1219 8.00899 18.2201 8.16331L18.5 8.60311L18.7799 8.16331C18.8781 8.00899 19.009 7.87811 19.1633 7.7799L19.6031 7.5L19.1633 7.2201C19.009 7.12189 18.8781 6.99101 18.7799 6.83669L18.5 6.39689Z"
    fill="currentColor" />
</svg>