<svg viewBox="0 0 24 24" fill="none" xmlns="http://www.w3.org/2000/svg">
  <path fill-rule="evenodd" clip-rule="evenodd"
    d="M12 3.75C7.44365 3.75 3.75 7.44365 3.75 12C3.75 16.5563 7.44365 20.25 12 20.25C16.5563 20.25 20.25 16.5563 20.25 12C20.25 7.44365 16.5563 3.75 12 3.75ZM2.25 12C2.25 6.61522 6.61522 2.25 12 2.25C17.3848 2.25 21.75 6.61522 21.75 12C21.75 17.3848 17.3848 21.75 12 21.75C6.61522 21.75 2.25 17.3848 2.25 12Z"
    fill="currentColor" />
  <path fill-rule="evenodd" clip-rule="evenodd"
    d="M7.34074 10.2211C6.69361 8.4286 8.42859 6.69361 10.2211 7.34074L15.657 9.30321C17.6467 10.0216 17.6354 12.8395 15.64 13.5419L14.4272 13.9688C14.2128 14.0442 14.0442 14.2128 13.9688 14.4272L13.2613 14.1782L13.9688 14.4272L13.5419 15.64C12.8395 17.6354 10.0216 17.6467 9.30321 15.657L7.34074 10.2211ZM9.71172 8.75161C9.11423 8.5359 8.5359 9.11423 8.75161 9.71172L10.7141 15.1476C10.9535 15.8109 11.8929 15.8071 12.127 15.1419L12.5538 13.9292C12.7802 13.286 13.286 12.7802 13.9292 12.5538L14.1782 13.2613L13.9292 12.5538L15.1419 12.127C15.8071 11.8929 15.8109 10.9535 15.1476 10.7141L9.71172 8.75161Z"
    fill="currentColor" />
</svg>