<svg viewBox="0 0 24 24" fill="none" xmlns="http://www.w3.org/2000/svg">
  <path fill-rule="evenodd" clip-rule="evenodd"
    d="M5.23447 8.58824C5.23447 5.68878 7.58281 2.25 12 2.25C16.433 2.25 18.6723 5.70589 18.6723 8.58824V11.1512C18.6723 11.428 18.7464 11.6998 18.887 11.9383L19.1576 12.3973C20.5525 14.7639 18.8464 17.75 16.0993 17.75H7.82557C5.09962 17.75 3.39079 14.805 4.74351 12.4383L5.03016 11.9368C5.16405 11.7026 5.23447 11.4375 5.23447 11.1677V8.58824ZM12 3.75C8.50553 3.75 6.73447 6.41967 6.73447 8.58824V11.1677C6.73447 11.6986 6.59589 12.2203 6.33244 12.6812L6.04579 13.1827C5.26464 14.5494 6.25143 16.25 7.82557 16.25H16.0993C17.6857 16.25 18.6709 14.5256 17.8654 13.159L17.5948 12.7C17.3182 12.2307 17.1723 11.6959 17.1723 11.1512V8.58824C17.1723 6.40255 15.4787 3.75 12 3.75Z"
    fill="currentColor" />
  <path fill-rule="evenodd" clip-rule="evenodd"
    d="M9.25 19.5C9.25 19.0858 9.58579 18.75 10 18.75H14C14.4142 18.75 14.75 19.0858 14.75 19.5C14.75 19.9142 14.4142 20.25 14 20.25H10C9.58579 20.25 9.25 19.9142 9.25 19.5Z"
    fill="currentColor" />
</svg>