<svg viewBox="0 0 24 24" fill="none" xmlns="http://www.w3.org/2000/svg">
  <path fill-rule="evenodd" clip-rule="evenodd"
    d="M5.23447 8.58824C5.23447 5.68878 7.58281 2.25 12 2.25C16.433 2.25 18.6723 5.70589 18.6723 8.58824V11.1512C18.6723 11.428 18.7464 11.6998 18.887 11.9383L19.1576 12.3973C20.5525 14.7639 18.8464 17.75 16.0993 17.75H7.82557C5.09962 17.75 3.39079 14.805 4.74351 12.4383L5.03016 11.9368C5.16405 11.7026 5.23447 11.4375 5.23447 11.1677V8.58824ZM12 3.75C8.50553 3.75 6.73447 6.41967 6.73447 8.58824V11.1677C6.73447 11.6986 6.59589 12.2203 6.33244 12.6812L6.04579 13.1827C5.26464 14.5494 6.25143 16.25 7.82557 16.25H16.0993C17.6857 16.25 18.6709 14.5256 17.8654 13.159L17.5948 12.7C17.3182 12.2307 17.1723 11.6959 17.1723 11.1512V8.58824C17.1723 6.40255 15.4787 3.75 12 3.75Z"
    fill="currentColor" />
  <path fill-rule="evenodd" clip-rule="evenodd"
    d="M9.32916 18.6646C9.5144 18.2941 9.96491 18.1439 10.3354 18.3292C11.3833 18.8531 12.6167 18.8531 13.6646 18.3292C14.0351 18.1439 14.4856 18.2941 14.6708 18.6646C14.856 19.0351 14.7059 19.4856 14.3354 19.6708C12.8652 20.4059 11.1347 20.4059 9.66457 19.6708C9.29409 19.4856 9.14392 19.0351 9.32916 18.6646Z"
    fill="currentColor" />
  <path fill-rule="evenodd" clip-rule="evenodd"
    d="M12 5.25C12.4142 5.25 12.75 5.58579 12.75 6V8C12.75 8.41421 12.4142 8.75 12 8.75C11.5858 8.75 11.25 8.41421 11.25 8V6C11.25 5.58579 11.5858 5.25 12 5.25Z"
    fill="currentColor" />
</svg>