<svg viewBox="0 0 24 24" fill="none" xmlns="http://www.w3.org/2000/svg">
  <path fill-rule="evenodd" clip-rule="evenodd"
    d="M12 3.75C7.44365 3.75 3.75 7.44365 3.75 12C3.75 16.5563 7.44365 20.25 12 20.25C16.5563 20.25 20.25 16.5563 20.25 12C20.25 7.44365 16.5563 3.75 12 3.75ZM2.25 12C2.25 6.61522 6.61522 2.25 12 2.25C17.3848 2.25 21.75 6.61522 21.75 12C21.75 17.3848 17.3848 21.75 12 21.75C6.61522 21.75 2.25 17.3848 2.25 12Z"
    fill="currentColor" />
  <path fill-rule="evenodd" clip-rule="evenodd"
    d="M11.5398 10.0423C11.0417 9.75049 10.4144 10.1074 10.4107 10.6847L10.3943 13.2827C10.3907 13.8601 11.0134 14.2249 11.5152 13.9394L13.7733 12.6546C14.2752 12.3691 14.2797 11.6474 13.7816 11.3556L11.5398 10.0423ZM8.91078 10.6752C8.92174 8.9432 10.8036 7.87256 12.298 8.74806L14.5398 10.0613C16.0343 10.9368 16.0206 13.1018 14.5151 13.9584L12.2569 15.2431C10.7515 16.0996 8.88337 15.0053 8.89434 13.2732L8.91078 10.6752Z"
    fill="currentColor" />
</svg>