<svg viewBox="0 0 24 24" fill="none" xmlns="http://www.w3.org/2000/svg">
  <path fill-rule="evenodd" clip-rule="evenodd"
    d="M8.22651 5.30166C9.72288 4.71551 11.8565 4.94929 14.8996 6.86533C16.2296 7.70273 17.2484 8.44356 17.96 9.14785C18.6716 9.85215 19.1417 10.5843 19.2443 11.4072L18.5 11.5L19.2443 11.4072C19.2634 11.5608 19.2692 11.801 19.2692 12C19.2692 12.199 19.2634 12.4392 19.2443 12.5928L18.5 12.5L19.2443 12.5928C19.1417 13.4157 18.6716 14.1479 17.96 14.8521C17.2484 15.5564 16.2296 16.2973 14.8996 17.1347C11.8565 19.0507 9.72288 19.2845 8.22651 18.6983C7.96166 18.5946 7.71158 18.4565 7.48268 18.2877L7.92788 17.6841L7.48268 18.2877C6.80149 17.7852 6.3677 17.0682 6.10676 16.0569C5.85234 15.071 5.75006 13.7598 5.75006 12C5.75006 10.2401 5.85235 8.92901 6.10676 7.94304C6.3677 6.93181 6.8015 6.21477 7.48268 5.71231C7.71159 5.54347 7.96167 5.40541 8.22651 5.30166L8.50006 6L8.22651 5.30166ZM14.1004 8.13468C11.2378 6.33229 9.62826 6.36355 8.77361 6.69833C8.631 6.75419 8.49634 6.82853 8.37309 6.91945C8.03828 7.16641 7.75816 7.54671 7.55919 8.31782C7.35369 9.1142 7.25006 10.2704 7.25006 12C7.25006 13.7296 7.35369 14.8858 7.55919 15.6822C7.75816 16.4533 8.03828 16.8336 8.37308 17.0805C8.49634 17.1715 8.631 17.2458 8.77361 17.3017L8.50481 17.9879L8.77361 17.3017C9.62826 17.6364 11.2378 17.6677 14.1004 15.8653C15.4033 15.045 16.3113 14.3735 16.9048 13.786C17.4984 13.1986 17.7119 12.7596 17.7558 12.4072C17.7623 12.3554 17.7692 12.1983 17.7692 12C17.7692 11.8017 17.7623 11.6446 17.7558 11.5928C17.7119 11.2404 17.4984 10.8014 16.9048 10.214C16.3113 9.62651 15.4033 8.95498 14.1004 8.13468Z"
    fill="currentColor" />
</svg>