<svg viewBox="0 0 24 24" fill="none" xmlns="http://www.w3.org/2000/svg">
  <path fill-rule="evenodd" clip-rule="evenodd"
    d="M11.4915 8.84417C12.1559 7.79952 13.6692 7.76693 14.378 8.782L17.3072 12.9772C18.7116 14.9885 18.501 17.7114 16.8042 19.4829C14.8383 21.5354 11.5808 21.6056 9.52827 19.6397C7.75676 17.9428 7.4292 15.2315 8.74563 13.1616L11.4915 8.84417ZM13.1481 9.64073C13.0521 9.50327 12.8472 9.50769 12.7572 9.64915L10.0113 13.9666C9.07862 15.4332 9.31071 17.3542 10.5658 18.5564C12.0201 19.9493 14.3281 19.8996 15.721 18.4454C16.9232 17.1902 17.0724 15.261 16.0774 13.836L13.1481 9.64073Z"
    fill="currentColor" />
  <path fill-rule="evenodd" clip-rule="evenodd"
    d="M16.8136 4.13659C17.2639 3.42855 18.2896 3.40646 18.77 4.09446L20.0366 5.90856C20.7601 6.94465 20.6516 8.34733 19.7775 9.25991C18.7648 10.3172 17.0867 10.3534 16.0294 9.34064C15.1168 8.46655 14.9481 7.06983 15.6262 6.00356L16.8136 4.13659ZM17.8184 5.35177L16.8919 6.80854C16.5975 7.27148 16.6708 7.87789 17.067 8.25739C17.526 8.69708 18.2546 8.68139 18.6943 8.22234C19.0738 7.82613 19.1209 7.21713 18.8068 6.7673L17.8184 5.35177Z"
    fill="currentColor" />
  <path fill-rule="evenodd" clip-rule="evenodd"
    d="M4.78003 3.44734C5.32435 2.59148 6.5642 2.56477 7.14487 3.39641L9.1417 6.25624C10.1642 7.72061 10.0109 9.7031 8.77548 10.9929C7.34413 12.4873 4.97238 12.5383 3.47801 11.107C2.18822 9.87159 1.94972 7.89754 2.90819 6.39051L4.78003 3.44734ZM5.98248 4.35178L4.17389 7.19549C3.59914 8.09918 3.74216 9.28293 4.51559 10.0237C5.41169 10.8821 6.83392 10.8514 7.69223 9.95532C8.43304 9.18189 8.52495 7.99309 7.91183 7.11498L5.98248 4.35178Z"
    fill="currentColor" />
</svg>