<svg viewBox="0 0 200 200" fill="none" xmlns="http://www.w3.org/2000/svg">
<path d="M177.814 57.4238C182.316 57.4238 186 61.1918 186 63.8678V137.7C186 144.232 182.316 148 177.814 148H33.9937C31.3637 148 29.0137 146.716 27.5137 144.73" fill="url(#paint0_linear_7680_7462)"/>
<path d="M177.814 57.4238C182.316 57.4238 186 61.1918 186 63.8678V137.7C186 144.232 182.316 148 177.814 148H33.9937C31.3637 148 29.0137 146.716 27.5137 144.73" stroke="black" stroke-linecap="round" stroke-linejoin="round"/>
<path d="M167.314 138H24.688C19.91 138 16 134.002 16 129.114V56.886C16 51.998 19.91 48 24.688 48H167.314C172.092 48 176.002 51.998 176.002 56.886V129.116C176.002 134.004 172.092 138 167.314 138Z" fill="url(#paint1_linear_7680_7462)" stroke="black" stroke-linecap="round" stroke-linejoin="round"/>
<mask id="path-4-inside-1_7680_7462" fill="white">
<path d="M125.002 60H36.268C36.266 65.678 32.118 70.28 27.002 70.282V113.716C32.12 113.716 36.27 118.322 36.27 124.002H155.732C155.732 118.32 159.882 113.716 165 113.716V70.282C159.882 70.282 155.732 65.68 155.73 60H145"/>
</mask>
<path d="M125.002 60H36.268C36.266 65.678 32.118 70.28 27.002 70.282V113.716C32.12 113.716 36.27 118.322 36.27 124.002H155.732C155.732 118.32 159.882 113.716 165 113.716V70.282C159.882 70.282 155.732 65.68 155.73 60H145" fill="#F2F2F2"/>
<path d="M36.268 60V59H35.2683L35.268 59.9996L36.268 60ZM27.002 70.282L27.0016 69.282L26.002 69.2824V70.282H27.002ZM27.002 113.716H26.002V114.716H27.002V113.716ZM36.27 124.002H35.27V125.002H36.27V124.002ZM155.732 124.002V125.002H156.732V124.002H155.732ZM165 113.716V114.716H166V113.716H165ZM165 70.282H166V69.282H165V70.282ZM155.73 60L156.73 59.9996L156.73 59H155.73V60ZM125.002 59H36.268V61H125.002V59ZM35.268 59.9996C35.2661 65.2259 31.4704 69.2803 27.0016 69.282L27.0023 71.282C32.7655 71.2797 37.2658 66.1301 37.268 60.0004L35.268 59.9996ZM26.002 70.282V113.716H28.002V70.282H26.002ZM27.002 114.716C31.4722 114.716 35.27 118.774 35.27 124.002H37.27C37.27 117.87 32.7677 112.716 27.002 112.716V114.716ZM36.27 125.002H155.732V123.002H36.27V125.002ZM156.732 124.002C156.732 118.772 160.53 114.716 165 114.716V112.716C159.234 112.716 154.732 117.868 154.732 124.002H156.732ZM166 113.716V70.282H164V113.716H166ZM165 69.282C160.529 69.282 156.732 65.2278 156.73 59.9996L154.73 60.0004C154.732 66.1322 159.235 71.282 165 71.282V69.282ZM155.73 59H145V61H155.73V59Z" fill="black" mask="url(#path-4-inside-1_7680_7462)"/>
<path d="M96.002 73C85.508 73 77.002 81.506 77.002 92C77.002 102.494 85.508 111 96.002 111C106.496 111 115.002 102.494 115.002 92C115.002 81.506 106.496 73 96.002 73Z" fill="#794BF5" stroke="black" stroke-linecap="round" stroke-linejoin="round"/>
<path d="M59.002 85C55.688 85 53.002 87.686 53.002 91C53.002 94.314 55.688 97 59.002 97C62.316 97 65.002 94.314 65.002 91C65.002 87.686 62.316 85 59.002 85Z" fill="#794BF5" stroke="black" stroke-linecap="round" stroke-linejoin="round"/>
<path d="M132.309 85.4551C128.995 85.4551 126.309 88.1411 126.309 91.4551C126.309 94.7691 128.995 97.4551 132.309 97.4551C135.623 97.4551 138.309 94.7691 138.309 91.4551C138.309 88.1411 135.623 85.4551 132.309 85.4551Z" fill="#794BF5" stroke="black" stroke-linecap="round" stroke-linejoin="round"/>
<path d="M84.5325 173.409L100.826 191.415C100.972 191.575 101.141 191.685 101.317 191.773C101.381 191.807 101.445 191.835 101.513 191.865C101.627 191.905 101.745 191.927 101.863 191.943C101.951 191.959 102.028 192.001 102.118 192.001C102.212 192.001 102.295 191.957 102.387 191.943C102.395 191.941 102.4 191.943 102.408 191.941C102.968 192.041 103.557 191.889 103.987 191.419L119.469 173.411C120.179 172.635 120.179 171.361 119.469 170.585C118.759 169.809 117.599 169.809 116.889 170.585L104.001 184.001L103.945 124.041C103.945 122.943 103.123 122.043 102.121 122.043C101.117 122.043 100.297 122.943 99.9445 124.041L100.001 184.001L87.1125 170.583C86.4025 169.807 85.2425 169.807 84.5325 170.583C83.8225 171.359 83.8225 172.633 84.5325 173.409Z" fill="url(#paint2_linear_7680_7462)" stroke="black" stroke-linecap="round" stroke-linejoin="round"/>
<defs>
<linearGradient id="paint0_linear_7680_7462" x1="115.066" y1="115.138" x2="127.696" y2="171.844" gradientUnits="userSpaceOnUse">
<stop stop-color="white"/>
<stop offset="1" stop-color="#B3B3B3"/>
</linearGradient>
<linearGradient id="paint1_linear_7680_7462" x1="97.6538" y1="82.6809" x2="96.1516" y2="129.4" gradientUnits="userSpaceOnUse">
<stop stop-color="#373FEF"/>
<stop offset="1" stop-color="#EA5DFF"/>
</linearGradient>
<linearGradient id="paint2_linear_7680_7462" x1="102.372" y1="149.001" x2="98.3836" y2="184.91" gradientUnits="userSpaceOnUse">
<stop stop-color="#373FEF"/>
<stop offset="1" stop-color="#EA5DFF"/>
</linearGradient>
</defs>
</svg>
