<svg viewBox="0 0 24 24" fill="none" xmlns="http://www.w3.org/2000/svg">
  <path fill-rule="evenodd" clip-rule="evenodd"
    d="M13.3788 4.4036C14.3747 3.40776 15.9892 3.40776 16.9851 4.4036L20.1432 7.56178C21.1127 8.53128 21.1421 10.0939 20.2096 11.0991L12.1435 19.7948C11.6231 20.3558 10.8925 20.6746 10.1273 20.6746H7.88758C7.11055 20.6746 6.36979 20.3459 5.84844 19.7697L3.75388 17.4549C2.84215 16.4473 2.88072 14.9017 3.84159 13.9408L13.3788 4.4036ZM15.9244 5.46426C15.5144 5.05421 14.8495 5.05421 14.4395 5.46426L4.90225 15.0015C4.5066 15.3971 4.49072 16.0335 4.86614 16.4484L6.9607 18.7633C7.19768 19.0252 7.53439 19.1746 7.88758 19.1746L10.1273 19.1746C10.4751 19.1746 10.8072 19.0297 11.0437 18.7747L19.1099 10.079C19.4939 9.66506 19.4818 9.02164 19.0826 8.62244L15.9244 5.46426Z"
    fill="currentColor" />
  <path fill-rule="evenodd" clip-rule="evenodd"
    d="M7.46967 11.4697C7.76256 11.1768 8.23744 11.1768 8.53033 11.4697L13.5303 16.4697C13.8232 16.7626 13.8232 17.2374 13.5303 17.5303C13.2374 17.8232 12.7626 17.8232 12.4697 17.5303L7.46967 12.5303C7.17678 12.2374 7.17678 11.7626 7.46967 11.4697Z"
    fill="currentColor" />
  <path fill-rule="evenodd" clip-rule="evenodd"
    d="M14.9697 6.96967C15.2626 6.67678 15.7374 6.67678 16.0303 6.96967L17.0303 7.96967C17.3232 8.26256 17.3232 8.73744 17.0303 9.03033C16.7374 9.32322 16.2626 9.32322 15.9697 9.03033L14.9697 8.03033C14.6768 7.73744 14.6768 7.26256 14.9697 6.96967Z"
    fill="currentColor" />
</svg>