<svg viewBox="0 0 24 24" fill="none" xmlns="http://www.w3.org/2000/svg">
  <path fill-rule="evenodd" clip-rule="evenodd"
    d="M12 3.75C7.44365 3.75 3.75 7.44365 3.75 12C3.75 16.5563 7.44365 20.25 12 20.25C16.5563 20.25 20.25 16.5563 20.25 12C20.25 7.44365 16.5563 3.75 12 3.75ZM2.25 12C2.25 6.61522 6.61522 2.25 12 2.25C17.3848 2.25 21.75 6.61522 21.75 12C21.75 17.3848 17.3848 21.75 12 21.75C6.61522 21.75 2.25 17.3848 2.25 12Z"
    fill="currentColor" />
  <path fill-rule="evenodd" clip-rule="evenodd"
    d="M14.9429 17.1688C15.22 17.4763 15.694 17.5011 16.0017 17.2241C16.3096 16.947 16.3346 16.4728 16.0575 16.1649L15.5 16.6667C16.0575 16.1649 16.0576 16.1651 16.0575 16.1649L16.0559 16.1632L16.0537 16.1608L16.0478 16.1543L16.0291 16.1343C16.0138 16.1179 15.9926 16.0957 15.9658 16.0685C15.9122 16.0142 15.8359 15.9395 15.7389 15.8513C15.5455 15.6755 15.266 15.4426 14.916 15.2093C14.2259 14.7492 13.2051 14.25 12 14.25C10.7949 14.25 9.77414 14.7492 9.08397 15.2093C8.73402 15.4426 8.45451 15.6755 8.26112 15.8513C8.16409 15.9395 8.08781 16.0142 8.03423 16.0685C8.00741 16.0957 7.98621 16.1179 7.97086 16.1343L7.95224 16.1543L7.94626 16.1608L7.94411 16.1632L7.94325 16.1641C7.94308 16.1643 7.94253 16.1649 8.5 16.6667L7.94253 16.1649C7.66543 16.4728 7.69039 16.947 7.99828 17.2241C8.30604 17.5011 8.78002 17.4763 9.05716 17.1687L9.05649 17.1695C9.05633 17.1697 9.05595 17.1701 9.05649 17.1695L9.0638 17.1616C9.07141 17.1535 9.08438 17.1399 9.10249 17.1215C9.13875 17.0848 9.19528 17.0292 9.27013 16.9612C9.42049 16.8245 9.64098 16.6407 9.91602 16.4574C10.4759 16.0841 11.2051 15.75 12 15.75C12.7949 15.75 13.5241 16.0841 14.084 16.4574C14.359 16.6407 14.5795 16.8245 14.7299 16.9612C14.8047 17.0292 14.8612 17.0848 14.8975 17.1215C14.9156 17.1399 14.9286 17.1535 14.9362 17.1616L14.9429 17.1688Z"
    fill="currentColor" />
  <path
    d="M16 10C16 10.5523 15.5523 11 15 11C14.4477 11 14 10.5523 14 10C14 9.44772 14.4477 9 15 9C15.5523 9 16 9.44772 16 10Z"
    fill="currentColor" />
  <path
    d="M10 10C10 10.5523 9.55228 11 9 11C8.44772 11 8 10.5523 8 10C8 9.44772 8.44772 9 9 9C9.55228 9 10 9.44772 10 10Z"
    fill="currentColor" />
</svg>