<svg viewBox="0 0 24 24" fill="none" xmlns="http://www.w3.org/2000/svg">
  <path fill-rule="evenodd" clip-rule="evenodd"
    d="M10.1085 3.17738C11.2875 2.5343 12.7125 2.5343 13.8915 3.17738L18.3168 5.59122C19.2003 6.07311 19.75 6.99909 19.75 8.00544V12.7513C19.75 15.4266 18.3702 17.9128 16.0998 19.3281C13.5904 20.8923 10.4096 20.8923 7.90019 19.3281C5.62985 17.9128 4.25 15.4266 4.25 12.7513V8.00544C4.25 6.99909 4.79969 6.07311 5.68316 5.59122L6.0423 6.24964L5.68316 5.59122L10.1085 3.17738ZM13.1732 4.49422C12.4419 4.09535 11.5581 4.09535 10.8268 4.49422L6.40143 6.90807C5.99986 7.12711 5.75 7.54801 5.75 8.00544V12.7513C5.75 14.9088 6.86278 16.9138 8.6937 18.0551C10.7174 19.3167 13.2826 19.3167 15.3063 18.0551C17.1372 16.9138 18.25 14.9088 18.25 12.7513V8.00544C18.25 7.54801 18.0001 7.12711 17.5986 6.90807L13.1732 4.49422Z"
    fill="currentColor" />
  <path fill-rule="evenodd" clip-rule="evenodd"
    d="M12 8.75C11.3096 8.75 10.75 9.30964 10.75 10C10.75 10.6904 11.3096 11.25 12 11.25C12.6904 11.25 13.25 10.6904 13.25 10C13.25 9.30964 12.6904 8.75 12 8.75ZM9.25 10C9.25 8.48122 10.4812 7.25 12 7.25C13.5188 7.25 14.75 8.48122 14.75 10C14.75 11.5188 13.5188 12.75 12 12.75C10.4812 12.75 9.25 11.5188 9.25 10Z"
    fill="currentColor" />
  <path fill-rule="evenodd" clip-rule="evenodd"
    d="M12 11.25C12.4142 11.25 12.75 11.5858 12.75 12V16C12.75 16.4142 12.4142 16.75 12 16.75C11.5858 16.75 11.25 16.4142 11.25 16V12C11.25 11.5858 11.5858 11.25 12 11.25Z"
    fill="currentColor" />
</svg>