<svg viewBox="0 0 24 24" fill="none" xmlns="http://www.w3.org/2000/svg">
  <path fill-rule="evenodd" clip-rule="evenodd"
    d="M18.0522 7.11124C18.404 6.05587 17.4 5.05182 16.3446 5.40361L6.47714 8.69276C5.2995 9.08531 5.23128 10.7253 6.37226 11.2143L9.5432 12.5733C10.145 12.8312 10.6246 13.3108 10.8825 13.9126L12.2415 17.0836C12.7305 18.2245 14.3705 18.1563 14.7631 16.9787L18.0522 7.11124ZM15.8702 3.98059C18.0982 3.23792 20.2179 5.35757 19.4752 7.58558L16.1861 17.453C15.3574 19.9392 11.8951 20.0832 10.8628 17.6744L9.50381 14.5035C9.3976 14.2557 9.20014 14.0582 8.95232 13.952L5.78138 12.593C3.37265 11.5607 3.51665 8.09845 6.0028 7.26973L15.8702 3.98059Z"
    fill="currentColor" />
  <path fill-rule="evenodd" clip-rule="evenodd"
    d="M9.56396 13.7C9.27107 13.4071 9.27107 12.9322 9.56396 12.6393L13.8066 8.39671C14.0995 8.10381 14.5744 8.10381 14.8673 8.39671C15.1602 8.6896 15.1602 9.16447 14.8673 9.45737L10.6246 13.7C10.3317 13.9929 9.85685 13.9929 9.56396 13.7Z"
    fill="currentColor" />
</svg>