<svg viewBox="0 0 24 24" fill="none" xmlns="http://www.w3.org/2000/svg">
  <path fill-rule="evenodd" clip-rule="evenodd"
    d="M4.35499 8.40689C3.38172 5.97371 5.93175 3.62733 8.27571 4.79931L17.5788 9.45087C19.6794 10.5012 19.6794 13.4988 17.5788 14.5491L8.27571 19.2007C5.93175 20.3726 3.38172 18.0263 4.35499 15.5931L5.63625 12.3899L6.33261 12.6685L5.63625 12.3899C5.73638 12.1396 5.73638 11.8604 5.63625 11.61L4.35499 8.40689ZM7.60489 6.14095C6.4946 5.58581 5.28668 6.69724 5.74771 7.84981L7.02896 11.0529C7.27214 11.6609 7.27214 12.3391 7.02896 12.947L5.74771 16.1502C5.28668 17.3027 6.4946 18.4142 7.60489 17.859L16.908 13.2075C17.903 12.71 17.903 11.29 16.908 10.7925L7.60489 6.14095Z"
    fill="currentColor" />
  <path fill-rule="evenodd" clip-rule="evenodd"
    d="M6.25 12C6.25 11.5858 6.58579 11.25 7 11.25H13C13.4142 11.25 13.75 11.5858 13.75 12C13.75 12.4142 13.4142 12.75 13 12.75H7C6.58579 12.75 6.25 12.4142 6.25 12Z"
    fill="currentColor" />
</svg>