<svg viewBox="0 0 24 24" fill="none" xmlns="http://www.w3.org/2000/svg">
  <path fill-rule="evenodd" clip-rule="evenodd"
    d="M9.97145 4.4254C10.992 3.08561 13.008 3.08562 14.0285 4.42541L14.6965 5.30236C14.9001 5.56962 15.2193 5.72333 15.5552 5.71586L16.6573 5.69134C18.3411 5.65387 19.598 7.23007 19.1868 8.86329L18.9177 9.93232C18.8356 10.2581 18.9145 10.6035 19.1297 10.8614L19.8361 11.7078C20.9152 13.0009 20.4666 14.9664 18.9333 15.6632L17.9297 16.1193C17.6238 16.2583 17.4029 16.5352 17.3355 16.8644L17.1141 17.9443C16.776 19.5942 14.9596 20.4689 13.4588 19.7046L12.4765 19.2043C12.1771 19.0519 11.8229 19.0519 11.5235 19.2043L10.5412 19.7046C9.04038 20.4689 7.224 19.5942 6.88585 17.9443L6.66452 16.8644C6.59706 16.5352 6.37618 16.2583 6.07032 16.1193L5.06671 15.6632C3.53342 14.9664 3.08482 13.0009 4.16393 11.7078L4.87025 10.8614C5.08552 10.6035 5.16435 10.2581 5.08232 9.93232L4.81317 8.86329C4.40197 7.23007 5.65894 5.65387 7.34272 5.69134L8.44483 5.71586C8.78072 5.72333 9.09989 5.56962 9.30347 5.30236L9.97145 4.4254ZM12.8353 5.33432C12.4151 4.78264 11.5849 4.78264 11.1647 5.33432L10.4967 6.21128C10.0023 6.86035 9.22718 7.23364 8.41147 7.21549L7.30936 7.19097C6.61603 7.17554 6.09846 7.82456 6.26777 8.49706L6.53692 9.56609C6.73613 10.3573 6.54469 11.1961 6.02191 11.8225L5.31558 12.6689C4.87124 13.2013 5.05596 14.0107 5.68731 14.2976L6.69092 14.7537C7.43373 15.0913 7.97015 15.7639 8.13397 16.5632L8.35531 17.6431C8.49455 18.3225 9.24247 18.6827 9.86043 18.368L10.8428 17.8677C11.5698 17.4974 12.4302 17.4974 13.1572 17.8677L14.1396 18.368C14.7575 18.6827 15.5054 18.3225 15.6447 17.6431L15.866 16.5632C16.0298 15.7639 16.5663 15.0913 17.3091 14.7537L18.3127 14.2976C18.944 14.0107 19.1288 13.2013 18.6844 12.6689L17.9781 11.8225C17.4553 11.1961 17.2639 10.3573 17.4631 9.56609L17.7322 8.49707C17.9015 7.82456 17.384 7.17554 16.6906 7.19097L15.5885 7.21549C14.7728 7.23364 13.9977 6.86035 13.5033 6.21128L12.8353 5.33432Z"
    fill="currentColor" />
  <path fill-rule="evenodd" clip-rule="evenodd"
    d="M12 13.5C12.8284 13.5 13.5 12.8284 13.5 12C13.5 11.1716 12.8284 10.5 12 10.5C11.1716 10.5 10.5 11.1716 10.5 12C10.5 12.8284 11.1716 13.5 12 13.5ZM12 15C13.6569 15 15 13.6569 15 12C15 10.3431 13.6569 9 12 9C10.3431 9 9 10.3431 9 12C9 13.6569 10.3431 15 12 15Z"
    fill="currentColor" />
</svg>