<svg viewBox="0 0 24 24" fill="none" xmlns="http://www.w3.org/2000/svg">
  <path fill-rule="evenodd" clip-rule="evenodd"
    d="M10.375 4.07217C11.3806 3.49161 12.6195 3.49161 13.625 4.07217L18.0532 6.62879C19.0588 7.20935 19.6782 8.28226 19.6782 9.44337V14.5566C19.6782 15.7177 19.0588 16.7906 18.0532 17.3712L13.625 19.9278C12.6195 20.5084 11.3806 20.5084 10.375 19.9278L5.94681 17.3712C4.94125 16.7906 4.32181 15.7177 4.32181 14.5566V9.44337C4.32181 8.28226 4.94125 7.20935 5.94681 6.62879L10.375 4.07217ZM12.875 5.3712C12.3336 5.0586 11.6665 5.0586 11.125 5.3712L6.69681 7.92783C6.15536 8.24044 5.82181 8.81816 5.82181 9.44337V14.5566C5.82181 15.1818 6.15536 15.7596 6.69681 16.0722L11.125 18.6288C11.6665 18.9414 12.3336 18.9414 12.875 18.6288L17.3032 16.0722C17.8447 15.7596 18.1782 15.1818 18.1782 14.5566V9.44337C18.1782 8.81816 17.8447 8.24044 17.3032 7.92783L12.875 5.3712Z"
    fill="currentColor" />
  <path fill-rule="evenodd" clip-rule="evenodd"
    d="M12 13.5C12.8284 13.5 13.5 12.8284 13.5 12C13.5 11.1716 12.8284 10.5 12 10.5C11.1716 10.5 10.5 11.1716 10.5 12C10.5 12.8284 11.1716 13.5 12 13.5ZM12 15C13.6569 15 15 13.6569 15 12C15 10.3431 13.6569 9 12 9C10.3431 9 9 10.3431 9 12C9 13.6569 10.3431 15 12 15Z"
    fill="currentColor" />
</svg>