<svg viewBox="0 0 24 24" fill="none" xmlns="http://www.w3.org/2000/svg">
  <path fill-rule="evenodd" clip-rule="evenodd"
    d="M9.07026 5.39127C9.22317 4.16799 10.2631 3.25 11.4959 3.25H12.5042C13.737 3.25 14.7768 4.16799 14.9298 5.39127L14.9558 5.59964C14.9796 5.79035 15.1182 6.00449 15.3779 6.15482C15.6342 6.30322 15.8848 6.31607 16.0645 6.24024L16.2583 6.15847C17.3943 5.67921 18.7093 6.12081 19.3258 7.18854L19.8292 8.06049C20.446 9.12876 20.1707 10.4891 19.1872 11.2336L19.0201 11.3601C18.8652 11.4774 18.75 11.7028 18.75 12C18.75 12.2973 18.8652 12.5228 19.0202 12.6401L19.1871 12.7665C20.1706 13.511 20.4458 14.8713 19.8291 15.9395L19.3256 16.8115C18.7091 17.8793 17.3941 18.3209 16.2582 17.8416L16.0643 17.7598C15.8846 17.684 15.6341 17.6968 15.3778 17.8452C15.1182 17.9955 14.9796 18.2096 14.9558 18.4003L14.9298 18.6087C14.7768 19.832 13.737 20.75 12.5042 20.75H11.4959C10.2631 20.75 9.22317 19.832 9.07026 18.6087L9.04421 18.4004C9.02037 18.2096 8.8818 17.9955 8.62216 17.8452C8.36586 17.6968 8.11526 17.6839 7.93552 17.7598L7.74172 17.8415C6.60578 18.3208 5.29075 17.8792 4.6743 16.8115L4.17085 15.9395C3.55409 14.8712 3.82931 13.5109 4.81282 12.7664L5.24594 13.3385L4.81283 12.7664L4.9799 12.6399C5.1348 12.5226 5.25001 12.2972 5.25001 12C5.25001 11.7029 5.13484 11.4776 4.98001 11.3604L5.43268 10.7624L4.98001 11.3604L4.81276 11.2338C3.8292 10.4892 3.55396 9.1288 4.17076 8.06048L4.67413 7.18862C5.29058 6.12089 6.60563 5.67928 7.74158 6.15854L7.93534 6.24029C8.11512 6.31614 8.36576 6.30328 8.6221 6.15486C8.88178 6.0045 9.02038 5.79033 9.04422 5.59958L9.07026 5.39127ZM11.4959 4.75C11.0195 4.75 10.6178 5.10468 10.5587 5.57732L10.5326 5.78564C10.4379 6.54369 9.94151 7.1242 9.37371 7.45296C8.80171 7.78416 8.05438 7.91855 7.35226 7.62232L7.15849 7.54057C6.71954 7.35538 6.21138 7.52602 5.97317 7.93862L5.46979 8.81048C5.23124 9.22367 5.33769 9.74983 5.7181 10.0378L5.88535 10.1644C6.493 10.6244 6.75001 11.3408 6.75001 12C6.75001 12.6593 6.49298 13.3758 5.88524 13.8359L5.43257 13.2379L5.88524 13.8359L5.71816 13.9623C5.33781 14.2503 5.23138 14.7763 5.46989 15.1895L5.97334 16.0615C6.21154 16.474 6.71969 16.6447 7.15864 16.4595L7.35244 16.3777C8.05451 16.0815 8.80179 16.2159 9.37376 16.5471C9.94154 16.8758 10.4379 17.4563 10.5326 18.2143L10.5587 18.4227C10.6178 18.8953 11.0195 19.25 11.4959 19.25H12.5042C12.9805 19.25 13.3823 18.8953 13.4413 18.4227L13.4674 18.2142C13.5621 17.4563 14.0585 16.8758 14.6262 16.5471C15.1981 16.2159 15.9454 16.0816 16.6474 16.3778L16.8412 16.4596C17.2802 16.6448 17.7883 16.4741 18.0266 16.0615L18.53 15.1895C18.7685 14.7764 18.6621 14.2504 18.2818 13.9625L18.1149 13.8361C17.5071 13.376 17.25 12.6594 17.25 12C17.25 11.3407 17.507 10.6242 18.1148 10.1641L18.2819 10.0377C18.6622 9.74973 18.7687 9.22363 18.5301 8.81049L18.0267 7.93855C17.7885 7.52595 17.2803 7.3553 16.8414 7.5405L16.6476 7.62227C15.9455 7.91848 15.1982 7.7841 14.6263 7.45294C14.0585 7.12419 13.5621 6.54371 13.4674 5.7857L13.4413 5.57732C13.3823 5.10468 12.9805 4.75 12.5042 4.75H11.4959Z"
    fill="currentColor" />
  <path fill-rule="evenodd" clip-rule="evenodd"
    d="M12 13.5C12.8284 13.5 13.5 12.8284 13.5 12C13.5 11.1716 12.8284 10.5 12 10.5C11.1716 10.5 10.5 11.1716 10.5 12C10.5 12.8284 11.1716 13.5 12 13.5ZM12 15C13.6569 15 15 13.6569 15 12C15 10.3431 13.6569 9 12 9C10.3431 9 9 10.3431 9 12C9 13.6569 10.3431 15 12 15Z"
    fill="currentColor" />
</svg>