<svg viewBox="0 0 24 24" fill="none" xmlns="http://www.w3.org/2000/svg">
  <path fill-rule="evenodd" clip-rule="evenodd"
    d="M10.1085 3.1774C11.2875 2.53431 12.7125 2.53431 13.8915 3.1774L18.3168 5.59124C19.2003 6.07313 19.75 6.9991 19.75 8.00545V12.7513C19.75 15.4266 18.3702 17.9128 16.0998 19.3281C13.5904 20.8924 10.4096 20.8924 7.90019 19.3281C5.62985 17.9128 4.25 15.4266 4.25 12.7513V8.00545C4.25 6.99911 4.79969 6.07313 5.68316 5.59124L6.0423 6.24966L5.68316 5.59124L10.1085 3.1774ZM13.1732 4.49424C12.4419 4.09537 11.5581 4.09536 10.8268 4.49424L6.40143 6.90808C5.99986 7.12712 5.75 7.54802 5.75 8.00545V12.7513C5.75 14.9088 6.86278 16.9138 8.6937 18.0551C10.7174 19.3167 13.2826 19.3167 15.3063 18.0551C17.1372 16.9138 18.25 14.9088 18.25 12.7513V8.00545C18.25 7.54802 18.0001 7.12712 17.5986 6.90808L13.1732 4.49424Z"
    fill="currentColor" />
  <path fill-rule="evenodd" clip-rule="evenodd"
    d="M14.9339 9.56608C15.1735 9.80572 15.1735 10.1943 14.9339 10.4339L11.719 13.6488C11.4474 13.9204 11.0071 13.9204 10.7355 13.6488L9.56608 12.4794C9.32644 12.2397 9.32644 11.8512 9.56608 11.6115C9.80572 11.3719 10.1943 11.3719 10.4339 11.6115L11.2273 12.4049L14.0661 9.56608C14.3057 9.32644 14.6943 9.32644 14.9339 9.56608Z"
    fill="currentColor" />
</svg>