<svg viewBox="0 0 24 24" fill="none" xmlns="http://www.w3.org/2000/svg">
  <path fill-rule="evenodd" clip-rule="evenodd"
    d="M14.8687 6.43245C13.0307 5.7478 10.9693 5.7478 9.1313 6.43245C7.4543 7.05714 6.07243 8.03957 5.09561 9.31918C3.90636 10.877 3.90636 13.123 5.09561 14.6808C6.07243 15.9604 7.4543 16.9429 9.1313 17.5675C10.9693 18.2522 13.0307 18.2522 14.8687 17.5675C16.5457 16.9429 17.9276 15.9604 18.9044 14.6808C20.0936 13.123 20.0936 10.877 18.9044 9.31918C17.9276 8.03957 16.5457 7.05714 14.8687 6.43245ZM8.60769 5.02681C10.7834 4.21635 13.2166 4.21635 15.3923 5.02681C17.2992 5.73714 18.9267 6.87633 20.0967 8.409C21.6962 10.5043 21.6962 13.4957 20.0967 15.591C18.9267 17.1237 17.2992 18.2629 15.3923 18.9732C13.2166 19.7837 10.7834 19.7837 8.60769 18.9732C6.70077 18.2629 5.07332 17.1237 3.90331 15.591C2.3038 13.4957 2.3038 10.5043 3.90331 8.409C5.07332 6.87633 6.70078 5.73714 8.60769 5.02681Z"
    fill="currentColor" />
  <path fill-rule="evenodd" clip-rule="evenodd"
    d="M12 9.75C10.7574 9.75 9.75 10.7574 9.75 12C9.75 13.2426 10.7574 14.25 12 14.25C13.2426 14.25 14.25 13.2426 14.25 12C14.25 10.7574 13.2426 9.75 12 9.75ZM8.25 12C8.25 9.92893 9.92893 8.25 12 8.25C14.0711 8.25 15.75 9.92893 15.75 12C15.75 14.0711 14.0711 15.75 12 15.75C9.92893 15.75 8.25 14.0711 8.25 12Z"
    fill="currentColor" />
</svg>