<svg viewBox="0 0 24 24" fill="none" xmlns="http://www.w3.org/2000/svg">
  <path fill-rule="evenodd" clip-rule="evenodd"
    d="M7.25 6.7C7.25 4.79462 8.79462 3.25 10.7 3.25H13.3C15.2054 3.25 16.75 4.79462 16.75 6.7V18.3C16.75 20.2054 15.2054 21.75 13.3 21.75H10.7C8.79462 21.75 7.25 20.2054 7.25 18.3V6.7ZM10.7 4.75C9.62304 4.75 8.75 5.62304 8.75 6.7V18.3C8.75 19.377 9.62304 20.25 10.7 20.25H13.3C14.377 20.25 15.25 19.377 15.25 18.3V6.7C15.25 5.62304 14.377 4.75 13.3 4.75H10.7Z"
    fill="currentColor" />
  <path fill-rule="evenodd" clip-rule="evenodd"
    d="M15.2977 6.73666C15.4432 6.34882 15.8755 6.15231 16.2633 6.29775L18.6411 7.18943C19.9096 7.66512 20.75 8.87776 20.75 10.2325V14.7675C20.75 16.1222 19.9096 17.3349 18.6411 17.8106L16.2633 18.7022C15.8755 18.8477 15.4432 18.6512 15.2977 18.2633C15.1523 17.8755 15.3488 17.4432 15.7366 17.2978L18.1145 16.4061C18.7975 16.1499 19.25 15.497 19.25 14.7675V10.2325C19.25 9.50302 18.7975 8.85006 18.1145 8.59393L15.7366 7.70225C15.3488 7.55681 15.1523 7.1245 15.2977 6.73666Z"
    fill="currentColor" />
  <path fill-rule="evenodd" clip-rule="evenodd"
    d="M8.71151 6.76283C8.8425 7.15579 8.63013 7.58053 8.23717 7.71151L5.4466 8.6417L5.20943 7.93019L5.4466 8.6417C4.732 8.8799 4.25 9.54864 4.25 10.3019V14.6981C4.25 15.4514 4.732 16.1201 5.4466 16.3583L8.23717 17.2885C8.63013 17.4195 8.8425 17.8442 8.71151 18.2372C8.58053 18.6301 8.15579 18.8425 7.76283 18.7115L4.97226 17.7813C3.64515 17.339 2.75 16.097 2.75 14.6981V10.3019C2.75 8.903 3.64515 7.66105 4.97226 7.21868L7.76283 6.28849C8.15579 6.1575 8.58053 6.36987 8.71151 6.76283Z"
    fill="currentColor" />
</svg>