<svg viewBox="0 0 24 24" fill="none" xmlns="http://www.w3.org/2000/svg">
  <path fill-rule="evenodd" clip-rule="evenodd"
    d="M2.25 8.5C2.25 5.60051 4.60051 3.25 7.5 3.25H16.5C19.3995 3.25 21.75 5.60051 21.75 8.5V15.5C21.75 18.3995 19.3995 20.75 16.5 20.75H7.5C4.60051 20.75 2.25 18.3995 2.25 15.5V8.5ZM7.5 4.75C5.42893 4.75 3.75 6.42893 3.75 8.5V15.5C3.75 17.5711 5.42893 19.25 7.5 19.25H16.5C18.5711 19.25 20.25 17.5711 20.25 15.5V8.5C20.25 6.42893 18.5711 4.75 16.5 4.75H7.5Z"
    fill="currentColor" />
  <path fill-rule="evenodd" clip-rule="evenodd"
    d="M7.42382 8.35319C7.689 8.03499 8.16192 7.99199 8.48013 8.25717L10.5596 9.99004C11.394 10.6854 12.606 10.6854 13.4404 9.99004L15.5198 8.25717C15.8381 7.99199 16.311 8.03499 16.5762 8.35319C16.8413 8.6714 16.7983 9.14432 16.4801 9.4095L14.4007 11.1424C13.01 12.3013 10.99 12.3013 9.5993 11.1424L7.51985 9.4095C7.20164 9.14432 7.15865 8.6714 7.42382 8.35319Z"
    fill="currentColor" />
</svg>