<svg viewBox="0 0 24 24" fill="none" xmlns="http://www.w3.org/2000/svg">
  <path fill-rule="evenodd" clip-rule="evenodd"
    d="M14.3964 3.79717C15.0077 2.398 16.9924 2.39799 17.6036 3.79717L18.3547 5.51629C18.3799 5.57401 18.426 5.62008 18.4837 5.64529L20.2029 6.39637C21.602 7.00767 21.602 8.99234 20.2029 9.60363L18.4837 10.3547C18.426 10.3799 18.3799 10.426 18.3547 10.4837L17.6037 12.2028C16.9924 13.602 15.0077 13.602 14.3964 12.2028L13.6453 10.4837C13.6201 10.426 13.574 10.3799 13.5163 10.3547L11.7972 9.60363C10.398 8.99234 10.398 7.00767 11.7972 6.39637L13.5163 5.64529C13.574 5.62008 13.6201 5.57401 13.6453 5.51629L14.3964 3.79717ZM16.2291 4.3977C16.1418 4.19782 15.8583 4.19782 15.7709 4.3977L15.0198 6.11682C14.8433 6.52083 14.5208 6.84332 14.1168 7.01983L12.3977 7.77091C12.1978 7.85824 12.1978 8.14177 12.3977 8.22909L14.1168 8.98018C14.5208 9.15668 14.8433 9.47918 15.0198 9.88318L15.7709 11.6023C15.8583 11.8022 16.1418 11.8022 16.2291 11.6023L16.9802 9.88318C17.1567 9.47918 17.4792 9.15668 17.8832 8.98018L19.6023 8.22909C19.8022 8.14177 19.8022 7.85824 19.6023 7.77091L17.8832 7.01983C17.4792 6.84332 17.1567 6.52083 16.9802 6.11682L16.2291 4.3977Z"
    fill="currentColor" />
  <path fill-rule="evenodd" clip-rule="evenodd"
    d="M5.98802 9.58742C6.56439 8.2682 8.43565 8.2682 9.01201 9.58742L9.41433 10.5083C9.42946 10.5429 9.45711 10.5706 9.49174 10.5857L10.4126 10.988C11.7318 11.5644 11.7318 13.4356 10.4126 14.012L9.49174 14.4143C9.45711 14.4294 9.42946 14.4571 9.41433 14.4917L9.01201 15.4126C8.43565 16.7318 6.56439 16.7318 5.98802 15.4126L5.5857 14.4917C5.57057 14.4571 5.54293 14.4294 5.5083 14.4143L4.58744 14.012C3.26822 13.4356 3.26822 11.5644 4.58744 10.988L5.5083 10.5857C5.54293 10.5706 5.57057 10.5429 5.5857 10.5083L5.98802 9.58742ZM7.41716 10.12C7.39973 10.1309 7.37955 10.1491 7.36256 10.188L6.96024 11.1088C6.79382 11.4897 6.48975 11.7938 6.10883 11.9602L5.18797 12.3625C5.14909 12.3795 5.13087 12.3997 5.12005 12.4171C5.1072 12.4378 5.09802 12.4666 5.09802 12.5C5.09802 12.5334 5.1072 12.5622 5.12005 12.5829C5.13087 12.6003 5.14909 12.6205 5.18797 12.6375L6.10883 13.0398C6.48975 13.2062 6.79382 13.5103 6.96024 13.8912L7.36256 14.8121C7.37955 14.8509 7.39973 14.8691 7.41716 14.88C7.43784 14.8928 7.46658 14.902 7.50002 14.902C7.53346 14.902 7.56219 14.8928 7.58287 14.88C7.6003 14.8691 7.62048 14.8509 7.63747 14.8121L8.03979 13.8912C8.20622 13.5103 8.51028 13.2062 8.8912 13.0398L9.81207 12.6375C9.85095 12.6205 9.86916 12.6003 9.87999 12.5829C9.89283 12.5622 9.90201 12.5334 9.90201 12.5C9.90201 12.4666 9.89283 12.4378 9.87999 12.4171C9.86916 12.3997 9.85095 12.3795 9.81207 12.3625L8.8912 11.9602C8.51028 11.7938 8.20622 11.4897 8.03979 11.1088L7.63747 10.188C7.62048 10.1491 7.6003 10.1309 7.58287 10.12C7.56219 10.1072 7.53346 10.098 7.50002 10.098C7.46658 10.098 7.43784 10.1072 7.41716 10.12Z"
    fill="currentColor" />
  <path fill-rule="evenodd" clip-rule="evenodd"
    d="M12.9455 15.2601C13.4367 14.4883 14.5634 14.4883 15.0546 15.2601L15.71 16.29L16.7399 16.9454C17.5117 17.4366 17.5117 18.5634 16.7399 19.0546L15.71 19.71L15.0546 20.7399C14.5634 21.5117 13.4367 21.5117 12.9455 20.7399L12.29 19.71L11.2601 19.0546C10.4883 18.5634 10.4883 17.4366 11.2601 16.9454L12.29 16.29L12.9455 15.2601ZM14 16.3969L13.5257 17.1422C13.4275 17.2966 13.2966 17.4274 13.1422 17.5257L12.3969 18L13.1422 18.4743C13.2966 18.5726 13.4275 18.7034 13.5257 18.8578L14 19.6031L14.4744 18.8578C14.5726 18.7034 14.7035 18.5726 14.8578 18.4743L15.6031 18L14.8578 17.5257C14.7035 17.4274 14.5726 17.2966 14.4744 17.1422L14 16.3969Z"
    fill="currentColor" />
</svg>