<svg viewBox="0 0 24 24" fill="none" xmlns="http://www.w3.org/2000/svg">
  <path fill-rule="evenodd" clip-rule="evenodd"
    d="M10.0223 4.43415C11.001 3.09558 12.999 3.09558 13.9777 4.43415L15.5626 6.60172C15.6798 6.76208 15.8444 6.88165 16.0332 6.94361L18.5844 7.7811C20.1599 8.29829 20.7773 10.1985 19.8067 11.543L18.235 13.7201C18.1187 13.8811 18.0558 14.0746 18.0552 14.2733L18.0471 16.9584C18.0421 18.6166 16.4257 19.791 14.8471 19.2834L12.2908 18.4613C12.1017 18.4005 11.8983 18.4005 11.7092 18.4613L9.15291 19.2834C7.5743 19.791 5.95791 18.6166 5.95289 16.9584L5.94476 14.2733C5.94416 14.0746 5.8813 13.8811 5.76502 13.7201L4.1933 11.5429C3.22268 10.1985 3.84009 8.29829 5.4156 7.7811L7.96683 6.94361C8.15557 6.88165 8.32014 6.76208 8.4374 6.60172L10.0223 4.43415ZM12.7669 5.3195C12.3874 4.80046 11.6126 4.80046 11.2331 5.3195L9.64825 7.48706C9.34586 7.90063 8.92143 8.20899 8.43467 8.36878L5.88344 9.20627C5.27253 9.40682 5.03313 10.1436 5.40949 10.6649L6.98121 12.8421C7.28109 13.2575 7.4432 13.7564 7.44475 14.2687L7.45289 16.9539C7.45483 17.5969 8.0816 18.0522 8.69371 17.8554L11.25 17.0334C11.7377 16.8765 12.2623 16.8765 12.75 17.0334L15.3063 17.8554C15.9184 18.0522 16.5452 17.5969 16.5471 16.9539L16.5552 14.2687C16.5568 13.7564 16.7189 13.2575 17.0188 12.8421L18.5905 10.665C18.9669 10.1436 18.7275 9.40682 18.1166 9.20627L15.5653 8.36878C15.0786 8.20899 14.6541 7.90063 14.3517 7.48706L12.7669 5.3195Z"
    fill="currentColor" />
</svg>