<svg viewBox="0 0 24 24" fill="none" xmlns="http://www.w3.org/2000/svg">
  <path fill-rule="evenodd" clip-rule="evenodd"
    d="M10.3048 5.00691C10.951 3.52779 13.0491 3.52779 13.6953 5.00691L15.2512 8.56821C15.2865 8.64902 15.351 8.71352 15.4318 8.74882L18.9931 10.3047C20.4722 10.951 20.4722 13.049 18.9931 13.6953L15.4318 15.2512C15.351 15.2865 15.2865 15.351 15.2512 15.4318L13.6953 18.9931C13.0491 20.4722 10.951 20.4722 10.3048 18.9931L8.74883 15.4318C8.71353 15.351 8.64903 15.2865 8.56823 15.2512L5.00693 13.6953C3.5278 13.049 3.5278 10.951 5.00693 10.3047L8.56823 8.74882C8.64903 8.71352 8.71353 8.64902 8.74883 8.56821L10.3048 5.00691ZM12.3207 5.60744C12.1985 5.32761 11.8016 5.32761 11.6793 5.60744L10.1234 9.16875C9.93678 9.59584 9.59585 9.93676 9.16876 10.1234L5.60746 11.6793C5.32762 11.8015 5.32762 12.1985 5.60746 12.3207L9.16876 13.8767C9.59585 14.0633 9.93678 14.4042 10.1234 14.8313L11.6793 18.3926C11.8016 18.6724 12.1985 18.6724 12.3207 18.3926L13.8767 14.8313C14.0633 14.4042 14.4042 14.0632 14.8313 13.8767L18.3926 12.3207C18.6724 12.1985 18.6724 11.8015 18.3926 11.6793L14.8313 10.1234C14.4042 9.93676 14.0633 9.59584 13.8767 9.16875L12.3207 5.60744Z"
    fill="currentColor" />
</svg>