<svg viewBox="0 0 24 24" fill="none" xmlns="http://www.w3.org/2000/svg">
  <path fill-rule="evenodd" clip-rule="evenodd"
    d="M10.3951 20.8875C10.2879 21.2876 9.87661 21.525 9.47651 21.4178C8.95994 21.2794 8.45833 21.0994 7.97609 20.8809C7.5988 20.71 7.43152 20.2655 7.60248 19.8883C7.77343 19.511 8.21786 19.3437 8.59516 19.5146C9.00318 19.6995 9.42761 19.8518 9.86474 19.9689C10.2648 20.0761 10.5023 20.4874 10.3951 20.8875ZM10.3951 3.11256C10.5023 3.51266 10.2648 3.92391 9.86473 4.03112C9.42761 4.14825 9.00318 4.30049 8.59516 4.48537C8.21786 4.65632 7.77343 4.48905 7.60247 4.11176C7.43152 3.73447 7.5988 3.29003 7.97609 3.11908C8.45833 2.90057 8.95994 2.72064 9.47651 2.58223C9.8766 2.47502 10.2879 2.71246 10.3951 3.11256ZM6.39506 4.91853C6.67821 5.22085 6.66267 5.69547 6.36035 5.97862C6.03339 6.28484 5.73032 6.6187 5.45483 6.97773C5.17934 7.33675 4.9353 7.71591 4.72413 8.11098C4.52888 8.47628 4.07445 8.61413 3.70914 8.41888C3.34384 8.22362 3.20599 7.76919 3.40125 7.40389C3.65082 6.93696 3.93924 6.48886 4.2648 6.06458C4.59035 5.64031 4.94854 5.24574 5.33496 4.88382C5.63728 4.60067 6.1119 4.61621 6.39506 4.91853ZM6.39506 19.0815C6.1119 19.3838 5.63729 19.3993 5.33496 19.1162C4.94855 18.7543 4.59035 18.3597 4.2648 17.9354C3.93924 17.5112 3.65082 17.063 3.40125 16.5961C3.20599 16.2308 3.34384 15.7764 3.70914 15.5811C4.07445 15.3859 4.52888 15.5237 4.72413 15.889C4.9353 16.2841 5.17934 16.6633 5.45483 17.0223C5.73032 17.3813 6.0334 17.7152 6.36035 18.0214C6.66267 18.3045 6.67821 18.7792 6.39506 19.0815ZM3.24237 9.79396C3.65105 9.86144 3.92765 10.2474 3.86017 10.6561C3.7872 11.0981 3.74999 11.5475 3.74999 12C3.74999 12.4526 3.7872 12.9019 3.86017 13.3439C3.92765 13.7526 3.65105 14.1386 3.24237 14.2061C2.83369 14.2735 2.44769 13.9969 2.38021 13.5882C2.29396 13.0659 2.24999 12.5348 2.24999 12C2.24999 11.4652 2.29396 10.9341 2.38021 10.4118C2.44769 10.0031 2.83368 9.72649 3.24237 9.79396Z"
    fill="currentColor" />
  <path fill-rule="evenodd" clip-rule="evenodd"
    d="M11.25 3C11.25 2.58579 11.5858 2.25 12 2.25C17.3848 2.25 21.75 6.61522 21.75 12C21.75 17.3848 17.3848 21.75 12 21.75C11.5858 21.75 11.25 21.4142 11.25 21C11.25 20.5858 11.5858 20.25 12 20.25C16.5563 20.25 20.25 16.5563 20.25 12C20.25 7.44365 16.5563 3.75 12 3.75C11.5858 3.75 11.25 3.41421 11.25 3Z"
    fill="currentColor" />
</svg>