<svg viewBox="0 0 24 24" fill="none" xmlns="http://www.w3.org/2000/svg">
  <path fill-rule="evenodd" clip-rule="evenodd"
    d="M12 8.75C10.2051 8.75 8.75 10.2051 8.75 12C8.75 13.7949 10.2051 15.25 12 15.25C13.7949 15.25 15.25 13.7949 15.25 12C15.25 10.2051 13.7949 8.75 12 8.75ZM7.25 12C7.25 9.37665 9.37665 7.25 12 7.25C14.6234 7.25 16.75 9.37665 16.75 12C16.75 14.6234 14.6234 16.75 12 16.75C9.37665 16.75 7.25 14.6234 7.25 12Z"
    fill="currentColor" />
  <path fill-rule="evenodd" clip-rule="evenodd"
    d="M12 2.25C12.4142 2.25 12.75 2.58579 12.75 3V5C12.75 5.41421 12.4142 5.75 12 5.75C11.5858 5.75 11.25 5.41421 11.25 5V3C11.25 2.58579 11.5858 2.25 12 2.25Z"
    fill="currentColor" />
  <path fill-rule="evenodd" clip-rule="evenodd"
    d="M18.25 12C18.25 11.5858 18.5858 11.25 19 11.25H21C21.4142 11.25 21.75 11.5858 21.75 12C21.75 12.4142 21.4142 12.75 21 12.75H19C18.5858 12.75 18.25 12.4142 18.25 12Z"
    fill="currentColor" />
  <path fill-rule="evenodd" clip-rule="evenodd"
    d="M16.2375 16.2374C16.5304 15.9445 17.0053 15.9445 17.2981 16.2374L19.0659 18.0052C19.3588 18.2981 19.3588 18.773 19.0659 19.0659C18.773 19.3588 18.2981 19.3588 18.0053 19.0659L16.2375 17.2981C15.9446 17.0052 15.9446 16.5303 16.2375 16.2374Z"
    fill="currentColor" />
  <path fill-rule="evenodd" clip-rule="evenodd"
    d="M5.23748 5.23743C5.53038 4.94454 6.00525 4.94454 6.29814 5.23743L7.53035 6.46964C7.82325 6.76253 7.82325 7.23741 7.53035 7.5303C7.23746 7.82319 6.76258 7.82319 6.46969 7.5303L5.23748 6.29809C4.94459 6.0052 4.94459 5.53032 5.23748 5.23743Z"
    fill="currentColor" />
  <path fill-rule="evenodd" clip-rule="evenodd"
    d="M7.94451 16.4697C8.23741 16.7626 8.23741 17.2374 7.94451 17.5303L6.5303 18.9445C6.23741 19.2374 5.76253 19.2374 5.46964 18.9445C5.17675 18.6516 5.17675 18.1768 5.46964 17.8839L6.88385 16.4697C7.17675 16.1768 7.65162 16.1768 7.94451 16.4697Z"
    fill="currentColor" />
  <path fill-rule="evenodd" clip-rule="evenodd"
    d="M19.0659 5.23742C19.3588 5.53032 19.3588 6.00519 19.0659 6.29808L17.6517 7.7123C17.3588 8.00519 16.8839 8.00519 16.591 7.7123C16.2981 7.4194 16.2981 6.94453 16.591 6.65164L18.0053 5.23742C18.2981 4.94453 18.773 4.94453 19.0659 5.23742Z"
    fill="currentColor" />
  <path fill-rule="evenodd" clip-rule="evenodd"
    d="M2.25 12C2.25 11.5858 2.58579 11.25 3 11.25H5C5.41421 11.25 5.75 11.5858 5.75 12C5.75 12.4142 5.41421 12.75 5 12.75H3C2.58579 12.75 2.25 12.4142 2.25 12Z"
    fill="currentColor" />
  <path fill-rule="evenodd" clip-rule="evenodd"
    d="M12 18.25C12.4142 18.25 12.75 18.5858 12.75 19V21C12.75 21.4142 12.4142 21.75 12 21.75C11.5858 21.75 11.25 21.4142 11.25 21V19C11.25 18.5858 11.5858 18.25 12 18.25Z"
    fill="currentColor" />
</svg>