<svg viewBox="0 0 21 21" fill="none" xmlns="http://www.w3.org/2000/svg">
<path d="M9.66536 2.36548V5.69881C9.66411 5.78715 9.68043 5.87486 9.71338 5.95684C9.74632 6.03882 9.79523 6.11343 9.85726 6.17635C9.91929 6.23926 9.9932 6.28922 10.0747 6.32331C10.1562 6.35741 10.2437 6.37497 10.332 6.37497C10.4204 6.37497 10.5078 6.35741 10.5894 6.32331C10.6709 6.28922 10.7448 6.23926 10.8068 6.17635C10.8688 6.11343 10.9177 6.03882 10.9507 5.95684C10.9836 5.87486 10.9999 5.78715 10.9987 5.69881V3.83293C14.3574 4.18168 16.9987 6.91251 16.9987 10.3655C16.9987 14.0552 14.0217 17.0321 10.332 17.0321C6.64234 17.0321 3.66536 14.0552 3.66536 10.3655C3.66536 8.72967 4.25331 7.24064 5.22917 6.08162C5.2856 6.0146 5.32828 5.93711 5.35476 5.85359C5.38125 5.77006 5.39103 5.68214 5.38353 5.59484C5.37604 5.50754 5.35142 5.42257 5.31109 5.34478C5.27076 5.267 5.2155 5.19792 5.14846 5.14149C5.08143 5.08506 5.00394 5.04238 4.92042 5.0159C4.83689 4.98942 4.74897 4.97965 4.66167 4.98715C4.57437 4.99465 4.4894 5.01927 4.41162 5.05961C4.33384 5.09995 4.26476 5.15521 4.20833 5.22225C3.03886 6.61123 2.33203 8.40929 2.33203 10.3655C2.33203 14.7758 5.92172 18.3655 10.332 18.3655C14.7423 18.3655 18.332 14.7758 18.332 10.3655C18.332 5.95517 14.7423 2.36548 10.332 2.36548H9.66536ZM6.59505 6.37069C6.39983 6.39916 6.25411 6.62812 6.38411 6.83162C7.36011 8.36296 9.02666 10.9455 9.38932 11.3082C9.90999 11.8289 10.7541 11.8289 11.2747 11.3082C11.7954 10.7875 11.7954 9.94344 11.2747 9.42277C10.9121 9.05944 8.32951 7.39356 6.79818 6.41756C6.73034 6.37423 6.66012 6.3612 6.59505 6.37069Z" fill="currentColor"/>
</svg>
