<svg viewBox="0 0 24 24" fill="none" xmlns="http://www.w3.org/2000/svg">
  <path fill-rule="evenodd" clip-rule="evenodd"
    d="M10.0072 4.77339C10.9276 3.30072 13.0724 3.30072 13.9928 4.77339L16.106 8.15451C17.0843 9.71973 15.959 11.75 14.1132 11.75H9.88679C8.04102 11.75 6.91574 9.71973 7.894 8.15451L10.0072 4.77339ZM12.7208 5.56839C12.3879 5.03572 11.6121 5.03572 11.2792 5.56839L9.16599 8.94951C8.81216 9.51565 9.21917 10.25 9.88679 10.25H14.1132C14.7808 10.25 15.1878 9.51565 14.834 8.94951L12.7208 5.56839Z"
    fill="currentColor" />
  <path fill-rule="evenodd" clip-rule="evenodd"
    d="M7.90098 11.2965C8.33683 10.6427 9.07057 10.25 9.8563 10.25H14.1437C14.9294 10.25 15.6632 10.6427 16.099 11.2965L17.9657 14.0965C19.0068 15.6582 17.8873 17.75 16.0104 17.75H7.98963C6.1127 17.75 4.99318 15.6582 6.03431 14.0965L7.90098 11.2965ZM9.8563 11.75C9.5721 11.75 9.3067 11.892 9.14906 12.1285L7.28239 14.9285C6.90581 15.4934 7.31074 16.25 7.98963 16.25H16.0104C16.6893 16.25 17.0942 15.4934 16.7176 14.9285L14.851 12.1285C14.6933 11.892 14.4279 11.75 14.1437 11.75H9.8563Z"
    fill="currentColor" />
  <path fill-rule="evenodd" clip-rule="evenodd"
    d="M12 16.25C12.4142 16.25 12.75 16.5858 12.75 17V20.5C12.75 20.9142 12.4142 21.25 12 21.25C11.5858 21.25 11.25 20.9142 11.25 20.5V17C11.25 16.5858 11.5858 16.25 12 16.25Z"
    fill="currentColor" />
</svg>