<svg viewBox="0 0 24 24" fill="none" xmlns="http://www.w3.org/2000/svg">
  <path fill-rule="evenodd" clip-rule="evenodd"
    d="M13.5638 4.62043C12.5988 4.13794 11.4573 4.16577 10.517 4.69469L6.40665 7.00677C5.3833 7.5824 4.75 8.66525 4.75 9.83939V14.1606C4.75 15.3347 5.3833 16.4176 6.40665 16.9932L10.4067 19.2432C11.396 19.7997 12.604 19.7997 13.5933 19.2432L17.5933 16.9932C18.6167 16.4176 19.25 15.3347 19.25 14.1606V9.7947C19.25 8.64817 18.6316 7.59078 17.6323 7.02868L18.3677 5.72132C19.8393 6.54909 20.75 8.10626 20.75 9.7947V14.1606C20.75 15.8767 19.8244 17.4593 18.3287 18.3006L14.3287 20.5506C12.8828 21.3639 11.1172 21.3639 9.67126 20.5506L5.67126 18.3006C4.17559 17.4593 3.25 15.8767 3.25 14.1606V9.83939C3.25 8.12334 4.17559 6.54072 5.67126 5.69941L9.78161 3.38733C11.1559 2.61428 12.8243 2.57361 14.2346 3.27878L14.3354 3.32918L13.6646 4.67082L13.5638 4.62043Z"
    fill="currentColor" />
  <path fill-rule="evenodd" clip-rule="evenodd"
    d="M9 9.25C9.41421 9.25 9.75 9.58579 9.75 10V13.1076C9.75 13.3404 9.85815 13.56 10.0427 13.702C10.3123 13.9094 10.6877 13.9094 10.9573 13.702C11.1418 13.56 11.25 13.3404 11.25 13.1076V10C11.25 9.58579 11.5858 9.25 12 9.25C12.4142 9.25 12.75 9.58579 12.75 10V13.1076C12.75 13.8061 12.4255 14.465 11.8718 14.891C11.0631 15.5131 9.93692 15.5131 9.12815 14.891C8.57446 14.465 8.25 13.8061 8.25 13.1076V10C8.25 9.58579 8.58579 9.25 9 9.25Z"
    fill="currentColor" />
  <path fill-rule="evenodd" clip-rule="evenodd"
    d="M15 9.25C15.4142 9.25 15.75 9.58579 15.75 10V14.5C15.75 14.9142 15.4142 15.25 15 15.25C14.5858 15.25 14.25 14.9142 14.25 14.5V10C14.25 9.58579 14.5858 9.25 15 9.25Z"
    fill="currentColor" />
  <path fill-rule="evenodd" clip-rule="evenodd"
    d="M16 2.75C14.7574 2.75 13.75 3.75736 13.75 5C13.75 6.24264 14.7574 7.25 16 7.25C17.2426 7.25 18.25 6.24264 18.25 5C18.25 3.75736 17.2426 2.75 16 2.75ZM12.25 5C12.25 2.92893 13.9289 1.25 16 1.25C18.0711 1.25 19.75 2.92893 19.75 5C19.75 7.07107 18.0711 8.75 16 8.75C13.9289 8.75 12.25 7.07107 12.25 5Z"
    fill="currentColor" />
</svg>