<svg viewBox="0 0 13 12" fill="none" xmlns="http://www.w3.org/2000/svg">
  <path fill-rule="evenodd" clip-rule="evenodd"
    d="M11.2357 3.09763C11.3659 3.22781 11.3659 3.43886 11.2357 3.56904L7.2357 7.56904C7.10553 7.69921 6.89447 7.69921 6.7643 7.56904L5.33333 6.13807L2.56904 8.90237C2.43886 9.03254 2.22781 9.03254 2.09763 8.90237C1.96746 8.77219 1.96746 8.56114 2.09763 8.43096L5.09763 5.43096C5.22781 5.30079 5.43886 5.30079 5.56904 5.43096L7 6.86193L10.7643 3.09763C10.8945 2.96746 11.1055 2.96746 11.2357 3.09763Z"
    fill="currentColor" />
  <path fill-rule="evenodd" clip-rule="evenodd"
    d="M8 3.33333C8 3.14924 8.14924 3 8.33333 3H11C11.1841 3 11.3333 3.14924 11.3333 3.33333V6C11.3333 6.1841 11.1841 6.33333 11 6.33333C10.8159 6.33333 10.6667 6.1841 10.6667 6V3.66667H8.33333C8.14924 3.66667 8 3.51743 8 3.33333Z"
    fill="currentColor" />
</svg>