<svg viewBox="0 0 24 24" fill="none" xmlns="http://www.w3.org/2000/svg">
  <path fill-rule="evenodd" clip-rule="evenodd"
    d="M12 4.75C9.65279 4.75 7.75 6.65279 7.75 9C7.75 11.3472 9.65279 13.25 12 13.25C14.3472 13.25 16.25 11.3472 16.25 9C16.25 6.65279 14.3472 4.75 12 4.75ZM6.25 9C6.25 5.82436 8.82436 3.25 12 3.25C15.1756 3.25 17.75 5.82436 17.75 9C17.75 12.1756 15.1756 14.75 12 14.75C8.82436 14.75 6.25 12.1756 6.25 9Z"
    fill="currentColor" />
  <path fill-rule="evenodd" clip-rule="evenodd"
    d="M12 16.3497C14.0795 16.3497 16.2139 17.0111 17.7143 18.4043C18.0931 18.756 18.4224 19.1677 18.6709 19.6646C18.8561 20.0351 18.7059 20.4856 18.3355 20.6708C17.965 20.8561 17.5145 20.7059 17.3292 20.3354C17.1722 20.0214 16.9599 19.7506 16.6937 19.5035C15.5316 18.4245 13.7933 17.8497 12 17.8497C10.2068 17.8497 8.46845 18.4245 7.30638 19.5035C7.0402 19.7506 6.82789 20.0214 6.67086 20.3354C6.48562 20.7059 6.03512 20.8561 5.66463 20.6708C5.29415 20.4856 5.14398 20.0351 5.32922 19.6646C5.57764 19.1677 5.90696 18.756 6.28574 18.4043C7.78623 17.0111 9.92056 16.3497 12 16.3497Z"
    fill="currentColor" />
</svg>