<svg viewBox="0 0 24 24" fill="none" xmlns="http://www.w3.org/2000/svg">
  <path fill-rule="evenodd" clip-rule="evenodd"
    d="M12.8839 3.94455C12.3957 3.45639 11.6043 3.45639 11.1161 3.94455L10.1161 4.94455C9.6004 5.46027 8.90092 5.75 8.17158 5.75H7C6.30965 5.75 5.75 6.30965 5.75 7V8.17158C5.75 8.90092 5.46027 9.60039 4.94455 10.1161L3.94455 11.1161C3.45639 11.6043 3.45639 12.3957 3.94455 12.8839L4.94455 13.8839C5.46027 14.3996 5.75 15.0991 5.75 15.8284V17C5.75 17.6904 6.30965 18.25 7 18.25H8.17158C8.90092 18.25 9.60039 18.5397 10.1161 19.0555L11.1161 20.0555C11.6043 20.5436 12.3957 20.5436 12.8839 20.0555L13.8839 19.0555C14.3996 18.5397 15.0991 18.25 15.8284 18.25H17C17.6904 18.25 18.25 17.6904 18.25 17V15.8284C18.25 15.0991 18.5397 14.3996 19.0555 13.8839L20.0555 12.8839C20.5436 12.3957 20.5436 11.6043 20.0555 11.1161L19.0555 10.1161C18.5397 9.60039 18.25 8.90092 18.25 8.17158V7C18.25 6.30965 17.6904 5.75 17 5.75H15.8284C15.0991 5.75 14.3996 5.46027 13.8839 4.94455L12.8839 3.94455ZM10.0555 2.88389C11.1294 1.80994 12.8706 1.80995 13.9445 2.88389L14.9445 3.88389C15.179 4.11831 15.4969 4.25 15.8284 4.25H17C18.5188 4.25 19.75 5.48122 19.75 7V8.17158C19.75 8.5031 19.8817 8.82104 20.1161 9.05546L21.1161 10.0555C22.1901 11.1294 22.1901 12.8706 21.1161 13.9445L20.1161 14.9445C19.8817 15.179 19.75 15.4969 19.75 15.8284V17C19.75 18.5188 18.5188 19.75 17 19.75H15.8284C15.4969 19.75 15.179 19.8817 14.9445 20.1161L13.9445 21.1161C12.8706 22.1901 11.1294 22.1901 10.0555 21.1161L9.05546 20.1161C8.82104 19.8817 8.5031 19.75 8.17158 19.75H7C5.48122 19.75 4.25 18.5188 4.25 17V15.8284C4.25 15.4969 4.11831 15.179 3.88389 14.9445L2.88389 13.9445C1.80994 12.8706 1.80995 11.1294 2.88389 10.0555L3.88389 9.05546C4.11831 8.82104 4.25 8.5031 4.25 8.17158V7C4.25 5.48122 5.48122 4.25 7 4.25H8.17158C8.5031 4.25 8.82104 4.11831 9.05546 3.88389L10.0555 2.88389Z"
    fill="currentColor" />
  <path fill-rule="evenodd" clip-rule="evenodd"
    d="M14.5303 9.8333C14.8232 10.1262 14.8232 10.6011 14.5303 10.894L11.3155 14.1088C10.9906 14.4337 10.4639 14.4337 10.1391 14.1088L8.96967 12.9394C8.67678 12.6465 8.67678 12.1716 8.96967 11.8788C9.26256 11.5859 9.73744 11.5859 10.0303 11.8788L10.7273 12.5757L13.4697 9.8333C13.7626 9.54041 14.2374 9.54041 14.5303 9.8333Z"
    fill="currentColor" />
</svg>