<svg viewBox="0 0 21 20" fill="none" xmlns="http://www.w3.org/2000/svg">
<path d="M18.8327 10.0001C18.8327 8.788 18.1439 7.73008 17.1385 7.19591C17.4131 6.14966 17.1456 4.98633 16.3289 4.17008C15.7193 3.56008 14.916 3.25675 14.1118 3.25675C13.8398 3.25675 13.5677 3.29133 13.3031 3.36091C12.7693 2.3555 11.7114 1.66675 10.4993 1.66675C9.28727 1.66675 8.22935 2.3555 7.69518 3.36091C7.43018 3.29133 7.15852 3.25675 6.88643 3.25675C6.08227 3.25675 5.27935 3.5605 4.66935 4.17008C3.8531 4.98633 3.58518 6.14925 3.85977 7.19591C2.85477 7.73008 2.16602 8.788 2.16602 10.0001C2.16602 11.2122 2.85477 12.2701 3.86018 12.8042C3.5856 13.8505 3.8531 15.0138 4.66977 15.8301C5.27935 16.4397 6.08268 16.7434 6.88685 16.7434C7.15893 16.7434 7.43102 16.7088 7.6956 16.6392C8.22935 17.6447 9.28727 18.3334 10.4993 18.3334C11.7114 18.3334 12.7693 17.6447 13.3035 16.6392C13.5685 16.7088 13.8402 16.7434 14.1123 16.7434C14.9164 16.7434 15.7193 16.4397 16.3293 15.8301C17.1456 15.0138 17.4135 13.8509 17.1389 12.8042C18.1439 12.2701 18.8327 11.2122 18.8327 10.0001Z" fill="#2196F3"/>
<path d="M9.66729 13.6786L6.57812 10.5891L7.75646 9.41073L9.66729 11.3211L13.6615 7.32739L14.8398 8.50573L9.66729 13.6786Z" fill="white"/>
</svg>
