<svg viewBox="0 0 24 24" fill="none" xmlns="http://www.w3.org/2000/svg">
  <path fill-rule="evenodd" clip-rule="evenodd"
    d="M2.25 8C2.25 4.82436 4.82436 2.25 8 2.25H16C19.1756 2.25 21.75 4.82436 21.75 8V16C21.75 19.1756 19.1756 21.75 16 21.75H8C4.82436 21.75 2.25 19.1756 2.25 16V8ZM8 3.75C5.65279 3.75 3.75 5.65279 3.75 8V16C3.75 18.3472 5.65279 20.25 8 20.25H16C18.3472 20.25 20.25 18.3472 20.25 16V8C20.25 5.65279 18.3472 3.75 16 3.75H8Z"
    fill="currentColor" />
  <path fill-rule="evenodd" clip-rule="evenodd"
    d="M2.75 9.5C2.75 9.08579 3.08579 8.75 3.5 8.75H20.5C20.9142 8.75 21.25 9.08579 21.25 9.5C21.25 9.91421 20.9142 10.25 20.5 10.25H3.5C3.08579 10.25 2.75 9.91421 2.75 9.5Z"
    fill="currentColor" />
  <path fill-rule="evenodd" clip-rule="evenodd"
    d="M16.3377 2.33032C16.7076 2.51681 16.8562 2.96782 16.6697 3.33767L13.509 9.60636C13.3225 9.97622 12.8715 10.1249 12.5016 9.93838C12.1318 9.7519 11.9831 9.30089 12.1696 8.93103L15.3304 2.66235C15.5168 2.29249 15.9678 2.14384 16.3377 2.33032Z"
    fill="currentColor" />
  <path fill-rule="evenodd" clip-rule="evenodd"
    d="M10.8209 2.34995C11.1799 2.55656 11.3035 3.01508 11.0969 3.37409L7.48933 9.64277C7.28273 10.0018 6.82421 10.1253 6.4652 9.91872C6.10619 9.71212 5.98264 9.2536 6.18924 8.89459L9.79677 2.62591C10.0034 2.2669 10.4619 2.14335 10.8209 2.34995Z"
    fill="currentColor" />
  <path fill-rule="evenodd" clip-rule="evenodd"
    d="M12.257 18.4073C10.7515 19.2638 8.88344 18.1694 8.8944 16.4374L8.91085 13.8394C8.92181 12.1074 10.8036 11.0367 12.2981 11.9122L14.5398 13.2255C16.0343 14.101 16.0206 16.266 14.5152 17.1225L12.257 18.4073ZM10.3944 16.4469C10.3907 17.0243 11.0134 17.389 11.5152 17.1035L13.7734 15.8188C14.2752 15.5333 14.2798 14.8116 13.7816 14.5198L11.5399 13.2065C11.0417 12.9147 10.4145 13.2716 10.4108 13.8489L10.3944 16.4469Z"
    fill="currentColor" />
</svg>