<svg viewBox="0 0 24 24" fill="none" xmlns="http://www.w3.org/2000/svg">
  <path fill-rule="evenodd" clip-rule="evenodd"
    d="M2.25 9C2.25 6.37665 4.37665 4.25 7 4.25H12C14.6234 4.25 16.75 6.37665 16.75 9V15C16.75 17.6234 14.6234 19.75 12 19.75H7C4.37665 19.75 2.25 17.6234 2.25 15V9ZM7 5.75C5.20507 5.75 3.75 7.20507 3.75 9V15C3.75 16.7949 5.20507 18.25 7 18.25H12C13.7949 18.25 15.25 16.7949 15.25 15V9C15.25 7.20507 13.7949 5.75 12 5.75H7Z"
    fill="currentColor" />
  <path fill-rule="evenodd" clip-rule="evenodd"
    d="M20.25 8.91897C20.25 8.4428 19.686 8.19161 19.3321 8.51016L16.5017 11.0575C16.1938 11.3346 15.7196 11.3096 15.4425 11.0017C15.1654 10.6938 15.1904 10.2196 15.4983 9.94253L18.3286 7.39522C19.6478 6.20792 21.75 7.14414 21.75 8.91897V15.081C21.75 16.8559 19.6479 17.7921 18.3286 16.6048L15.4983 14.0575C15.1904 13.7804 15.1654 13.3062 15.4425 12.9983C15.7196 12.6904 16.1938 12.6654 16.5017 12.9425L19.3321 15.4898C19.686 15.8084 20.25 15.5572 20.25 15.081V8.91897Z"
    fill="currentColor" />
</svg>