<svg viewBox="0 0 24 24" fill="none" xmlns="http://www.w3.org/2000/svg">
  <path fill-rule="evenodd" clip-rule="evenodd"
    d="M15.25 8.49796C15.25 6.94656 13.4421 6.09754 12.2482 7.08831C11.733 7.51594 11.0844 7.75 10.4148 7.75H10C8.91915 7.75 7.57148 7.99493 6.52063 8.65238C5.51231 9.28321 4.75 10.3031 4.75 12C4.75 13.6969 5.51231 14.7168 6.52063 15.3476C7.57148 16.0051 8.91915 16.25 10 16.25H10.4148C11.0844 16.25 11.733 16.4841 12.2482 16.9117C13.4421 17.9025 15.25 17.0534 15.25 15.5021V8.49796ZM11.2903 5.93404C13.4617 4.13199 16.75 5.67622 16.75 8.49796V15.5021C16.75 18.3238 13.4617 19.868 11.2903 18.066C11.0443 17.8618 10.7346 17.75 10.4148 17.75H10C8.74176 17.75 7.08943 17.4729 5.72505 16.6193C4.31814 15.7391 3.25 14.259 3.25 12C3.25 9.74106 4.31814 8.26095 5.72505 7.38074C7.08943 6.52715 8.74176 6.25 10 6.25H10.4148C10.7346 6.25 11.0443 6.13824 11.2903 5.93404Z"
    fill="currentColor" />
  <path fill-rule="evenodd" clip-rule="evenodd"
    d="M18.55 9.40001C18.8814 9.15149 19.3515 9.21864 19.6 9.55001C20.6889 11.0019 20.6889 12.9982 19.6 14.45C19.3515 14.7814 18.8814 14.8485 18.55 14.6C18.2186 14.3515 18.1515 13.8814 18.4 13.55C19.0889 12.6315 19.0889 11.3685 18.4 10.45C18.1515 10.1186 18.2186 9.64854 18.55 9.40001Z"
    fill="currentColor" />
</svg>