<svg viewBox="0 0 150 150" fill="none" xmlns="http://www.w3.org/2000/svg">
<path d="M27.75 44.7915V105.21C27.75 114.621 35.379 122.251 44.7915 122.251H105.21C114.621 122.251 122.251 114.622 122.251 105.21V44.7915C122.251 35.3805 114.622 27.75 105.21 27.75H44.7915C35.3775 27.75 27.75 35.379 27.75 44.7915Z" fill="white" stroke="black" stroke-width="0.3" stroke-linecap="round" stroke-linejoin="round"/>
<path d="M97.5 97.5H52.5C49.1865 97.5 46.5 94.8135 46.5 91.5V58.5C46.5 55.1865 49.1865 52.5 52.5 52.5H97.5C100.813 52.5 103.5 55.1865 103.5 58.5V91.5C103.5 94.8135 100.813 97.5 97.5 97.5Z" fill="url(#paint0_linear_7699_15344)" stroke="black" stroke-width="0.3" stroke-linecap="round" stroke-linejoin="round"/>
<path d="M50.5 74V59.25C50.5 57.7306 51.7306 56.5 53.25 56.5H96.75C98.2694 56.5 99.5 57.7306 99.5 59.25V74H50.5Z" fill="white" stroke="black" stroke-width="0.5"/>
<path d="M50.5 74V63.75C50.5 62.2306 51.7306 61 53.25 61H96.75C98.2694 61 99.5 62.2306 99.5 63.75V74H50.5Z" fill="white" stroke="black" stroke-width="0.5"/>
<path d="M50.5 74V68.25C50.5 66.7306 51.7306 65.5 53.25 65.5H96.75C98.2694 65.5 99.5 66.7306 99.5 68.25V74H50.5Z" fill="white" stroke="black" stroke-width="0.5"/>
<path d="M50.5 86.732V72.75C50.5 71.2306 51.7306 70 53.25 70H96.75C98.2694 70 99.5 71.2306 99.5 72.75V86.732H50.5Z" fill="white" stroke="black" stroke-width="0.5"/>
<path d="M51.6553 98.0085H97.4998C100.813 98.0085 104.139 94.8135 104.139 91.5V74.25H87.9853C85.3663 74.25 82.8388 75.561 81.5773 77.8575C80.3023 80.1765 77.8348 81.75 74.9998 81.75C72.1648 81.75 69.6973 80.178 68.4223 77.8575C67.1608 75.561 64.6333 74.25 62.0143 74.25H45.6553V91.5C45.6553 94.8135 48.3418 98.0085 51.6553 98.0085Z" fill="url(#paint1_linear_7699_15344)" stroke="black" stroke-width="0.3" stroke-linecap="round" stroke-linejoin="round"/>
<path d="M89.25 94.5H53.25C51.1815 94.5 49.5 92.8185 49.5 90.75V89.25C49.5 88.836 49.836 88.5 50.25 88.5C50.664 88.5 51 88.836 51 89.25V90.75C51 91.9905 52.0095 93 53.25 93H89.25C89.664 93 90 93.336 90 93.75C90 94.164 89.664 94.5 89.25 94.5Z" fill="black"/>
<path d="M50.25 87C49.836 87 49.5 86.664 49.5 86.25V83.25C49.5 82.836 49.836 82.5 50.25 82.5C50.664 82.5 51 82.836 51 83.25V86.25C51 86.664 50.664 87 50.25 87Z" fill="black"/>
<path d="M50.25 81C49.836 81 49.5 80.664 49.5 80.25V78.75C49.5 78.336 49.836 78 50.25 78C50.664 78 51 78.336 51 78.75V80.25C51 80.664 50.664 81 50.25 81Z" fill="black"/>
<path d="M96.75 94.5H92.25C91.836 94.5 91.5 94.164 91.5 93.75C91.5 93.336 91.836 93 92.25 93H96.75C97.164 93 97.5 93.336 97.5 93.75C97.5 94.164 97.164 94.5 96.75 94.5Z" fill="black"/>
<path d="M50.096 66.6825C55.1195 63.9375 59.192 56.88 59.192 50.9175C59.192 44.955 55.1195 42.345 50.096 45.0945C45.0725 47.844 41 54.897 41 60.8595C41 66.822 45.0725 69.426 50.096 66.6825Z" fill="black"/>
<path d="M48.3072 61.836V60.3945L47.1072 60.9945V59.5545L45.9072 60.162V55.842L47.1072 55.2345V53.7945L48.3072 53.1945V51.756L51.8787 49.9365V51.3765L53.0787 50.7765V52.215L54.2787 51.615V55.935L53.0787 56.5425V57.9825L51.8787 58.59V60.0285L48.3072 61.836ZM49.4997 59.7945L51.8847 58.5795V52.8195L50.6922 53.427V51.987L48.3072 53.202V58.962L49.4997 58.362V59.7945Z" fill="white"/>
<defs>
<linearGradient id="paint0_linear_7699_15344" x1="71.2432" y1="59.1297" x2="78.0755" y2="103.38" gradientUnits="userSpaceOnUse">
<stop stop-color="#373FEF"/>
<stop offset="1" stop-color="#DB5BFD"/>
</linearGradient>
<linearGradient id="paint1_linear_7699_15344" x1="71.0424" y1="77.7502" x2="72.9309" y2="101.52" gradientUnits="userSpaceOnUse">
<stop stop-color="#373FEF"/>
<stop offset="1" stop-color="#DB5BFD"/>
</linearGradient>
</defs>
</svg>
