<svg viewBox="0 0 20 21" fill="none" xmlns="http://www.w3.org/2000/svg">
<path fill-rule="evenodd" clip-rule="evenodd" d="M10.993 5.04082L16.5706 15.0228C16.6349 15.1381 16.668 15.2682 16.6665 15.4003C16.6651 15.5323 16.6291 15.6617 16.5623 15.7756C16.4954 15.8895 16.4 15.9839 16.2854 16.0496C16.1708 16.1152 16.041 16.1498 15.909 16.1498H4.0913C3.95913 16.1498 3.82926 16.1153 3.71456 16.0496C3.59987 15.9839 3.50434 15.8894 3.43746 15.7754C3.37057 15.6614 3.33467 15.5319 3.33329 15.3998C3.33192 15.2676 3.36513 15.1374 3.42963 15.022L9.008 5.04082C9.10672 4.8644 9.25069 4.7175 9.42508 4.61524C9.59947 4.51299 9.79797 4.45909 10.0001 4.45909C10.2023 4.45909 10.4008 4.51299 10.5752 4.61524C10.7496 4.7175 10.8935 4.8644 10.9923 5.04082H10.993ZM10.0001 7.4336C9.88206 7.4336 9.76535 7.45887 9.65787 7.50773C9.55038 7.5566 9.4546 7.62791 9.37698 7.71688C9.29936 7.80585 9.24169 7.91041 9.20785 8.02353C9.17401 8.13665 9.16479 8.2557 9.18081 8.37268L9.56962 11.227C9.5835 11.3314 9.6348 11.4272 9.71399 11.4965C9.79318 11.5659 9.89486 11.6041 10.0001 11.6041C10.1054 11.6041 10.2071 11.5659 10.2863 11.4965C10.3655 11.4272 10.4168 11.3314 10.4306 11.227L10.8195 8.37268C10.8355 8.2557 10.8262 8.13665 10.7924 8.02353C10.7586 7.91041 10.7009 7.80585 10.6233 7.71688C10.5457 7.62791 10.4499 7.5566 10.3424 7.50773C10.2349 7.45887 10.1182 7.4336 10.0001 7.4336ZM10.0001 13.9745C10.2263 13.9745 10.4432 13.8847 10.6031 13.7248C10.763 13.5649 10.8528 13.348 10.8528 13.1219C10.8528 12.8957 10.763 12.6789 10.6031 12.5189C10.4432 12.359 10.2263 12.2692 10.0001 12.2692C9.77399 12.2692 9.55711 12.359 9.3972 12.5189C9.23729 12.6789 9.14746 12.8957 9.14746 13.1219C9.14746 13.348 9.23729 13.5649 9.3972 13.7248C9.55711 13.8847 9.77399 13.9745 10.0001 13.9745Z" fill="currentColor"/>
</svg>
