<svg viewBox="0 0 24 24" fill="none" xmlns="http://www.w3.org/2000/svg">
  <path fill-rule="evenodd" clip-rule="evenodd"
    d="M8.5 7.25C6.70507 7.25 5.25 8.70507 5.25 10.5V13.5C5.25 15.2949 6.70507 16.75 8.5 16.75H15.5C17.2949 16.75 18.75 15.2949 18.75 13.5V10.5C18.75 8.70507 17.2949 7.25 15.5 7.25H8.5ZM3.75 10.5C3.75 7.87665 5.87665 5.75 8.5 5.75H15.5C18.1234 5.75 20.25 7.87665 20.25 10.5V13.5C20.25 16.1234 18.1234 18.25 15.5 18.25H8.5C5.87665 18.25 3.75 16.1234 3.75 13.5V10.5Z"
    fill="currentColor" />
  <path fill-rule="evenodd" clip-rule="evenodd"
    d="M11.023 10.823C10.8526 10.915 10.7613 11.0646 10.7602 11.2314L10.75 12.7629C10.7489 12.9296 10.838 13.0798 11.0066 13.1736C11.1769 13.2683 11.3916 13.2811 11.5845 13.177L12.9872 12.4196C13.3358 12.2314 13.3373 11.7917 12.9934 11.6005L11.6008 10.8264C11.4097 10.7201 11.1949 10.7302 11.023 10.823ZM9.26026 11.2214C9.27082 9.63836 11.0268 8.79099 12.3297 9.51535L13.7222 10.2895C15.1034 11.0574 15.0891 12.9894 13.6999 13.7395L12.2971 14.4969C10.9856 15.205 9.23948 14.3374 9.25004 12.7529L9.26026 11.2214Z"
    fill="currentColor" />
</svg>